<svg xmlns="http://www.w3.org/2000/svg" viewBox="0 0 500 500"><g id="freepik--background-complete--inject-68"><circle cx="101.17" cy="84" r="33.71" transform="translate(-14.63 146.29) rotate(-67.98)" style="fill:#ebebeb"></circle><circle cx="102.71" cy="84.75" r="32.16" transform="translate(-29.09 65.8) rotate(-31.35)" style="fill:#dbdbdb"></circle><circle cx="102.71" cy="84.75" r="30.13" transform="translate(-16.63 25.68) rotate(-13.2)" style="fill:#fff"></circle><path d="M132.16,78.35c-13.72,8.32-36.27,22-48.88,29.43a30.21,30.21,0,0,1-8.23-11.07l41.69-38.64A30.17,30.17,0,0,1,132.16,78.35Z" style="fill:#ebebeb;opacity:0.5"></path><path d="M132.82,85.8a29.75,29.75,0,0,1-2,9.79L93.25,113.36a28.56,28.56,0,0,1-4.75-2C99.85,104.76,120.6,92.83,132.82,85.8Z" style="fill:#ebebeb;opacity:0.5"></path><rect x="102.42" y="56.8" width="0.58" height="4.57" style="fill:#c7c7c7"></rect><rect x="89.59" y="60.24" width="0.58" height="4.57" transform="translate(-19.22 53.31) rotate(-30)" style="fill:#c7c7c7"></rect><rect x="80.2" y="69.63" width="0.58" height="4.57" transform="translate(-22.04 105.65) rotate(-60)" style="fill:#c7c7c7"></rect><rect x="74.77" y="84.46" width="4.57" height="0.58" style="fill:#c7c7c7"></rect><rect x="78.2" y="97.29" width="4.57" height="0.58" transform="translate(-38.01 53.32) rotate(-30)" style="fill:#c7c7c7"></rect><rect x="87.6" y="106.68" width="4.57" height="0.58" transform="translate(-47.69 131.4) rotate(-60.03)" style="fill:#c7c7c7"></rect><rect x="102.42" y="108.13" width="0.58" height="4.57" style="fill:#c7c7c7"></rect><rect x="115.25" y="104.69" width="0.58" height="4.57" transform="translate(-38.01 72.1) rotate(-30)" style="fill:#c7c7c7"></rect><rect x="124.64" y="95.29" width="0.58" height="4.57" transform="matrix(0.5, -0.87, 0.87, 0.5, -22.04, 156.97)" style="fill:#c7c7c7"></rect><rect x="126.09" y="84.46" width="4.57" height="0.58" style="fill:#c7c7c7"></rect><rect x="122.65" y="71.62" width="4.57" height="0.58" transform="translate(-19.22 72.1) rotate(-30)" style="fill:#c7c7c7"></rect><rect x="113.26" y="62.23" width="4.57" height="0.58" transform="translate(3.67 131.4) rotate(-60.04)" style="fill:#c7c7c7"></rect><polygon points="103.15 58.87 104.14 86.78 101.28 86.75 102.37 58.86 103.15 58.87" style="fill:#c7c7c7"></polygon><polygon points="120.53 75.01 101.76 87 100.39 84.49 120.16 74.33 120.53 75.01" style="fill:#a6a6a6"></polygon><path d="M103.69,84.75a1,1,0,1,1-1-1A1,1,0,0,1,103.69,84.75Z" style="fill:#c7c7c7"></path><rect x="293.69" y="48.69" width="54.52" height="72.13" transform="translate(405.7 -236.19) rotate(90)" style="fill:#ebebeb"></rect><rect x="299.59" y="54.41" width="42.71" height="60.69" transform="translate(405.7 -236.19) rotate(90)" style="fill:#fff"></rect><rect x="306.92" y="64.82" width="28.05" height="39.86" transform="translate(405.7 -236.19) rotate(90)" style="fill:#ebebeb"></rect><rect x="357.01" y="57.49" width="1.64" height="54.52" style="fill:#dbdbdb"></rect><rect x="290.6" y="63.4" width="1.64" height="42.71" style="fill:#dbdbdb"></rect><path d="M342.33,95.61a5,5,0,1,1-5-5A5,5,0,0,1,342.33,95.61Z" style="fill:#c7c7c7"></path><rect x="381.38" y="94.96" width="54.52" height="72.13" transform="translate(539.66 -277.61) rotate(90)" style="fill:#ebebeb"></rect><rect x="387.28" y="100.68" width="42.71" height="60.69" transform="translate(539.66 -277.61) rotate(90)" style="fill:#fff"></rect><rect x="444.7" y="103.77" width="1.64" height="54.52" style="fill:#dbdbdb"></rect><rect x="378.29" y="109.67" width="1.64" height="42.71" style="fill:#dbdbdb"></rect><rect x="408.24" y="96.46" width="0.8" height="39.86" transform="translate(525.02 -292.25) rotate(90)" style="fill:#ebebeb"></rect><rect x="408.24" y="114" width="0.8" height="39.86" transform="translate(542.57 -274.71) rotate(90)" style="fill:#ebebeb"></rect><rect x="408.24" y="106.85" width="0.8" height="24.13" transform="translate(527.55 -289.72) rotate(90)" style="fill:#ebebeb"></rect><rect x="408.24" y="128.75" width="0.8" height="24.13" transform="translate(549.45 -267.82) rotate(90)" style="fill:#ebebeb"></rect><rect x="408.24" y="133.37" width="0.8" height="19.3" transform="translate(551.65 -265.62) rotate(90)" style="fill:#ebebeb"></rect><path d="M430.9,141.67a4.39,4.39,0,1,1-4.39-4.39A4.39,4.39,0,0,1,430.9,141.67Z" style="fill:#c7c7c7"></path><rect x="390.06" y="124.39" width="37.16" height="4.57" style="fill:#ebebeb"></rect></g><g id="freepik--Shadow--inject-68"><ellipse cx="250" cy="439.35" rx="163.7" ry="22.61" style="fill:#ebebeb"></ellipse></g><g id="freepik--Chair--inject-68"><polygon points="250.37 302.81 248.04 316.76 232.28 401.89 229.73 401.89 241.2 316.76 242.89 302.81 250.37 302.81" style="fill:#dbdbdb"></polygon><polygon points="242.89 302.81 250.37 302.81 248.04 316.76 241.2 316.76 242.89 302.81" style="fill:#c7c7c7"></polygon><polygon points="299.87 401.89 297.33 401.89 281.56 316.76 279.24 302.81 286.71 302.81 288.4 316.76 299.87 401.89" style="fill:#dbdbdb"></polygon><polygon points="286.71 302.81 288.4 316.76 281.56 316.76 279.24 302.81 286.71 302.81" style="fill:#c7c7c7"></polygon><polygon points="347.15 401.89 344.61 401.89 328.85 316.76 326.52 302.81 333.99 302.81 335.69 316.76 347.15 401.89" style="fill:#dbdbdb"></polygon><polygon points="335.69 316.76 328.85 316.76 326.52 302.81 333.99 302.81 335.69 316.76" style="fill:#c7c7c7"></polygon><polygon points="343.12 309.37 227.61 309.37 227.61 300 270.85 297.19 285.38 213.37 338.71 213.37 343.12 309.37" style="fill:#dbdbdb"></polygon><polygon points="343.12 309.37 336.82 309.37 332.72 213.37 338.71 213.37 343.12 309.37" style="fill:#c7c7c7"></polygon></g><g id="freepik--Desk--inject-68"><rect x="354.2" y="260.56" width="76.87" height="141.23" style="fill:#455a64"></rect><rect x="354.2" y="260.56" width="76.87" height="9.21" style="fill:#263238"></rect><rect x="182.72" y="253.14" width="281.36" height="7.43" style="fill:#455a64"></rect><polygon points="199.12 260.56 198.87 269.77 195.63 401.79 189.76 401.79 189.76 260.56 199.12 260.56" style="fill:#455a64"></polygon><polygon points="189.76 260.56 199.12 260.56 198.87 269.77 189.76 269.77 189.76 260.56" style="fill:#263238"></polygon><rect x="431.07" y="260.56" width="26.05" height="141.23" style="fill:#37474f"></rect><rect x="431.07" y="260.56" width="26.05" height="9.21" style="fill:#263238"></rect></g><g id="freepik--Books--inject-68"><rect x="306.62" y="240.61" width="63.49" height="12.53" style="fill:#90CAF9"></rect><rect x="310.57" y="240.61" width="6.2" height="12.53" style="fill:#37474f"></rect><rect x="319.07" y="240.61" width="2.59" height="12.53" style="fill:#37474f"></rect><rect x="356.43" y="240.61" width="6.2" height="12.53" style="fill:#37474f"></rect><rect x="302.93" y="231.26" width="44.04" height="9.35" style="fill:#455a64"></rect><rect x="346.97" y="231.26" width="19" height="9.35" style="fill:#455a64"></rect><rect x="302.93" y="232.23" width="44.04" height="7.41" style="fill:#fff"></rect><path d="M305.78,233.76c3.43-.1,6.86-.16,10.29-.2l10.3-.05,10.3.05c3.43,0,6.86.1,10.3.2q-5.16.13-10.3.19l-10.3.06-10.3-.06Q310.92,233.89,305.78,233.76Z" style="fill:#dbdbdb"></path><path d="M305.78,235.21c3.43-.09,6.86-.16,10.29-.19l10.3-.06,10.3.06c3.43,0,6.86.1,10.3.19-3.44.09-6.87.16-10.3.19l-10.3.06-10.3-.06C312.64,235.37,309.21,235.3,305.78,235.21Z" style="fill:#dbdbdb"></path><path d="M305.78,236.66c3.43-.09,6.86-.16,10.29-.19l10.3-.06,10.3.06c3.43,0,6.86.1,10.3.19-3.44.09-6.87.16-10.3.19l-10.3.06-10.3-.06C312.64,236.82,309.21,236.75,305.78,236.66Z" style="fill:#dbdbdb"></path><path d="M305.78,238.12c3.43-.1,6.86-.16,10.29-.2l10.3,0,10.3,0c3.43,0,6.86.1,10.3.2q-5.16.13-10.3.19l-10.3.05-10.3-.05Q310.92,238.25,305.78,238.12Z" style="fill:#dbdbdb"></path><rect x="312.8" y="221.02" width="44.07" height="10.24" style="fill:#37474f"></rect><rect x="348.1" y="221.02" width="4.11" height="10.24" style="fill:#90CAF9"></rect><rect x="343.81" y="221.02" width="1.59" height="10.24" style="fill:#90CAF9"></rect></g><g id="freepik--Column--inject-68"><rect x="90.52" y="386.5" width="59.32" height="5.45" style="fill:#90CAF9"></rect><rect x="90.52" y="386.5" width="59.32" height="5.45" style="opacity:0.1"></rect><rect x="94.99" y="228.09" width="50.37" height="158.41" style="fill:#90CAF9"></rect><rect x="94.99" y="228.09" width="50.37" height="158.42" style="fill:#90CAF9"></rect><path d="M100.21,382.1h0a.83.83,0,0,1-.83-.83V237.47a.83.83,0,0,1,.83-.83h0a.83.83,0,0,1,.83.83v143.8A.83.83,0,0,1,100.21,382.1Z" style="opacity:0.1"></path><path d="M104.65,382.1h0a.83.83,0,0,1-.83-.83V237.47a.83.83,0,0,1,.83-.83h0a.83.83,0,0,1,.83.83v143.8A.83.83,0,0,1,104.65,382.1Z" style="opacity:0.1"></path><path d="M109.09,382.1h0a.84.84,0,0,1-.84-.83V237.47a.84.84,0,0,1,.84-.83h0a.83.83,0,0,1,.83.83v143.8A.83.83,0,0,1,109.09,382.1Z" style="opacity:0.1"></path><path d="M113.52,382.1h0a.83.83,0,0,1-.83-.83V237.47a.83.83,0,0,1,.83-.83h0a.84.84,0,0,1,.84.83v143.8A.84.84,0,0,1,113.52,382.1Z" style="opacity:0.1"></path><path d="M118,382.1h0a.83.83,0,0,1-.83-.83V237.47a.83.83,0,0,1,.83-.83h0a.83.83,0,0,1,.83.83v143.8A.83.83,0,0,1,118,382.1Z" style="opacity:0.1"></path><path d="M122.4,382.1h0a.84.84,0,0,1-.84-.83V237.47a.84.84,0,0,1,.84-.83h0a.83.83,0,0,1,.83.83v143.8A.83.83,0,0,1,122.4,382.1Z" style="opacity:0.1"></path><path d="M126.83,382.1h0a.83.83,0,0,1-.83-.83V237.47a.83.83,0,0,1,.83-.83h0a.84.84,0,0,1,.84.83v143.8A.84.84,0,0,1,126.83,382.1Z" style="opacity:0.1"></path><path d="M131.27,382.1h0a.83.83,0,0,1-.83-.83V237.47a.83.83,0,0,1,.83-.83h0a.83.83,0,0,1,.83.83v143.8A.83.83,0,0,1,131.27,382.1Z" style="opacity:0.1"></path><path d="M135.71,382.1h0a.84.84,0,0,1-.84-.83V237.47a.84.84,0,0,1,.84-.83h0a.83.83,0,0,1,.83.83v143.8A.83.83,0,0,1,135.71,382.1Z" style="opacity:0.1"></path><path d="M140.14,382.1h0a.83.83,0,0,1-.83-.83V237.47a.83.83,0,0,1,.83-.83h0a.84.84,0,0,1,.84.83v143.8A.84.84,0,0,1,140.14,382.1Z" style="opacity:0.1"></path><polygon points="145.36 228.09 145.36 234.65 94.99 233.16 94.99 228.09 145.36 228.09" style="opacity:0.1"></polygon><rect x="86.94" y="391.96" width="66.48" height="9.84" style="fill:#90CAF9"></rect><path d="M158.94,228.78c0,5.28-3.78,9.87-10.21,9.87-9.52,0-10-9.82-10-9.82h-37s-.52,9.82-10,9.82c-6.44,0-10.21-4.59-10.21-9.87,0-4.66,3.31-11.26,13-11.26H146C155.64,217.52,158.94,224.12,158.94,228.78Z" style="fill:#90CAF9"></path><path d="M101.66,228.83A6.45,6.45,0,0,0,93.94,223c-4.3.85-6.77,5.76-4.52,8.85,1.71,2.36,4.87,1.54,5.41-.55.75-2.88-2.14-4.32-1.09-6s3.82-1.46,5.49-.29A7.48,7.48,0,0,1,101.66,228.83Z" style="opacity:0.1"></path><path d="M138.69,228.83a6.46,6.46,0,0,1,7.73-5.83c4.3.85,6.76,5.76,4.52,8.85-1.71,2.36-4.87,1.54-5.41-.55-.75-2.88,2.13-4.32,1.09-6s-3.82-1.46-5.49-.29A7.53,7.53,0,0,0,138.69,228.83Z" style="opacity:0.1"></path></g><g id="freepik--Floor--inject-68"><polygon points="33.4 401.79 87.55 401.55 141.7 401.46 250 401.3 358.3 401.46 412.45 401.55 466.6 401.79 412.45 402.04 358.3 402.13 250 402.29 141.7 402.13 87.55 402.04 33.4 401.79" style="fill:#263238"></polygon></g><g id="freepik--Balance--inject-68"><path d="M97.06,168.41c0,4.42-5.26,8.5-11.38,8.5s-11.39-4-11.39-8.5Z" style="fill:#455a64"></path><path d="M94.89,167.37c-1.68-3.94-3.29-7.91-4.89-11.88-.81-2-1.57-4-2.36-6l-2.34-6H86l-2.35,6c-.78,2-1.54,4-2.36,6-1.6,4-3.2,7.94-4.89,11.88,1.4-4.05,2.87-8.07,4.35-12.09.73-2,1.51-4,2.27-6l2.28-6,.35-.92.35.92,2.28,6c.75,2,1.53,4,2.26,6C92,159.3,93.5,163.32,94.89,167.37Z" style="fill:#263238"></path><rect x="73.64" y="166.87" width="24.06" height="1.54" style="fill:#90CAF9"></rect><path d="M166.07,182.32c0,4.42-5.25,8.49-11.38,8.49s-11.39-3.95-11.39-8.49Z" style="fill:#455a64"></path><path d="M163.91,181.28c-1.69-3.94-3.3-7.91-4.89-11.89-.82-2-1.58-4-2.37-6l-2.34-6h.7l-2.34,6c-.79,2-1.55,4-2.36,6-1.6,4-3.21,8-4.9,11.89,1.4-4.05,2.87-8.08,4.36-12.09.73-2,1.51-4,2.26-6l2.28-6,.35-.93.35.93,2.28,6c.75,2,1.53,4,2.26,6C161,173.2,162.51,177.23,163.91,181.28Z" style="fill:#263238"></path><rect x="142.66" y="180.78" width="24.06" height="1.54" style="fill:#90CAF9"></rect><path d="M154.23,157.74c-1.91-.23-3-1.47-5-2.59-3-1.63-14.81-4.38-20-5-2.07-.26-6.68.71-9.73.1s-6.93-3.28-8.94-3.84c-5.06-1.43-17-3.43-20.42-3.09-2.35.23-3.8,1-5.64.44-3-.84-2.48-5.2,1.37-4.43s4.81,1.75,9.9,2.68c2.2.4,15.54,1.5,19.24,2.24a21.54,21.54,0,0,1,5.37,1.64,21.42,21.42,0,0,1,5.57.56c3.71.74,16.43,4.87,18.63,5.34,5,1.1,6.32.57,10.17,1.35S157.31,158.12,154.23,157.74Z" style="fill:#455a64"></path><rect x="95.57" y="209.18" width="48.58" height="8.35" style="fill:#455a64"></rect><rect x="98.09" y="207.12" width="43.55" height="2.05" style="fill:#37474f"></rect><path d="M122.86,207.13h-6a55.5,55.5,0,0,1-1-13.72c.29-8.5,2.81-45.16,2.81-45.16H121s2.52,36.66,2.81,45.16A55.87,55.87,0,0,1,122.86,207.13Z" style="fill:#455a64"></path><path d="M121.74,142.68c0,3.09-.78,3.93-.78,3.93h-2.2s-.77-.84-.77-3.93,1.45-12.82,1.45-12.82h.83S121.74,139.6,121.74,142.68Z" style="fill:#455a64"></path><path d="M122.74,147.85a2.88,2.88,0,1,1-2.88-2.88A2.88,2.88,0,0,1,122.74,147.85Z" style="fill:#37474f"></path><circle cx="119.86" cy="129.86" r="2.3" style="fill:#37474f"></circle></g><g id="freepik--Plant--inject-68"><path d="M419.53,185.63c-11.14,10.91-13,27.79-10.67,42.58.07.33.58.24.58-.07,0-3.37-.1-6.71-.09-10,.06-.15.11-.3.18-.45a22.4,22.4,0,0,0,7.24-7.78c1.86-3.66,2.59-7.79,4-11.61.14-.37-.25-.26-.51-.07-6.78,5-8.94,10.38-10.89,17.57a60,60,0,0,1,1.18-11.2c1.47-6.82,4.37-13.58,9.27-18.65A.21.21,0,0,0,419.53,185.63Z" style="fill:#263238"></path><path d="M421.63,186.9c1.91.06,3.12,3.13,4.61,4a1.44,1.44,0,0,0,2.12-.33c1.48-2.07-.55-4.62-2.46-6,1.36.56,2.5,1.55,4,1.83a1.39,1.39,0,0,0,1.79-1.08c.65-2.82-2.88-4.07-5.31-4.13,1.18-.82,4.55-3,2.76-4.13s-5.77,2.08-7.06,3.13c-1.9,1.53-4.16,3.83-4.24,6.24C417.7,189.22,420.15,187.49,421.63,186.9Z" style="fill:#90CAF9"></path><path d="M421.63,186.9c1.91.06,3.12,3.13,4.61,4a1.44,1.44,0,0,0,2.12-.33c1.48-2.07-.55-4.62-2.46-6,1.36.56,2.5,1.55,4,1.83a1.39,1.39,0,0,0,1.79-1.08c.65-2.82-2.88-4.07-5.31-4.13,1.18-.82,4.55-3,2.76-4.13s-5.77,2.08-7.06,3.13c-1.9,1.53-4.16,3.83-4.24,6.24C417.7,189.22,420.15,187.49,421.63,186.9Z" style="opacity:0.1"></path><path d="M421.07,187.37c2.45-1.11,7.16.49,7.56-.44.82-1.89-2.95-3.18-5-3.43,1.87-.51,5.46-1.32,5.35-3.12-.14-2.2-5.5-.31-8.22,1.77-3.42,2.63-3.39,5.16-2.83,5.66C418.73,188.51,420.67,187.56,421.07,187.37Z" style="fill:#90CAF9"></path><path d="M394.15,184.55c11.55,10.48,14.06,27.27,12.28,42.14-.05.34-.57.27-.58-.05-.13-3.36-.16-6.7-.29-10-.07-.15-.13-.29-.19-.44a22.41,22.41,0,0,1-7.53-7.5c-2-3.59-2.89-7.69-4.46-11.45-.15-.37.25-.27.51-.09,7,4.73,9.33,10,11.55,17.14a59.86,59.86,0,0,0-1.61-11.14c-1.72-6.77-4.87-13.41-10-18.29C393.68,184.67,394,184.36,394.15,184.55Z" style="fill:#263238"></path><path d="M392.1,185.9c-1.91.13-3,3.24-4.45,4.19a1.43,1.43,0,0,1-2.13-.25c-1.56-2,.37-4.63,2.23-6.13-1.34.61-2.44,1.64-3.9,2a1.38,1.38,0,0,1-1.83-1c-.76-2.79,2.72-4.17,5.14-4.33-1.2-.77-4.65-2.86-2.91-4s5.85,1.86,7.18,2.86c1.95,1.46,4.29,3.67,4.47,6.07C396.12,188.06,393.6,186.43,392.1,185.9Z" style="fill:#90CAF9"></path><path d="M392.1,185.9c-1.91.13-3,3.24-4.45,4.19a1.43,1.43,0,0,1-2.13-.25c-1.56-2,.37-4.63,2.23-6.13-1.34.61-2.44,1.64-3.9,2a1.38,1.38,0,0,1-1.83-1c-.76-2.79,2.72-4.17,5.14-4.33-1.2-.77-4.65-2.86-2.91-4s5.85,1.86,7.18,2.86c1.95,1.46,4.29,3.67,4.47,6.07C396.12,188.06,393.6,186.43,392.1,185.9Z" style="opacity:0.1"></path><path d="M392.68,186.35c-2.5-1-7.14.76-7.58-.15-.88-1.86,2.83-3.3,4.85-3.62-1.89-.44-5.5-1.11-5.46-2.92.05-2.2,5.48-.51,8.28,1.46,3.51,2.49,3.59,5,3,5.55C395.06,187.39,393.09,186.52,392.68,186.35Z" style="fill:#90CAF9"></path><path d="M406,212.22a114.14,114.14,0,0,0,3.59,16.58.41.41,0,0,0,.81-.17c-.76-5.1-2.14-10.12-2.9-15.22a76.47,76.47,0,0,1-.89-15.63c.49-8.61,2.82-17.76,8.44-24.49.12-.16-.14-.39-.27-.24-11.24,13.11-9.45,29.18-9.44,30.62-1.59-5.43-3.23-11.65-9.25-17.18-.26-.23-.47-.12-.42.28,1.07,10.07,3.87,15.32,9.71,20.7C405.5,209.07,405.71,210.66,406,212.22Z" style="fill:#263238"></path><path d="M415.11,174.79c2-.9,4.81,1.68,6.81,1.86a1.67,1.67,0,0,0,2-1.42c.5-2.89-2.9-4.51-5.6-5,1.7-.1,3.38.35,5-.1a1.6,1.6,0,0,0,1.32-2c-.75-3.25-5.05-2.77-7.59-1.61.81-1.44,3.18-5.44.78-5.67s-4.94,5.06-5.75,6.79c-1.19,2.55-2.38,6.08-1.26,8.61C412.2,179.17,413.87,176.15,415.11,174.79Z" style="fill:#90CAF9"></path><path d="M415.11,174.79c2-.9,4.81,1.68,6.81,1.86a1.67,1.67,0,0,0,2-1.42c.5-2.89-2.9-4.51-5.6-5,1.7-.1,3.38.35,5-.1a1.6,1.6,0,0,0,1.32-2c-.75-3.25-5.05-2.77-7.59-1.61.81-1.44,3.18-5.44.78-5.67s-4.94,5.06-5.75,6.79c-1.19,2.55-2.38,6.08-1.26,8.61C412.2,179.17,413.87,176.15,415.11,174.79Z" style="opacity:0.1"></path><path d="M414.77,175.56c2-2.39,7.68-3.09,7.63-4.26-.11-2.37-4.67-1.82-6.9-1.05,1.68-1.47,5-4.11,4-5.93-1.25-2.22-5.86,2.45-7.63,6-2.22,4.45-.93,7.06-.09,7.3C412.91,177.92,414.44,176,414.77,175.56Z" style="fill:#90CAF9"></path><path d="M398.57,215.25l-5,37.89h30.17c-.62-3.36-6.24-37.93-6.24-37.93Z" style="fill:#90CAF9"></path></g><g id="freepik--Character--inject-68"><path d="M181.82,444.73c2.52.81,74.5-.12,77.21-1.9,1.05-.66,1.52-11.15,1.73-23.85,0-.13-.08-46.91-.08-46.91l-46.93.48.6,46.9S187,432.13,184.18,434.4,179.29,443.92,181.82,444.73Z" style="fill:#d3766a"></path><path d="M203.44,424.38c.19-.06.29-.11.3-.17Z" style="fill:#90CAF9"></path><path d="M260.62,425.6c-.26,9.55-.73,16.69-1.59,17.23-2.71,1.78-74.69,2.71-77.21,1.89s-.4-8.06,2.36-10.32c1.33-1.09,8.29-4.55,15.19-7.87C189.12,432.36,181.41,440.41,260.62,425.6Z" style="fill:#263238"></path><path d="M260.62,425.6c-.26,9.55-.73,16.69-1.59,17.23-1.07.7-13.06,1.28-27.28,1.66l17.34-16.79Q254.52,426.74,260.62,425.6Z" style="fill:#37474f"></path><path d="M275.45,164.74s-12.16,122.53-13.92,131.81c-.41,2.12.69,12.7.52,27.48-.37,32.24-1.22,90.39-1.22,90.39H214.16s-1.49-100.75.76-119.29,16.6-130.39,16.6-130.39Z" style="fill:#d3766a"></path><path d="M262.06,324c-.09,7.61-.21,16.66-.33,26l-30.2-185.33h43.92s-12.16,122.53-13.92,131.81C261.12,298.66,262.22,309.25,262.06,324Z" style="fill:#263238"></path><path d="M240.73,449c2.58.63,74.31-5.4,76.89-7.36,1-.73.73-11.24,0-23.92,0-.13-5-46.65-5-46.65l-46.13,3.74,4.85,46.67s-26.43,14.59-29,17.05S238.16,448.39,240.73,449Z" style="fill:#d3766a"></path><path d="M317.62,441.65c-2.58,2-74.31,8-76.89,7.36s-1-8,1.63-10.46c1.5-1.41,10.87-6.84,18.57-11.2-10.09,6.63-29.31,21,57-5.15C318.4,432.8,318.5,441,317.62,441.65Z" style="fill:#263238"></path><path d="M270.81,416.27l46.32-3.49s-12-108-12.29-114.84c-.38-10.16-4.25-53.11-8.35-87.08,0,0,4.48-24.49-6.76-46.16H231.48s3.9,26.43,10.59,43.19a77.92,77.92,0,0,1,13,5.91s4.8,76.73,5,86.17C260.46,318.65,270.81,416.27,270.81,416.27Z" style="fill:#d3766a"></path><path d="M231.48,164.7s-18.4,125.2-19.12,136.84-.33,14.79-.33,14.79,25.72,8,39.17,8.15c29.93.28,58.38-11,58.38-11s-12.15-102.34-12.24-102.59a70.83,70.83,0,0,0-6.45-46.29Z" style="fill:#37474f"></path><path d="M234.13,164.7l-8.82,77.53-4.65,40.47-1.13,10.12c-.35,3.38-.78,6.75-1,10.13-.22,5.08-.2,10.17-.09,15.26h0c-.13-5.08-.17-10.17.05-15.25.21-3.39.62-6.76,1-10.14l1.1-10.13,4.52-40.48,9.06-77.5Z" style="fill:#455a64"></path><path d="M306.26,314.72h0c-1.32-7.9-2.31-15.86-3.38-23.81q-1.75-13.4-3.38-26.81-3.35-26.82-6.33-53.67v0a56.54,56.54,0,0,0,1.21-12,88.93,88.93,0,0,0-1.11-12.07,117.06,117.06,0,0,0-2.67-11.84c-.94-3.31-2-6.59-3.21-9.82h0c1.24,3.22,2.3,6.5,3.24,9.81a117.19,117.19,0,0,1,2.7,11.84,89,89,0,0,1,1.16,12.08,56.37,56.37,0,0,1-1.18,12.08l6.35,53.64q1.6,13.43,3.3,26.82C304,298.85,305,306.81,306.26,314.72Z" style="fill:#455a64"></path><path d="M252.25,164.68l-3.16,80-1.78,42-.45,10.51c-.14,3.5-.35,7-.33,10.51,0,5.48.11,11,.27,16.45h0c-.17-5.48-.3-11-.31-16.44,0-3.51.17-7,.3-10.52l.41-10.51,1.66-42,3.4-80Z" style="fill:#455a64"></path><path d="M298.68,317.14h0l-5.14-50.69q-2.86-28-5.57-56v0a81.62,81.62,0,0,0-.1-12c-.27-4-.76-8-1.32-12s-1.24-7.92-2-11.87c-.63-3.32-1.31-6.64-2.06-9.93h0c.76,3.29,1.44,6.61,2.08,9.93.76,3.94,1.45,7.89,2,11.86s1.08,8,1.37,12a81.87,81.87,0,0,1,.13,12q2.85,28,5.6,56Z" style="fill:#455a64"></path><path d="M238.81,164.69l-6.15,79.53-3.23,41.25-.76,10.32c-.13,1.72-.24,3.44-.34,5.16l-.12,5.17-.34,14.56h0l.3-14.55.11-5.17c.1-1.72.2-3.45.32-5.17l.74-10.32,3.1-41.26,6.39-79.51Z" style="fill:#455a64"></path><path d="M245.52,164.68l-4.84,79.56L238,285.5l-.66,10.32c-.18,3.44-.51,6.87-.55,10.32-.13,5.51-.12,11,0,16.53h0c-.11-5.51-.14-11,0-16.52,0-3.45.34-6.89.52-10.33l.63-10.31,2.51-41.27,5.08-79.55Z" style="fill:#455a64"></path><path d="M257.68,287.11c0,6.95-.17,13.9-.07,20.85q.09,8.21.27,16.39h0q-.19-8.19-.31-16.4c-.13-6.95,0-13.9,0-20.85l.23-41.69.68-80.75h0L258,245.42Z" style="fill:#455a64"></path><path d="M290.23,319.44h0L285.85,268q-2.42-28.26-4.68-56.54h0a56.44,56.44,0,0,0-.22-6.09q-.22-3-.51-6.09-.57-6.07-1.23-12.16-1.2-11.2-2.57-22.42h0q1.38,11.19,2.63,22.42c.45,4,.88,8.1,1.27,12.15.2,2,.37,4.06.53,6.09a56.53,56.53,0,0,1,.24,6.11q2.4,28.26,4.71,56.52Z" style="fill:#455a64"></path><path d="M279.74,321.73h0l-4-78.07-1-20.42-.5-10.2-.62-10.21-2.34-38.18h0l2.45,38.18.66,10.2.52,10.21L276,243.65Z" style="fill:#455a64"></path><polygon points="268.69 323.45 268.68 323.45 266.65 244.28 264.85 164.66 266.9 244.28 268.69 323.45" style="fill:#455a64"></polygon><path d="M298.08,187.55l-69-6.72c1.44-9.86,2.36-16.13,2.36-16.13l59.41-.07A70.44,70.44,0,0,1,298.08,187.55Z" style="fill:#263238"></path><path d="M241.66,59.43c-6.52,6.88-8.12,17.93-8.12,17.93s-6.12,11.26-4.15,17.2a11,11,0,0,0,7.19,7.21l-.73-3.31s2.28,4.21,9.54,5.73,16.73-1,21.62-3.65a19.07,19.07,0,0,0,7.1-6.62l-1.72,4.88a14.33,14.33,0,0,0,10.93-8c3.94-7.57-8.31-17.92-9.39-20.2s-2.86-19-20.44-15.62C253.49,55,246.15,54.7,241.66,59.43Z" style="fill:#c7c7c7"></path><path d="M234,101.41a11.33,11.33,0,0,1-4.81-4.76,10.29,10.29,0,0,1-1.31-6.58,23,23,0,0,1,3.1-7.55c1.37-2.46,2.93-4.83,4.25-7.31.07-.14-.13-.24-.23-.13A63.23,63.23,0,0,0,230.8,81a29.47,29.47,0,0,0-3.3,6,11.1,11.1,0,0,0-.63,6.21,10.7,10.7,0,0,0,2.34,4.58,23,23,0,0,0,4.71,3.75C234,101.63,234.13,101.46,234,101.41Z" style="fill:#c7c7c7"></path><path d="M284.59,83.08c-2.3-6.12-8-9.88-11.52-15.17-1.91-2.87-3.42-6.06-5.88-8.52-.07-.07-.18,0-.12.11,2,2.23,3.24,4.94,4.73,7.51a45,45,0,0,0,5.46,7.14c3.63,4.1,8,8.94,7.34,14.84-.3,2.72-1.81,5.77-4.57,6.7-.1,0,0,.21.07.16a8.7,8.7,0,0,0,4.71-5A11.09,11.09,0,0,0,284.59,83.08Z" style="fill:#c7c7c7"></path><path d="M284.89,84.74a11.32,11.32,0,0,0-1.74-6.66A16.13,16.13,0,0,0,278,73.52c-2.25-1.41-4.62-2.74-6.09-5-.07-.09-.2,0-.14.11,2.34,3.78,6.62,5.45,9.58,8.6,3.39,3.6,3.55,9,1.42,13.28A18.7,18.7,0,0,1,277,97.07s0,.09.05.06C281.16,94.26,284.71,90,284.89,84.74Z" style="fill:#c7c7c7"></path><path d="M253,109.84c-1.69,7.28-22,73.35-26.19,74.34-12.25,2.92-27,5.14-26.89-4.94.15-15.82,28-54.72,42.6-70.93C251.32,98.61,254.69,102.65,253,109.84Z" style="fill:#37474f"></path><path d="M253,109.84c-1.69,7.28-22,73.35-26.19,74.34-12.25,2.93-27,5.14-26.89-4.94,0-.41,0-.84.07-1.29l46.43-73.36C252.3,100,254.42,103.85,253,109.84Z" style="fill:#263238"></path><path d="M229.82,173.1s44.56,1.93,63.42-.3c0,0-12.91-54.45-26.64-69.13-6.25-6.68-12.37-5.66-17.54-1.36-1.3,1.07-17.31,21.4-18.67,28.48-1.2,6.27,3.89,13.22,3.89,13.22Z" style="fill:#ebebeb"></path><polygon points="253.69 116.06 251.33 111.11 247.32 114.9 248.02 118.55 251.89 118.97 253.69 116.06" style="fill:#90CAF9"></polygon><polygon points="251.89 118.97 250.92 155.99 242.59 172.36 237.14 156 248.02 118.55 251.89 118.97" style="fill:#90CAF9"></polygon><path d="M249.56,101.66s-6.85,18.45-7.27,23.19S244,147.38,244,147.38s10.44-18.79,13-24.86c3.93-9.44,4.8-22.57,4.8-22.57s3.91,1.78,9.05,8.82c6.88,9.43,19.29,44.84,23.36,64.57l-46.93,6.74-4.66-7.72-3.2,7.72-11.13-6.21,6-29.86s-5.82-6.34-3.38-14.91C233.56,119.78,249.56,101.66,249.56,101.66Z" style="fill:#37474f"></path><path d="M244,147.34,237.14,126l4.7-5.65-4.08-.8s10.68-16.57,11.79-17.89c-.26.7-6.85,18.52-7.26,23.17S243.88,146.38,244,147.34Z" style="fill:#263238"></path><path d="M258.88,121.78l2,7.15L244,147.37c.31-.57,10.47-18.87,13-24.85,3.93-9.43,4.8-22.57,4.8-22.57l1.83,20.5Z" style="fill:#263238"></path><path d="M233.9,122.24c1-1.45,1.95-2.9,3-4.3.17-.5.37-1,.56-1.47a16.08,16.08,0,0,1,1-2.07,16.49,16.49,0,0,1-.78,2.17l-.26.6c1-1.39,2.08-2.76,3.17-4.09-2,3.21-4.19,6.3-6.21,9.48a44.53,44.53,0,0,0-2.81,4.87,14.31,14.31,0,0,0-.69,1.67,13.64,13.64,0,0,0,.41,8.83,29,29,0,0,0,1.7,4.44c.06.1-.11.19-.16.09a42.26,42.26,0,0,1-2-4.49,15.2,15.2,0,0,1-1-4.67C229.57,128.76,231.87,125.74,233.9,122.24Z" style="fill:#263238"></path><path d="M244,147.38c0,2.09,0,4.17-.06,6.26s-.18,4.17-.27,6.25-.26,4.16-.44,6.24-.37,4.16-.64,6.23c0-2.09,0-4.18.06-6.26s.18-4.17.27-6.25.26-4.16.44-6.24S243.73,149.45,244,147.38Z" style="fill:#263238"></path><path d="M248.17,152.79a1.44,1.44,0,0,1-1.23,1.43,1.53,1.53,0,0,1-1.11-.32,1.48,1.48,0,0,1-.5-1.11,1.46,1.46,0,0,1,.5-1.1,1.48,1.48,0,0,1,1.11-.32A1.43,1.43,0,0,1,248.17,152.79Zm0,0a1.06,1.06,0,0,0-.4-.83,1,1,0,0,0-.83-.21,1.06,1.06,0,0,0,0,2.09,1,1,0,0,0,.83-.21A1.06,1.06,0,0,0,248.17,152.79Z" style="fill:#263238"></path><path d="M247.79,160.52a1.43,1.43,0,1,1-1.24-1.42A1.42,1.42,0,0,1,247.79,160.52Zm0,0a1.16,1.16,0,0,0-.4-.84,1.14,1.14,0,0,0-.84-.21,1.07,1.07,0,0,0,0,2.1,1.09,1.09,0,0,0,.84-.21A1.16,1.16,0,0,0,247.79,160.52Z" style="fill:#263238"></path><path d="M247.4,168.25a1.43,1.43,0,1,1-2.85,0,1.47,1.47,0,0,1,.51-1.11,1.43,1.43,0,0,1,2.34,1.11Zm0,0a1.13,1.13,0,0,0-.4-.84,1.09,1.09,0,0,0-.84-.21,1,1,0,0,0-.86,1.05,1.06,1.06,0,0,0,.86,1.05,1.1,1.1,0,0,0,.84-.22A1.12,1.12,0,0,0,247.4,168.25Z" style="fill:#263238"></path><polygon points="263.18 154.45 279.72 151.45 280.24 153.59 263.57 156.61 263.18 154.45" style="fill:#263238"></polygon><path d="M263.9,111.73c4.26,5.84,27,29.14,27.62,31.44.36,1.28-4.58,5.92-4.5,6.85.34,3.77,11.89,33.1,15.15,30.55,4.29-3.35,19.42-30.4,16.85-40.81s-46.72-36.24-53.45-38.41S259.71,106,263.9,111.73Z" style="fill:#37474f"></path><path d="M281.39,131.3a36.72,36.72,0,0,1-8.28-8.77,32.11,32.11,0,0,1,4.5,4A33.37,33.37,0,0,1,281.39,131.3Z" style="fill:#263238"></path><path d="M273.93,125.69a8.15,8.15,0,0,1,2,.65,8,8,0,0,1,1.8,1.1,7.75,7.75,0,0,1-2-.65A8,8,0,0,1,273.93,125.69Z" style="fill:#263238"></path><path d="M289.07,188.43c-3.08-2.08,1.14-4.51,1.14-4.51s-6.91,2-9.25-1.33,2.94-6,3.31-6.22c-.36.1-6.76,1.81-8.77-1.82s3.61-5.65,4-5.77c-.37,0-5.36-.22-6.25-3.32-1.54-5.34,12.77-6,15.87-9.22,0,0-1.39-7-1.5-7.23,0,0,1.57,2.74,4.07,3.45,3.1.88,5.88,1.38,7.14,2.87a4.06,4.06,0,0,1,.46,4.83s3.91-.45,5.58,2.36c.85,1.44-.7,4.09-.7,4.09s3.15-.23,4.48,2.36c1.06,2.06-.66,4.4-.66,4.4s3.13,1.18,3.53,3.64C312.32,182,295.66,192.88,289.07,188.43Z" style="fill:#d3766a"></path><path d="M307.75,173.78c.06,0,.12,0,.08.07A34.51,34.51,0,0,1,290,184.07c-.22.05-.38-.29-.15-.38A71,71,0,0,0,307.75,173.78Z" style="fill:#263238"></path><path d="M304.26,166.59c.06-.05.14,0,.08.11-4.77,5.05-12.3,9.35-20.15,9.94-.27,0-.53-.23-.22-.28C289.16,175.58,299.19,170.56,304.26,166.59Z" style="fill:#263238"></path><path d="M278.92,168.63c7.51-.85,14-4,20.17-8.24.08-.06.15.06.09.12-2.46,2.89-6.68,5.17-10.12,6.66A19.8,19.8,0,0,1,279,168.9C278.81,168.88,278.76,168.65,278.92,168.63Z" style="fill:#263238"></path><path d="M308.17,173.35c1.11-1.39,1.86-3.14,1.11-4.89a3.59,3.59,0,0,0-1.76-1.8,6.32,6.32,0,0,0-2.93-.27,4.69,4.69,0,0,0,.09-5.31,3.56,3.56,0,0,0-2.28-1.21,11.75,11.75,0,0,0-3.06.12,4.14,4.14,0,0,0,.89-3.62,4.48,4.48,0,0,0-2.76-3,21.12,21.12,0,0,0-4.85-1.13,10.65,10.65,0,0,1-2.47-.68,4.76,4.76,0,0,1-2.06-1.84c-.1-.14-.08,0,0,.13a6.22,6.22,0,0,0,1.21,1.45,7.77,7.77,0,0,0,1.68,1.08,31.34,31.34,0,0,0,4.61,1.36A6.43,6.43,0,0,1,299,156a3.86,3.86,0,0,1,.13,4,.1.1,0,0,0,.11.15,10.55,10.55,0,0,1,2.72.31,3.74,3.74,0,0,1,1.91,1.19,4.91,4.91,0,0,1,.24,4.92,8.6,8.6,0,0,1,2.87.74,3.69,3.69,0,0,1,1.35,1.5,4.24,4.24,0,0,1-.45,4.45.13.13,0,0,0,0,.06h0a.08.08,0,0,0,0,0s0,0,0,.05h0s1,.41,1.05.42,0,0,0-.06A6.44,6.44,0,0,0,308.17,173.35Z" style="fill:#263238"></path><polygon points="255.58 185.76 241.76 131.78 200.99 142.95 214.81 196.94 255.58 185.76" style="fill:#90CAF9"></polygon><polygon points="202.43 161.27 198.17 144.63 200.99 142.95 205.61 160.97 202.43 161.27" style="fill:#90CAF9"></polygon><g style="opacity:0.2"><polygon points="255.58 185.76 241.76 131.78 200.99 142.95 214.81 196.94 255.58 185.76"></polygon><polygon points="202.43 161.27 198.17 144.63 200.99 142.95 205.61 160.97 202.43 161.27"></polygon></g><polygon points="255.56 185.67 241.71 131.56 201.8 139.93 215.66 194.04 255.56 185.67" style="fill:#90CAF9"></polygon><polygon points="255.56 185.67 241.71 131.56 201.8 139.93 215.66 194.04 255.56 185.67" style="opacity:0.1"></polygon><path d="M245.56,145.65a4.14,4.14,0,0,1,.84,4.66,6.17,6.17,0,0,1,3.6,2.15c1.51,2-1,5.3-1,5.3a7.56,7.56,0,0,1,3.44,2.86c1.25,2.1-.83,5.75-.83,5.75A6.66,6.66,0,0,1,253,170.8c-.36,4.26-6.17,7.25-9.84,9.18s-15.9,4-18.19,4.62l-12.63-23.46s14-13.37,18.63-15C234.9,144.7,243.18,143.45,245.56,145.65Z" style="fill:#d3766a"></path><path d="M214,159.59c-4.19,3.29-16.72,16-13.66,22.29s13.25,5.55,27.37,2.12Z" style="fill:#d3766a"></path><path d="M246,150c-4.52.49-8.64,2.3-12.86,3.86-.09,0,0,.18.06.14,4.17-1.6,8.61-2.35,12.85-3.79A.11.11,0,0,0,246,150Z" style="fill:#263238"></path><path d="M248.74,157.49a11.78,11.78,0,0,0-2.92,1q-1.51.65-3,1.35-3,1.39-5.9,2.94c-.08,0,0,.19.06.15q3-1.39,6-2.66c1-.42,2-.84,3-1.24a14.43,14.43,0,0,0,2.83-1.28A.16.16,0,0,0,248.74,157.49Z" style="fill:#263238"></path><path d="M251.5,166.41a8.28,8.28,0,0,0-2.58,1.06l-2.7,1.32c-1.81.86-3.61,1.73-5.44,2.53-.09,0,0,.19.05.15,1.87-.81,3.75-1.59,5.61-2.41l2.73-1.23a7.84,7.84,0,0,0,2.38-1.33S251.54,166.41,251.5,166.41Z" style="fill:#263238"></path><path d="M214,159.59c-4.19,3.29-16.72,16-13.66,22.29s13,7.31,26.52,5.1Z" style="fill:#37474f"></path><path d="M213.49,159.81a38.74,38.74,0,0,0-4.18,3.65l-1,1-.42.28c-.6.41-1.19.83-1.75,1.29A32.06,32.06,0,0,0,203.1,169c-.07.08.05.18.12.11a27.15,27.15,0,0,1,3.25-2.71l.46-.32c-.55.63-1.09,1.26-1.58,1.92a52.42,52.42,0,0,0-3.65,5.46.08.08,0,0,0,.13.08c2-3.36,11-12.37,11.93-13.45S214.23,159.19,213.49,159.81Z" style="fill:#263238"></path><path d="M261.33,103.59c-.33,1.16-5.15,7.2-10.5,6.69-1.74-.16-2.39-8.41-2.39-8.41l-.12-.71-1.74-10,12-6.89,1.72-.9s.3,2.76.63,6.2c0,.16,0,.32,0,.49s.05.38.07.56c.05.52.11,1,.15,1.57s.07.78.1,1.2.05.83.08,1.25A62.87,62.87,0,0,1,261.33,103.59Z" style="fill:#d3766a"></path><path d="M260.9,89.58a20.36,20.36,0,0,1-12.58,11.58l-1.74-10,12-6.89,1.72-.9S260.57,86.14,260.9,89.58Z" style="fill:#263238"></path><path d="M235.6,71.65c-4.38,17.25,5.46,21.81,9.17,22.75,3.38.86,15,3.33,21.12-13.37s-.5-24.18-8.12-26.54S240,54.41,235.6,71.65Z" style="fill:#d3766a"></path><path d="M241,69.31c.42,0,.81,0,1.23,0a2,2,0,0,0,1.26-.22.63.63,0,0,0,.17-.75,1.55,1.55,0,0,0-1.42-.7,2.3,2.3,0,0,0-1.6.47A.67.67,0,0,0,241,69.31Z" style="fill:#c7c7c7"></path><path d="M253,72.13c-.39-.14-.73-.33-1.11-.51a2,2,0,0,1-1-.75.64.64,0,0,1,.18-.75,1.58,1.58,0,0,1,1.59,0,2.36,2.36,0,0,1,1.23,1.12A.68.68,0,0,1,253,72.13Z" style="fill:#c7c7c7"></path><path d="M249.29,75.76c0-.05.07.08.06.12-.34,1.17-.53,2.56.44,3.22,0,0,0,.08,0,.06C248.51,78.65,248.78,76.8,249.29,75.76Z" style="fill:#263238"></path><path d="M250.65,74.8c1.92.34,1.1,4.16-.68,3.85S249,74.51,250.65,74.8Z" style="fill:#263238"></path><path d="M251.36,75.16c.28.29.53.74.92.87s.9-.18,1.28-.5c0,0,.07,0,.06.06-.15.73-.59,1.42-1.4,1.36s-1.11-.81-1.14-1.59C251.08,75.22,251.24,75,251.36,75.16Z" style="fill:#263238"></path><path d="M242.43,73.91s-.1,0-.11.09c-.21,1.19-.64,2.53-1.8,2.7,0,0,0,.06,0,.07C241.87,76.85,242.43,75.08,242.43,73.91Z" style="fill:#263238"></path><path d="M241.63,72.46c-1.88-.54-2.82,3.25-1.08,3.75S243.2,72.91,241.63,72.46Z" style="fill:#263238"></path><path d="M240.78,72.51c-.35.13-.74.42-1.1.35s-.63-.56-.8-1c0,0-.06,0-.07,0-.2.72-.14,1.54.52,1.85s1.22-.23,1.57-.91C241,72.69,240.92,72.46,240.78,72.51Z" style="fill:#263238"></path><path d="M246.43,85.45a1.88,1.88,0,0,1-1.13.54,3.34,3.34,0,0,1-1.23-.52s-.08,0-.06,0a1.65,1.65,0,0,0,1.41.91,1.3,1.3,0,0,0,1.11-.9C246.56,85.46,246.47,85.42,246.43,85.45Z" style="fill:#263238"></path><path d="M242.29,82.49a5,5,0,0,0,1.47,2A2.23,2.23,0,0,0,245,85c1,0,1.28-.83,1.33-1.61a5.83,5.83,0,0,0-.09-1.25A6.4,6.4,0,0,1,242.29,82.49Z" style="fill:#263238"></path><path d="M243.76,84.52A2.23,2.23,0,0,0,245,85c1,0,1.28-.83,1.33-1.61A2.29,2.29,0,0,0,243.76,84.52Z" style="fill:#ff9cbd"></path><path d="M242.45,80.06s-.64,1.71-.83,2.55c0,.07.18.16.46.24h0a4.06,4.06,0,0,0,4.18-.61c.07-.07,0-.18-.1-.15a6.06,6.06,0,0,1-3.85.22c0-.24,1.2-2.89,1.07-2.93a7.78,7.78,0,0,0-2,0c1.24-3.6,3-7,4.22-10.57,0-.13-.14-.21-.2-.1a61.55,61.55,0,0,0-5,11.19C240.23,80.37,242.09,80.13,242.45,80.06Z" style="fill:#263238"></path><g style="opacity:0.2"><path d="M248.77,66.83a15.33,15.33,0,0,1-2.11-.48c-.7-.23-1.34-.6-2-.83a11.8,11.8,0,0,0-4.12-.33c-.12,0-.12.08,0,.08a10.24,10.24,0,0,1,4.28.68,13.08,13.08,0,0,0,3.41,1.1c2.72.4,5.34,1.14,7.37,3.09,0,0,0,0,0,0A13,13,0,0,0,248.77,66.83Z"></path><path d="M249.38,65a15,15,0,0,1-2-.45c-.66-.23-1.26-.58-1.93-.79a11.08,11.08,0,0,0-3.91-.32c-.11,0-.11.08,0,.08a9.68,9.68,0,0,1,4.06.64,12.32,12.32,0,0,0,3.23,1,12.29,12.29,0,0,1,7,2.94,0,0,0,1,0,0,0A12.3,12.3,0,0,0,249.38,65Z"></path></g><path d="M264.17,81.29c-2.83-.45-2.1-6.43-2.1-6.43s-5.65-1.31-5.59-9.88a12.8,12.8,0,0,0,.91,7.31s-9.71-3.41-11.94-12.74c0,0,.67,4.65,1.88,6.53,0,0-3.9-2.16-5.14-6,0,0-2.88,4.4-4.53,5.41,0,0,2.28-23.4,22.78-10.79,0,0,9.17,2.1,10.91,11S264.17,81.29,264.17,81.29Z" style="fill:#c7c7c7"></path><path d="M264.31,87.4a4.41,4.41,0,0,1-.85.08,2.68,2.68,0,0,1-.83-.12,2.42,2.42,0,0,1-1-.49,3,3,0,0,1-.58-.62,3.29,3.29,0,0,1-.5-1.1l1.73-4.53s4.74-4.85,7-3.08S267.41,86.79,264.31,87.4Z" style="fill:#d3766a"></path><path d="M268.07,79.65a0,0,0,0,1,0,.08c-2.18.5-3.57,2.22-4.65,4.07a1.66,1.66,0,0,1,2.53,0c.05,0,0,.12-.07.1a1.85,1.85,0,0,0-2.12.31,8.72,8.72,0,0,0-1.23,1.47c-.12.16-.44,0-.33-.19,0,0,0,0,0,0C262.6,82.78,265.22,79.46,268.07,79.65Z" style="fill:#263238"></path><path d="M264.18,86.62a.82.82,0,0,1-1.06.48.83.83,0,0,1-.48-1.06.82.82,0,0,1,1.06-.48A.81.81,0,0,1,264.18,86.62Z" style="fill:#fff"></path><path d="M266.06,85.67a.58.58,0,0,1-.75.33.57.57,0,0,1-.34-.75.58.58,0,0,1,.75-.34A.6.6,0,0,1,266.06,85.67Z" style="fill:#fff"></path><path d="M248.3,101.37l3.36,8L261.51,99l2.89,3.23s-9.54,16.34-9.62,15.61L251.36,111l-4.72,4.91.2-12.14Z" style="fill:#ebebeb"></path><path d="M246.4,109.87c.1-2,.14-4,.34-6,0-.07.11-.11.13,0,.43,1.92,0,9.58,0,11.41l0,0c.19-.21,4.37-4.32,4.42-4.26.73,1.09,3.25,6.11,3.42,6.57,1.51-2.6,7.3-12,9.09-14.5a.07.07,0,0,1,.13.07c-1.33,2.73-9,15.45-9.11,15.41a77.93,77.93,0,0,1-3.58-7.28c-.71.89-4.92,5.52-4.94,5.22A63,63,0,0,1,246.4,109.87Z" style="fill:#263238"></path></g></svg>