<svg xmlns="http://www.w3.org/2000/svg" viewBox="0 0 750 500"><g id="freepik--background-complete--inject-129"><path d="M366.32,356.79l.09,0-.22-.07-22.07-3.37,8.75,1.42,13.18,2Z" style="fill:none"></path><path d="M366.17,356.49l-.19-.14-11.6-5.92-5.93-3Z" style="fill:none"></path><path d="M367.74,356.34l12.05-8.59-.86.6-11.34,8.07Z" style="fill:none"></path><path d="M366.14,357.05l.27-.08-.1,0h-.23l-13.3,1.94-9,1.41Z" style="fill:none"></path><path d="M367.6,357h-.07l.24.08,29.43,4.54L381.09,359l-13.16-2Z" style="fill:none"></path><path d="M367.53,356.11l-.07.13,8.35-11,3.27-4.4Q373.2,348.63,367.53,356.11Z" style="fill:none"></path><path d="M366.18,356.32l.14.07L355,348.21l-4.4-3.14Z" style="fill:none"></path><path d="M367.05,356.22l0,.11.08-.22q1.68-10.53,3.44-21.54-.72,4.21-1.46,8.54L367.06,356Z" style="fill:none"></path><path d="M367.82,356.69l-.28.09.11,0h.21l13.29-1.92,16.59-2.56Z" style="fill:none"></path><path d="M367.37,356.1l.13-.19,6.07-11.34,3-5.78Z" style="fill:none"></path><path d="M366.56,356.06l-6.43-12.27.38.75q2.92,5.59,5.95,11.39Z" style="fill:none"></path><path d="M366.42,356.12,357.6,344.3l.64.87q4,5.46,8.26,11.1Z" style="fill:none"></path><path d="M366.78,356c0,.09.07.19.1.28V356q-1-6.6-2-13-1.33-8.26-2.6-16.15Q364.63,341.88,366.78,356Z" style="fill:none"></path><path d="M367.79,356.48l12.62-6.32-.82.4-11.65,5.81Z" style="fill:none"></path><path d="M366.14,357.27l-17,8.49,5.22-2.56L366,357.39Z" style="fill:none"></path><path d="M366.41,357.62l.07-.12-8.33,11-.34.45Z" style="fill:none"></path><path d="M366.18,357.42,350,368.93l5-3.52q5.55-4,11.32-8.07Z" style="fill:none"></path><path d="M367.38,357.69,376,374.18l-2.55-5-6-11.37Z" style="fill:none"></path><path d="M366.57,357.65l-.12.17-6.06,11.35c-.22.44-.44.86-.67,1.29Q363.2,364,366.57,357.65Z" style="fill:none"></path><path d="M367.73,357.41l-.12-.06,11.27,8.15.42.3Z" style="fill:none"></path><path d="M366.88,357.5v-.08l-.08.24-4.64,28.81,2.67-15.79q1-6.33,2.06-12.88Z" style="fill:none"></path><path d="M367.15,357.69l-.09-.26,0,.11v.19q1,6.6,2,13c.48,3,1,5.95,1.43,8.87Q368.77,368.4,367.15,357.69Z" style="fill:none"></path><path d="M367.53,357.65l11.8,15.85-3.61-4.94-8.28-11.08Z" style="fill:none"></path><path d="M367.76,357.26l.18.13,11.61,5.91,1.39.69Z" style="fill:none"></path><path d="M443.73,356.89l53.28.22,14.49.16,3.76.08a9.9,9.9,0,0,1,1.29.08,7.54,7.54,0,0,1-1.29.07l-3.76.06-14.49.05-53.28-.19-60.33-.49H368.5l.22,0,97.31.92c68.62.69,130.77,1.22,175.75,1.35,22.5.07,40.7,0,53.29-.07h1.62v-1.25l-1.62,0c-12.58-.23-30.78-.44-53.28-.6-45-.32-107.13-.41-175.75-.41l-96.65-.06,14,.12Z" style="fill:#f5f5f5"></path><path d="M365.14,356.94h0Z" style="fill:#f5f5f5"></path><path d="M367.93,357l-.18,0-.15,0Z" style="fill:#f5f5f5"></path><path d="M366.14,356.94h0Z" style="fill:#f5f5f5"></path><path d="M509.68,379.08l3.71.65a7.28,7.28,0,0,1,1.25.28,10.3,10.3,0,0,1-1.28-.12l-3.73-.52-14.32-2.14L442.71,369l-45.51-7.37-29.43-4.54.83.27L464.67,373c67.67,11.11,129,21.07,173.39,28,22.21,3.48,40.2,6.22,52.65,8l6,.85v-1.14l-5.76-1c-12.39-2.15-30.34-5.12-52.54-8.69-37.9-6.1-88.19-13.93-144.27-22.56l1.28.21Z" style="fill:#f5f5f5"></path><path d="M352.87,354.75l12.4,2h.78Z" style="fill:#f5f5f5"></path><path d="M289.07,344.91l2.08.33,61.72,9.51-8.75-1.42Z" style="fill:#f5f5f5"></path><path d="M366.31,357l.1,0,.08,0h-.18Z" style="fill:#f5f5f5"></path><path d="M366.34,356.72l-.15,0,.22.07h0l-.09,0Z" style="fill:#f5f5f5"></path><path d="M364,356l1.38.45.11,0Z" style="fill:#f5f5f5"></path><path d="M380.06,361.06l57.48,18.19-66.65-21.18Z" style="fill:#f5f5f5"></path><path d="M504.28,400.84l3.55,1.21a9.5,9.5,0,0,1,1.2.47,6.92,6.92,0,0,1-1.25-.32l-3.6-1.08-13.8-4.31c-12-3.86-29.27-9.4-50.61-16.25l-59.71-19.5-11.95-3.78.27.14,92.51,30.33c65,21.38,124,40.64,166.71,54.34,21.37,6.85,38.7,12.32,50.7,16,6,1.85,10.67,3.25,13.85,4.16,2.35.67,3.88,1.07,4.54,1.19v-.22c-.63-.29-2.08-.85-4.31-1.65-3.11-1.12-7.71-2.72-13.66-4.73-11.89-4-29.13-9.72-50.47-16.66-42.69-13.88-101.76-32.71-167-53.4l-20.44-6.5,49.78,16Z" style="fill:#f5f5f5"></path><path d="M348.45,347.46l5.93,3L299,322.13,268.89,307l10.21,5.21Z" style="fill:#f5f5f5"></path><path d="M365.36,355.91l-11-5.48,11.6,5.92Z" style="fill:#f5f5f5"></path><path d="M366.55,356.56h0l-.23-.16-.14-.07.42.3,0-.05Z" style="fill:#f5f5f5"></path><path d="M367.54,357.1l.22.16L380.94,364,435.27,391l47.35,23.86,12.82,6.58,3.32,1.75a8.39,8.39,0,0,1,1.1.64,8.81,8.81,0,0,1-1.18-.51l-3.38-1.62-12.93-6.38L435,391.53l-44.15-22.47,63.92,32.64c49.74,25.44,95.65,48.86,132.62,67.54h4.5c-37.55-19-85-42.7-136.64-68.43l-86.88-43.39-.27-.14Z" style="fill:#f5f5f5"></path><path d="M379.3,365.8,429,401.05l42.95,30.79,11.61,8.46,3,2.23a8.08,8.08,0,0,1,1,.81,7.53,7.53,0,0,1-1.09-.68l-3.08-2.12-11.74-8.28c-10.19-7.29-24.86-17.79-43-30.77L382.34,368l64.17,46.54c26.68,19.38,52.14,37.84,75.44,54.69h3.17c-24-17.1-50.32-35.85-78-55.51l-78.58-55.91-.82-.41Z" style="fill:#f5f5f5"></path><path d="M350.64,345.07l4.4,3.14-49.68-36L280,294l7.32,5.3Z" style="fill:#f5f5f5"></path><path d="M367.26,357h0l0,0,.66.34-.18-.13-.22-.16Z" style="fill:#f5f5f5"></path><path d="M366.55,356.55,366,356,355,348.21l11.28,8.18Z" style="fill:#f5f5f5"></path><path d="M377.6,367.33l43.64,42.55,37.52,36.94,10.13,10.12,2.6,2.66a7.25,7.25,0,0,1,.85.94,6.75,6.75,0,0,1-1-.83l-2.71-2.57-10.28-10-37.55-36.92L377.6,367.33l-9.75-9.51.07.1L436.3,426c15,14.94,29.54,29.44,43.44,43.26H482c-14.35-14-29.44-28.78-45-44L368,357.76l0,0Z" style="fill:#f5f5f5"></path><polygon points="366.56 356.57 366.55 356.56 366.56 356.57 366.56 356.57" style="fill:#f5f5f5"></polygon><path d="M366.5,356.27q-4.2-5.64-8.26-11.1L366,355.85l.51.5Z" style="fill:#f5f5f5"></path><path d="M367.38,357.69l.11.15-.25-.48v.08Z" style="fill:#f5f5f5"></path><path d="M352.93,338.05l5.31,7.12-.64-.87Z" style="fill:#f5f5f5"></path><path d="M450.38,469.24h.27q-9.42-12.66-19.25-25.84c4.61,6.24,8.63,11.69,12,16.21Z" style="fill:#f5f5f5"></path><path d="M411.74,417.75,379.33,373.5l-11.8-15.85.41.8c17.34,23.74,36.41,49.85,56.45,77.27q12.5,17.14,24.46,33.52H450l-7-9.32Z" style="fill:#f5f5f5"></path><path d="M366.63,356.63l-.07-.06h0l0,.05h0Z" style="fill:#f5f5f5"></path><path d="M376,374.18l-8.62-16.49-.13-.25h0c.09.28.19.55.28.83l43.54,85.25q6.65,13.05,13.11,25.71H425c-5.68-10.95-13.71-26.42-23.56-45.42C393.93,409.19,385.37,392.48,376,374.18Z" style="fill:#f5f5f5"></path><path d="M425.68,469.24q-4.62-8.85-9.37-17.91l9.28,17.91Z" style="fill:#f5f5f5"></path><path d="M366.72,356.52l-.3-.4.08.15,0,.08.18.18Z" style="fill:#f5f5f5"></path><path d="M360.51,344.54,366,355.32l.44.61Q363.45,350.14,360.51,344.54Z" style="fill:#f5f5f5"></path><path d="M357.28,338.36l3.23,6.18-.38-.75Z" style="fill:#f5f5f5"></path><path d="M343.92,285.41l-1.53-4.66q3,9.19,5.89,18.19C346.77,294.27,345.32,289.75,343.92,285.41Z" style="fill:#f5f5f5"></path><path d="M366.51,355.22l-1.29-3.89c.44,1.38.89,2.74,1.33,4.1Z" style="fill:#f5f5f5"></path><path d="M366.88,356.32c0-.09-.06-.19-.1-.28l0,.23.05.09Z" style="fill:#f5f5f5"></path><path d="M371.16,369.7l-2.88-8.61C377,388.25,386.61,418,396.65,449.2q3.25,10.13,6.44,20h.49c-3.58-10.87-8.12-24.69-13.47-40.93Z" style="fill:#f5f5f5"></path><path d="M367.25,357.45l.06.34q1.95,6,3.85,11.91c7.23,21.68,13.81,41.38,19.5,58.44,5.36,16.32,9.92,30.2,13.49,41.1h.27q-3.35-10.07-6.78-20.35c-10.69-32.17-20.86-62.79-30.11-90.61C367.44,358,367.34,357.73,367.25,357.45Z" style="fill:#f5f5f5"></path><path d="M370.46,379.6c3.06,18.84,5.86,36.09,8.33,51.32,2.33,14.84,4.35,27.75,6,38.32h.44q-1.33-8.33-2.71-16.81c-5.36-33.34-10.47-65.08-15.11-93.93l-.27-.81Q368.77,368.39,370.46,379.6Z" style="fill:#f5f5f5"></path><path d="M366.9,355.33v-.07q-1-6.22-2-12.26,1,6.39,2,13C366.9,355.77,366.9,355.55,366.9,355.33Z" style="fill:#f5f5f5"></path><path d="M367.05,356.22v.16l0-.05Z" style="fill:#f5f5f5"></path><path d="M362.33,326.85q1.28,7.89,2.6,16.15c-3.38-22.34-6.45-42.66-9.12-60.27-3.36-21.5-6.09-38.92-8-51.1l4.49,29.56C355.79,284,359.15,306,362.33,326.85Z" style="fill:#f5f5f5"></path><path d="M381.5,452.58q1.28,8.4,2.51,16.66h.24c-1.56-9.92-3.45-21.91-5.61-35.6Q380,443,381.5,452.58Z" style="fill:#f5f5f5"></path><path d="M367.11,357.17l.2.62-.06-.34h0v-.08l-.1-.19,0,0Z" style="fill:#f5f5f5"></path><path d="M366.88,357.8l0-.16,0-.14Z" style="fill:#f5f5f5"></path><path d="M366.92,372.92q0-7.14,0-14.55l0,.2c-.27,29.19-.57,61.31-.88,95q-.08,7.88-.15,15.63h.5c0-10.44.07-23,.11-37.42C366.59,414.56,366.75,394.71,366.92,372.92Z" style="fill:#f5f5f5"></path><path d="M367,431.83c-.06,14.39-.1,27-.14,37.41H367q0-7.75,0-15.63V358.9q0,7.13-.11,14C367,394.71,367,414.56,367,431.83Z" style="fill:#f5f5f5"></path><path d="M366.9,355.33c0,.22,0,.44,0,.67v-.67Z" style="fill:#f5f5f5"></path><path d="M369.13,343.11l-2.07,12.11V356Z" style="fill:#f5f5f5"></path><path d="M362.15,386.47l4.64-28.81c-.1.27-.19.54-.28.82-4.92,28.81-10.33,60.51-16,93.8q-1.47,8.57-2.9,17h.74c1.73-10.59,3.85-23.52,6.3-38.4C356.89,417.51,359.41,402.61,362.15,386.47Z" style="fill:#f5f5f5"></path><path d="M379.15,280.92c-.1.64-.21,1.27-.32,1.92-2.83,17.6-6.1,37.92-9.7,60.27q.74-4.32,1.46-8.54C373.32,317.44,376.19,299.48,379.15,280.92Z" style="fill:#f5f5f5"></path><path d="M366.9,356.43v-.07Z" style="fill:#f5f5f5"></path><path d="M367.91,353.88c-.16.47-.32.95-.49,1.42v.11C367.57,354.9,367.74,354.39,367.91,353.88Z" style="fill:#f5f5f5"></path><path d="M362.68,369.66,366.55,358l-.14.28c-9.52,27.74-20,58.27-31,90.34q-3.59,10.44-7.1,20.64h.59c3.67-10.91,8.35-24.85,13.86-41.27C348.58,411,355.3,391.29,362.68,369.66Z" style="fill:#f5f5f5"></path><path d="M344.62,424.21l21.07-63.35c-1,3-2,5.91-3,8.8C356.05,389.71,350,408.06,344.62,424.21Z" style="fill:#f5f5f5"></path><path d="M367.12,356.27h0l0-.15-.08.22,0,.05v0Z" style="fill:#f5f5f5"></path><path d="M329.66,469.24l6.74-20.32,6.46-19.4c-5.3,15.73-9.82,29.14-13.38,39.72Z" style="fill:#f5f5f5"></path><path d="M367.3,356.46l.16-.22.07-.13-.31.41.06,0Z" style="fill:#f5f5f5"></path><path d="M354.86,379.54l-33.74,63.11-14.24,26.59h.46l24.18-45.91Z" style="fill:#f5f5f5"></path><path d="M376.59,338.79l-3,5.78,28.93-54.11,15.68-29.67q-2.73,5.1-5.47,10.25Z" style="fill:#f5f5f5"></path><path d="M368,355.3c1.89-3.63,3.77-7.21,5.61-10.73l-6.07,11.34C367.66,355.7,367.8,355.5,368,355.3Z" style="fill:#f5f5f5"></path><path d="M366.74,357.43l-.17.22q-3.36,6.3-6.85,12.81L332,423.59l-24.09,45.65h.45Q315.1,456.4,322,443.11c15.76-30.12,30.75-58.8,44.38-84.85l.14-.28Z" style="fill:#f5f5f5"></path><path d="M357.81,369l-36,48.49-31.51,42-7.5,9.84h.67q12.36-16.59,25.36-34.06L366,358.42c.14-.27.28-.53.41-.8Z" style="fill:#f5f5f5"></path><path d="M379.08,340.86l-3.27,4.4c13.67-18,26.11-34.37,36.89-48.58,7-9.35,13.35-17.75,18.85-25.07l-5.67,7.48Z" style="fill:#f5f5f5"></path><path d="M321.31,417.12c10-13.25,21.5-28.37,34.05-44.95L308,434.58q-13.5,17.75-26.35,34.66h.74l7.48-10.14C297.3,449.15,308,434.82,321.31,417.12Z" style="fill:#f5f5f5"></path><path d="M366.79,357.18c-.12.21-.23.43-.34.64l.12-.17.17-.22.09-.27h0Z" style="fill:#f5f5f5"></path><path d="M367.3,356.46l.6-.59,7.91-10.61-8.35,11Z" style="fill:#f5f5f5"></path><path d="M356.26,367.27,312.72,409.9l-37.81,36.66-10.35,9.9L261.84,459a7.08,7.08,0,0,1-1,.83,7,7,0,0,1,.86-.94l2.62-2.64,10.19-10.05,37.79-36.69,43.93-42.24,9.74-9.54-.1.07-69.66,66.81c-16.12,15.44-31.72,30.4-46.55,44.63H252c14.35-14,29.41-28.72,44.93-43.91l69.09-67.48,0,0Z" style="fill:#f5f5f5"></path><path d="M385.85,343.43l-6.92,4.92.86-.6Z" style="fill:#f5f5f5"></path><path d="M250,439.75l-3.1,2.1a7.7,7.7,0,0,1-1.08.67,7.32,7.32,0,0,1,1-.79l3-2.22,11.67-8.37,43.17-30.51L350,368.93l16.2-11.51-.83.4L286.26,413c-28.67,20-55.94,39-80.61,56.25h3.23C230.36,454,253.72,437.41,278.21,420L261.8,431.55Z" style="fill:#f5f5f5"></path><path d="M366.14,357.27l-.16.12.5-.25h-.09Z" style="fill:#f5f5f5"></path><path d="M367.59,356.42l11.34-8.07L368,356l-.51.5Z" style="fill:#f5f5f5"></path><path d="M367.21,356.54l.07-.06-.06,0h0Z" style="fill:#f5f5f5"></path><path d="M367.59,356.42l-.09,0-.18.17h0l.41-.29Z" style="fill:#f5f5f5"></path><path d="M238.18,420.87l-3.4,1.6a8.09,8.09,0,0,1-1.18.5,7.72,7.72,0,0,1,1.11-.64L238,420.6l12.87-6.49,47.52-23.54,50.71-24.81,17-8.49.25-.12h0l-.85.27L278.26,400c-53.83,26.2-103.17,50.3-141.54,69.25h4.62c35.65-17.58,80.08-39.71,128.47-63.9l-18.66,9.23Z" style="fill:#f5f5f5"></path><path d="M379.59,350.56l-11,5.38-.62.43Z" style="fill:#f5f5f5"></path><path d="M386.25,347.24l-6.66,3.32.82-.4Z" style="fill:#f5f5f5"></path><path d="M367.82,356.69l-.23,0-.1,0h.05Z" style="fill:#f5f5f5"></path><path d="M440.14,334.32l4.69-1.47-18.18,5.62Z" style="fill:#f5f5f5"></path><path d="M368.66,356.42l3.87-1.22-4.08,1.26Z" style="fill:#f5f5f5"></path><path d="M366.38,357.15l-.34.05L353.85,361,294,380.06,243.27,396l-13.82,4.22-3.61,1.06a8.79,8.79,0,0,1-1.25.31,7.39,7.39,0,0,1,1.2-.46l3.56-1.2,13.76-4.43,50.72-16,60-18.55,8.91-2.84-90.32,27.79C207,406,147.72,424.29,104.9,437.78,83.49,444.52,66.19,450.05,54.26,454c-6,1.95-10.58,3.5-13.7,4.6s-4.74,1.72-4.7,1.84,1.73-.29,4.92-1.17,7.88-2.24,13.89-4c12-3.58,29.42-8.89,50.86-15.54,42.87-13.3,102-32,167.23-52.8l92.77-29.46Z" style="fill:#f5f5f5"></path><path d="M397.74,352.32l-16.59,2.56,61.74-8.95L495.56,338h.05L465,342.5Z" style="fill:#f5f5f5"></path><path d="M343.73,360.3l-52.58,8.16-52.67,7.92-14.33,2.05-3.73.49a7.28,7.28,0,0,1-1.28.11,6.86,6.86,0,0,1,1.25-.27l3.71-.63,14.3-2.27,50.15-7.57L269,371.13c-67.89,9.78-129.36,18.73-173.81,25.47C72.93,400,55,402.77,42.54,404.81q-4.35.7-7.77,1.29v1l8-1c12.46-1.68,30.47-4.26,52.72-7.53C140,392,201.35,382.62,269.12,372.13l96.19-14.81.83-.27Z" style="fill:#f5f5f5"></path><path d="M368.61,356.81l12.54-1.93-13.29,1.92Z" style="fill:#f5f5f5"></path><path d="M367.53,357h.07l.15,0h-.33Z" style="fill:#f5f5f5"></path><polygon points="367.25 357.01 367.26 357.01 367.26 357.01 367.25 357.01" style="fill:#f5f5f5"></polygon><path d="M366.69,357l-.65.2.34-.05h.1l.18-.1Z" style="fill:#f5f5f5"></path><path d="M367.65,356.8l.85.14h14.9l-14-.12h-1.74Z" style="fill:#f5f5f5"></path><path d="M497,357.61l14.49-.05,3.76-.06a7.54,7.54,0,0,0,1.29-.07,9.9,9.9,0,0,0-1.29-.08l-3.76-.08L497,357.11l-53.28-.22-60.33,0,60.33.49Z" style="fill:#f5f5f5"></path><path d="M366.32,356.79h-1.05L267.9,356c-68.62-.61-130.76-1.07-175.75-1.14-22.49,0-40.7,0-53.28.14l-4.1,0v1.17l4.09.07c12.58.22,30.79.41,53.28.54,45,.27,107.13.29,175.76.2l97.24-.06h.21Z" style="fill:#f5f5f5"></path><path d="M366.63,356.87l-.49.07h.35l.18-.06Z" style="fill:#f5f5f5"></path><path d="M367.42,356.94h.32l-.44-.07,0,0Z" style="fill:#f5f5f5"></path><path d="M366.19,356.7l.15,0-.87-.27-.11,0-96.11-15.58c-67.69-11-129-20.91-173.43-27.8-22.22-3.45-40.21-6.17-52.66-7.95l-8.39-1.17v1c2.37.43,5.1.9,8.18,1.43,12.39,2.13,30.34,5.08,52.54,8.62,44.4,7.09,105.79,16.53,173.6,26.84l20,3.06,55.05,8.42Z" style="fill:#f5f5f5"></path><path d="M442.71,369l52.6,8.27,14.32,2.14,3.73.52a10.3,10.3,0,0,0,1.28.12,7.28,7.28,0,0,0-1.25-.28l-3.71-.65-14.28-2.36-1.28-.21-51.32-8.1L381.09,359l16.11,2.61Z" style="fill:#f5f5f5"></path><path d="M366.61,356.63l.06,0,0,0Z" style="fill:#f5f5f5"></path><path d="M367.65,356.8l-.11,0h-.05l-.19.1.44.07h0l.18,0,13.16,2-12.37-2-.22,0Z" style="fill:#f5f5f5"></path><path d="M367.53,357l-.11,0-.16-.05-.07,0,.06.09h0l.28.09.57.18,11.95,3.78-9.17-3-2.29-.75-.83-.27Z" style="fill:#f5f5f5"></path><path d="M439.77,380.56c21.34,6.85,38.62,12.39,50.61,16.25l13.8,4.31,3.6,1.08a6.92,6.92,0,0,0,1.25.32,9.5,9.5,0,0,0-1.2-.47l-3.55-1.21-13.73-4.53-49.78-16L440,380l-2.41-.77-57.48-18.19Z" style="fill:#f5f5f5"></path><path d="M366.34,356.72h0l-.8-.4L273,326.12C208,304.82,149,285.62,106.23,272,84.85,265.16,67.52,259.71,55.51,256c-6-1.84-10.68-3.23-13.86-4.13s-4.87-1.33-4.91-1.21,1.57.77,4.68,1.88,7.72,2.71,13.67,4.72c11.89,4,29.14,9.68,50.49,16.59,42.7,13.83,101.81,32.59,167.1,53.19L364,356l1.49.47Z" style="fill:#f5f5f5"></path><path d="M482.37,415.36l12.93,6.38,3.38,1.62a8.81,8.81,0,0,0,1.18.51,8.39,8.39,0,0,0-1.1-.64l-3.32-1.75-12.82-6.58L435.27,391,380.94,364l-1.39-.69,11.31,5.76L435,391.53Z" style="fill:#f5f5f5"></path><path d="M367.28,357.05l.1.13h0l.22.16.12.06.82.41,11,5.48-11.61-5.91Z" style="fill:#f5f5f5"></path><path d="M366.63,356.87h0Z" style="fill:#f5f5f5"></path><path d="M366.35,356.73l.09,0,.11,0-.38-.26-17.72-9-69.35-35.3L268.89,307c-56.77-28.94-108-55-145.78-73.87-20-10-36.25-18.07-47.52-23.54-5.63-2.74-10-4.84-13-6.22s-4.6-2.06-4.66-1.95,1.43,1,4.33,2.57,7.18,3.86,12.73,6.75c11.1,5.79,27.23,14,47.2,24.14,39.94,20.22,95.28,47.83,156.44,78.22l86.93,43.28Z" style="fill:#f5f5f5"></path><path d="M366.17,356.49l.38.26.17,0-.05-.06-.06,0h0l-.42-.3-15.54-11.25L287.35,299.3,280,294c-52.2-37.82-99.37-71.86-134.09-96.62-18.16-13-32.91-23.38-43.16-30.5-5.13-3.57-9.13-6.31-11.87-8.13a27.09,27.09,0,0,0-4.28-2.64c-.08.1,1.25,1.2,3.86,3.21s6.48,4.9,11.5,8.61c10,7.41,24.64,18,42.75,31,36.21,26.07,86.45,61.78,142,101.13l78.62,55.8.62.44Z" style="fill:#f5f5f5"></path><path d="M471.61,432.26l11.74,8.28,3.08,2.12a7.53,7.53,0,0,0,1.09.68,8.08,8.08,0,0,0-1-.81l-3-2.23-11.61-8.46L429,401.05,379.3,365.8l-.42-.3,3.46,2.51,46.3,33.48C446.75,414.47,461.42,425,471.61,432.26Z" style="fill:#f5f5f5"></path><path d="M367.14,357.17l0-.05v0Z" style="fill:#f5f5f5"></path><path d="M367.39,357.19l.56.55,0,0,10.91,7.74-11.27-8.15Z" style="fill:#f5f5f5"></path><path d="M366.7,356.86h0l.06,0h-.07Z" style="fill:#f5f5f5"></path><path d="M366.55,356.55h0l.07.06,0,0,.05.06h0l0-.19-.18-.18-.51-.5-68.48-68c-48.08-47.81-91.69-91-123.46-122.15-15.87-15.56-28.78-28.09-37.77-36.69-4.5-4.3-8-7.61-10.43-9.83s-3.72-3.34-3.81-3.25,1,1.37,3.3,3.75,5.62,5.83,10,10.25c8.74,8.84,21.47,21.54,37.29,37.16,31.62,31.26,75.56,74.17,124.16,121.48L366,356Z" style="fill:#f5f5f5"></path><path d="M458.39,447.18l10.28,10,2.71,2.57a6.75,6.75,0,0,0,1,.83,7.25,7.25,0,0,0-.85-.94l-2.6-2.66-10.13-10.12-37.52-36.94L377.6,367.33l43.24,42.93Z" style="fill:#f5f5f5"></path><path d="M367.85,357.82l9.75,9.51L368,357.74l-.56-.55h0Z" style="fill:#f5f5f5"></path><path d="M366.42,356.12l.3.4,0-.21-.13-.25-.1-.13-.44-.61L309.45,278.1C269.57,223.57,233.38,174.24,207,138.68c-13.21-17.78-24-32.12-31.48-42-3.76-4.93-6.7-8.73-8.73-11.29s-3.15-3.87-3.25-3.79.82,1.51,2.66,4.2,4.63,6.61,8.24,11.64c7.22,10.07,17.78,24.55,30.91,42.38,26.26,35.67,62.83,84.74,103.3,138.85l44.32,59.36,4.67,6.25Z" style="fill:#f5f5f5"></path><path d="M411.74,417.75,443,459.92l7,9.32h.42l-7-9.63c-3.35-4.52-7.37-10-12-16.21-5.57-7.54-12-16.24-19.2-26-10.67-14.28-23-30.75-36.48-48.86l3.61,4.94Z" style="fill:#f5f5f5"></path><path d="M367.38,357.18l-.1-.13,0,0h0l-.06-.09,0,0,.28.54,8.28,11.08c-2.56-3.48-5.16-7-7.8-10.64l-.07-.1Z" style="fill:#f5f5f5"></path><path d="M367.44,357.48l-.28-.54h0l0,.18,0,.05.1.19.25.48,6,11.37-5.51-10.76-.41-.8Z" style="fill:#f5f5f5"></path><path d="M366.56,356.06l.13.25v0l-.27-.82c-13.4-26.16-28.15-55-43.65-85.19-30.66-60-58.5-114.2-78.91-153.36-10.2-19.57-18.52-35.38-24.37-46.26-2.92-5.45-5.22-9.66-6.81-12.49s-2.49-4.3-2.61-4.24.57,1.62,2,4.56,3.51,7.24,6.27,12.76c5.52,11,13.63,27,23.74,46.57,20.23,39.24,48.49,93.29,79.81,152.91l35.44,67.63,2.85,5.43Z" style="fill:#f5f5f5"></path><path d="M401.43,423.82c9.85,19,17.88,34.47,23.56,45.42h.6l-9.28-17.91-14.37-27.76c-8.32-15.88-17.93-34.2-28.49-54.36l2.55,5C385.37,392.48,393.93,409.19,401.43,423.82Z" style="fill:#f5f5f5"></path><path d="M366.9,356.53v-.1l0-.07-.05-.09v0Z" style="fill:#f5f5f5"></path><path d="M367.31,357.79l-.2-.62-.05.26.09.26.27.81c.29.86.58,1.73.86,2.59l2.88,8.61Q369.27,363.84,367.31,357.79Z" style="fill:#f5f5f5"></path><path d="M371.16,369.7l18.95,58.61c5.35,16.24,9.89,30.06,13.47,40.93h.57c-3.57-10.9-8.13-24.78-13.49-41.1C385,411.08,378.39,391.38,371.16,369.7Z" style="fill:#f5f5f5"></path><path d="M366.68,356.29c0-.28-.09-.57-.13-.86-.44-1.36-.89-2.72-1.33-4.1-5.37-16.59-11-34.14-16.94-52.39q-2.91-9-5.89-18.19-2.59-8-5.22-16.16C316.55,200.67,297.79,142.82,284,101c-6.92-20.9-12.6-37.79-16.61-49.43-2-5.82-3.6-10.34-4.72-13.38s-1.77-4.63-1.89-4.59.29,1.69,1.2,4.81,2.29,7.68,4.13,13.56c3.67,11.75,9.11,28.71,15.94,49.64,13.65,41.86,32.86,99.57,54.18,163.27l30.23,90.57Z" style="fill:#f5f5f5"></path><path d="M366.9,356.53l-.08-.24.07.41h0Z" style="fill:#f5f5f5"></path><path d="M367,358.47c.67,4.14,1.33,8.24,2,12.26q-1-6.39-2-13Z" style="fill:#f5f5f5"></path><path d="M370.46,379.6c-.47-2.92-.95-5.87-1.43-8.87,3.4,22.35,6.51,42.66,9.19,60.27l.42,2.64c2.16,13.69,4.05,25.68,5.61,35.6h.55c-1.66-10.57-3.68-23.48-6-38.32C376.32,415.69,373.52,398.44,370.46,379.6Z" style="fill:#f5f5f5"></path><path d="M366.87,357.42v.08l0,.14h0v-.32Z" style="fill:#f5f5f5"></path><polygon points="366.82 357.16 366.83 357.15 366.82 357.15 366.82 357.16" style="fill:#f5f5f5"></polygon><polygon points="366.77 356.85 366.78 356.85 366.77 356.85 366.77 356.85" style="fill:#f5f5f5"></polygon><path d="M366.68,356.29v0l0,.21h0l0,.19.14,0-.07-.41v0l0-.23q-2.14-14.15-4.45-29.19c-3.18-20.87-6.54-42.89-10-65.66l-4.49-29.56c-8.3-54.47-15.82-103.3-21.71-140.15-3.46-21.7-6.35-39.25-8.44-51.37-1-6.06-1.88-10.76-2.5-13.94-.45-2.32-.77-3.82-1-4.46H314c0,.65.17,2.19.45,4.57.4,3.21,1,7.94,1.9,14,1.73,12.17,4.38,29.76,7.75,51.47,6.73,43.44,16.4,103.38,27.19,169.56,5.4,33.32,10.54,65,15.22,93.88l0,.21C366.59,355.72,366.64,356,366.68,356.29Z" style="fill:#f5f5f5"></path><path d="M367,357.54c0,.28-.09.56-.14.83q0,7.41,0,14.55.06-6.89.11-14c0-.15,0-.29,0-.43v-.93Z" style="fill:#f5f5f5"></path><path d="M366.92,372.92c-.17,21.79-.33,41.64-.47,58.9,0,14.4-.08,27-.11,37.42h.52c0-10.44.08-23,.14-37.41C367,414.56,367,394.71,366.92,372.92Z" style="fill:#f5f5f5"></path><path d="M366.9,356.17v.52l.15-.29v-1.18c.23-29.2.49-61.33.76-95.08.58-67,1-127.69,1.05-171.62,0-22,0-39.74-.17-52-.06-6.14-.15-10.91-.25-14.15,0-.22,0-.42,0-.63h-.67c0,.21,0,.41,0,.63-.13,3.23-.25,8-.35,14.15-.22,12.28-.4,30.06-.52,52-.25,43.93-.23,104.61-.09,171.62,0,33.77.08,65.91.12,95.13v.91Z" style="fill:#f5f5f5"></path><path d="M366.9,357.32v.32c0-.2.07-.4.1-.6Z" style="fill:#f5f5f5"></path><path d="M367.15,356.11l0,.15c.1-.28.19-.57.29-.85v-.11l15.89-93.86c11.25-66.1,21.33-126,28.37-169.37,3.52-21.69,6.28-39.26,8.1-51.42.91-6.08,1.58-10.81,2-14s.57-4.9.45-4.92-.52,1.64-1.16,4.81-1.52,7.87-2.6,13.92c-2.18,12.1-5.18,29.64-8.8,51.32-7.23,43.36-16.85,103.31-27.37,169.52q-1.59,9.93-3.14,19.64c-3,18.56-5.83,36.52-8.56,53.65Q368.82,345.58,367.15,356.11Z" style="fill:#f5f5f5"></path><path d="M354.64,430.84c-2.45,14.88-4.57,27.81-6.3,38.4h.54c1.75-10.57,3.87-23.47,6.32-38.31,2.81-17.61,6.05-37.92,9.62-60.25l-2.67,15.79C359.41,402.61,356.89,417.51,354.64,430.84Z" style="fill:#f5f5f5"></path><path d="M367.22,356.53l0,.05,0,0Z" style="fill:#f5f5f5"></path><path d="M367,357.54l0-.11.05-.26v-.05l0-.18-.08,0-.07,0h0c0,.2-.07.4-.1.6h0l0,.16q-1,6.54-2.06,12.88,1-6,2.05-12.11l0-.2C367,358.1,367,357.82,367,357.54Z" style="fill:#f5f5f5"></path><path d="M366.87,357.42l0-.1.1-.28h0l-.17.12h0l-.09.27-.19.55-3.87,11.68c1-2.89,2-5.83,3-8.8.27-.79.54-1.59.82-2.38.09-.28.18-.55.28-.82Z" style="fill:#f5f5f5"></path><path d="M342.76,428c-5.51,16.42-10.19,30.36-13.86,41.27h.58c3.56-10.58,8.08-24,13.38-39.72.15-.46.3-.91.46-1.37l1.3-3.94c5.35-16.15,11.43-34.5,18.06-54.55C355.3,391.29,348.58,411,342.76,428Z" style="fill:#f5f5f5"></path><path d="M367.12,356.26h0l.41-.78c9.48-27.75,19.91-58.3,30.88-90.38,21.77-63.55,41.38-121.13,55.33-162.9,7-20.88,12.54-37.81,16.29-49.54,1.88-5.86,3.3-10.42,4.23-13.53s1.35-4.76,1.22-4.8-.78,1.54-1.92,4.58-2.77,7.53-4.82,13.34c-4.1,11.62-9.89,28.47-17,49.32-14.13,41.71-33.3,99.43-54.37,163.21C387,296.37,377,326.46,367.91,353.88c-.17.51-.34,1-.5,1.53C367.31,355.69,367.22,356,367.12,356.26Z" style="fill:#f5f5f5"></path><path d="M359.72,370.46c.23-.43.45-.85.67-1.29q-2.81,5.28-5.53,10.37l-23.34,43.79-24.18,45.91h.6L332,423.59Z" style="fill:#f5f5f5"></path><path d="M366.79,357.18l-.14.09h0l-.16.22-.07.12c-.13.27-.27.53-.41.8q-2.85,5.44-5.61,10.75l6.06-11.35C366.56,357.61,366.67,357.39,366.79,357.18Z" style="fill:#f5f5f5"></path><path d="M367.12,356.27l-.07.13-.15.29h0l.45-.6,9.22-17.31L412.71,271q2.75-5.16,5.47-10.25c29.54-55.34,56.09-105.28,75.41-142.12,10.25-19.55,18.48-35.41,24.08-46.41,2.8-5.5,4.94-9.79,6.36-12.72s2.1-4.49,2-4.54-1,1.4-2.63,4.22-3.95,7-6.9,12.44c-5.92,10.85-14.36,26.6-24.7,46.11-20.68,39-48.91,93.07-80,152.81l-44.26,84.91Z" style="fill:#f5f5f5"></path><path d="M367.37,356.1l-.45.6.16,0,.1-.09,0-.05h0l.31-.41q5.67-7.47,11.55-15.25l46.8-61.77,5.67-7.48c38.6-50.87,73.34-96.83,98.61-130.67,13.26-17.74,23.92-32.15,31.21-42.17,3.65-5,6.45-8.91,8.32-11.59s2.8-4.11,2.69-4.18-1.22,1.22-3.27,3.77-5,6.33-8.81,11.23c-7.58,9.81-18.44,24.08-31.77,41.77-26.68,35.38-63.22,84.46-103.48,138.72C404.78,305.75,385.49,331.7,368,355.3c-.16.2-.3.4-.46.61Z" style="fill:#f5f5f5"></path><path d="M321.77,417.44l36-48.49.34-.45-2.79,3.67c-12.55,16.58-24,31.7-34.05,44.95-13.27,17.7-24,32-31.48,42l-7.48,10.14h.41l7.5-9.84Z" style="fill:#f5f5f5"></path><path d="M366.64,357.28l-.56.55,0,0-7.91,10.65,8.33-11Z" style="fill:#f5f5f5"></path><path d="M366.77,357l-.08,0,0,0,.08,0Z" style="fill:#f5f5f5"></path><path d="M367.3,356.46l0,0-.07.06,0,0-.1.09.24,0,.18-.17.51-.5L437.61,289c48.93-47,93.17-89.59,125-120.63,15.93-15.51,28.75-28.13,37.55-36.91,4.4-4.39,7.79-7.83,10.06-10.18s3.42-3.64,3.33-3.73-1.41,1-3.83,3.23-6,5.49-10.5,9.76c-9.05,8.53-22.05,21-38,36.43-32,30.9-75.9,73.83-124.32,121.32l-69,67.54Z" style="fill:#f5f5f5"></path><path d="M274.54,446.2l-10.19,10.05-2.62,2.64a7,7,0,0,0-.86.94,7.08,7.08,0,0,0,1-.83l2.72-2.54,10.35-9.9,37.81-36.66,43.54-42.63-43.93,42.24Z" style="fill:#f5f5f5"></path><path d="M366,357.73l-9.74,9.54,9.82-9.44.56-.55h0Z" style="fill:#f5f5f5"></path><path d="M366.77,357l0,0,.09,0Z" style="fill:#f5f5f5"></path><path d="M367.74,356.34l-.41.29.22,0,.24-.12.15-.11.62-.43,79-55.28c55.83-39,106.32-74.35,142.71-100.18,18.2-12.9,32.89-23.42,43-30.76,5.05-3.67,9-6.55,11.57-8.53s3.95-3.08,3.88-3.18-1.56.8-4.31,2.61-6.77,4.52-11.92,8c-10.3,7.05-25.12,17.37-43.38,30.21-36.51,25.66-86.73,61.4-142.12,101l-61.15,43.59-6.06,4.32Z" style="fill:#f5f5f5"></path><path d="M304.66,400.63l-43.17,30.51-11.67,8.37-3,2.22a7.32,7.32,0,0,0-1,.79,7.7,7.7,0,0,0,1.08-.67l3.1-2.1,11.8-8.2L278.21,420C286,414.5,295,408.16,305,401.08l50-35.67-5,3.52Z" style="fill:#f5f5f5"></path><path d="M366.65,357.27l.14-.09,0,0h0L367,357l.07,0-.72.36q-5.76,4.1-11.32,8.07l10.87-7.61.1-.07Z" style="fill:#f5f5f5"></path><path d="M366.35,357.34l.72-.36.08,0h0l0,0,.07,0,0,0,.19-.1.1,0h0l-.74.23-.09,0-.08,0-.18.1-.5.25-11.62,5.81,11-5.38.83-.4Z" style="fill:#f5f5f5"></path><path d="M367.79,356.48l-.24.12h0l.84-.27,87.21-42.68c61.38-30,116.92-57.2,157-77.15,20-10,36.23-18.12,47.37-23.83,5.57-2.85,9.88-5.1,12.78-6.66s4.4-2.44,4.34-2.55-1.66.56-4.67,1.92-7.41,3.43-13.06,6.13c-11.3,5.39-27.6,13.32-47.68,23.21-40.18,19.78-95.5,47.41-156.54,78l-68.91,34.49-5.84,2.92Z" style="fill:#f5f5f5"></path><path d="M298.43,390.57l-47.52,23.54L238,420.6l-3.33,1.73a7.72,7.72,0,0,0-1.11.64,8.09,8.09,0,0,0,1.18-.5l3.4-1.6,13-6.3,18.66-9.23,28.88-14.27,55.67-27.87-5.22,2.56Z" style="fill:#f5f5f5"></path><path d="M243.11,395.47l-13.76,4.43-3.56,1.2a7.39,7.39,0,0,0-1.2.46,8.79,8.79,0,0,0,1.25-.31l3.61-1.06L243.27,396,294,380.06,353.85,361l-60,18.55Z" style="fill:#f5f5f5"></path><path d="M366,357.2l.65-.2.08,0,.06,0,.74-.23-.79.11h0l-.06,0h0l-.18.06-.08,0-.27.08-.83.27-2.55.81L353.85,361Z" style="fill:#f5f5f5"></path><path d="M367.57,356.6l.88-.14,4.08-1.26,54.12-16.73,18.18-5.62,16.63-5.14c65.44-20.17,124.67-38.53,167.47-52.07,21.4-6.77,38.69-12.32,50.62-16.25,6-2,10.57-3.52,13.69-4.62q2.26-.79,3.45-1.26v-.38c-.83.19-2.05.52-3.67,1-3.19.88-7.87,2.24-13.89,4-12,3.59-29.4,8.92-50.83,15.6-42.86,13.36-101.94,32.15-167.16,53l-92.73,29.58Z" style="fill:#f5f5f5"></path><path d="M366.14,356.94l.49-.07h.15l.79-.11h0l.23,0,29.92-4.37L465,342.5,495.61,338c55.62-8.12,105.47-15.47,143.12-21.23,22.22-3.4,40.2-6.23,52.6-8.28,1.93-.31,3.71-.61,5.36-.89v-1.15l-5.56.75c-12.46,1.7-30.47,4.3-52.71,7.6-44.48,6.6-105.86,16.08-173.63,26.66l-96.13,14.92-.21,0-.88.14h0l-.22,0h0l-.24,0-.16,0h0l-.14,0h0l-.17,0-.11,0h0l-.09,0-1,.15h0l-12.56,1.95,13.3-1.94Z" style="fill:#f5f5f5"></path><path d="M224.1,378.13l-3.71.63a6.86,6.86,0,0,0-1.25.27,7.28,7.28,0,0,0,1.28-.11l3.73-.49,14.33-2.05,52.67-7.92,52.58-8.16,9-1.41-61.72,9-2.51.38-50.15,7.57Z" style="fill:#f5f5f5"></path><rect x="257.5" y="63.18" width="36.83" height="115.24" transform="matrix(0.99, -0.16, 0.16, 0.99, -15.77, 45.69)" style="fill:#fff"></rect><polygon points="255.51 109.98 286.32 69.86 284.88 60.98 276.74 62.3 252.93 94.07 255.51 109.98" style="fill:#e0e0e0"></polygon><polygon points="251.36 84.38 267.12 63.86 249.87 66.65 248.73 68.17 251.36 84.38" style="fill:#ebebeb"></polygon><polygon points="291.73 103.23 261.05 144.17 263.63 160.08 294.44 119.96 291.73 103.23" style="fill:#e0e0e0"></polygon><polygon points="257.02 119.31 259.6 135.22 290.41 95.09 287.7 78.37 257.02 119.31" style="fill:#ebebeb"></polygon><polygon points="296.15 130.51 265.47 171.45 266.96 180.63 274.11 179.47 298.86 147.24 296.15 130.51" style="fill:#ebebeb"></polygon><polygon points="300.38 156.63 284.53 177.78 301.53 175.02 303.04 173.06 300.38 156.63" style="fill:#e0e0e0"></polygon><path d="M303.31,174.74s0-.2-.1-.58-.17-.94-.29-1.65c-.25-1.47-.6-3.62-1.07-6.4-.92-5.57-2.25-13.65-3.93-23.78C294.61,122.08,290,93.68,284.63,61l.29.21-36.35,5.9h0l.22-.3c7.38,45.76,14,86.72,18.34,113.77l-.19-.14,26.72-4.24,7.16-1.11,1.86-.29.64-.08-.6.11-1.82.31-7.12,1.2L267,180.79l-.16,0,0-.17c-4.4-27-11.07-68-18.52-113.74l-.05-.26.26,0h0l36.35-5.88.25,0,0,.25,13.09,81.52c1.61,10.11,2.89,18.18,3.78,23.75.43,2.76.76,4.89,1,6.35.11.71.19,1.25.25,1.63S303.31,174.74,303.31,174.74Z" style="fill:#e0e0e0"></path><rect x="261.97" y="173.06" width="45.74" height="5.54" rx="2.15" transform="translate(594.13 303.84) rotate(170.79)" style="fill:#ebebeb"></rect><path d="M287.56,192.64a18.4,18.4,0,0,0,15.23-21.12l-36.35,5.89A18.4,18.4,0,0,0,287.56,192.64Z" style="fill:#ebebeb"></path><path d="M304.4,170c0,.15-8.85,1.7-19.82,3.48s-19.89,3.11-19.91,3,8.85-1.7,19.82-3.47S304.38,169.85,304.4,170Z" style="fill:#e0e0e0"></path><path d="M305.27,175.33c0,.15-8.86,1.7-19.83,3.48s-19.88,3.11-19.91,3,8.85-1.69,19.83-3.47S305.24,175.19,305.27,175.33Z" style="fill:#e0e0e0"></path><g style="opacity:0.30000000000000004"><rect x="283.6" y="66.37" width="5.15" height="91.95" rx="2" transform="matrix(0.99, -0.16, 0.16, 0.99, -14.29, 47.23)" style="fill:#fff"></rect></g><rect x="243.39" y="58.42" width="45.74" height="5.54" rx="2.15" transform="translate(-6.36 43.38) rotate(-9.21)" style="fill:#ebebeb"></rect><path d="M263.53,44.38A18.4,18.4,0,0,0,248.3,65.5l36.36-5.89A18.42,18.42,0,0,0,263.53,44.38Z" style="fill:#ebebeb"></path><path d="M285.82,55.34c0,.15-8.85,1.7-19.82,3.48s-19.89,3.11-19.91,3,8.85-1.69,19.82-3.47S285.8,55.2,285.82,55.34Z" style="fill:#e0e0e0"></path><path d="M286.69,60.68c0,.15-8.86,1.7-19.83,3.48S247,67.27,247,67.12s8.86-1.69,19.83-3.47S286.66,60.54,286.69,60.68Z" style="fill:#e0e0e0"></path><rect x="469.45" y="61.51" width="36.83" height="115.24" transform="translate(45.16 -117.97) rotate(14.45)" style="fill:#fff"></rect><polygon points="473.51 101.03 517.83 76.64 520.08 67.93 512.09 65.87 477.53 85.42 473.51 101.03" style="fill:#e0e0e0"></polygon><polygon points="479.98 75.91 502.65 63.44 485.73 59.08 484.08 60.01 479.98 75.91" style="fill:#ebebeb"></polygon><polygon points="509.39 109.38 464.87 134.57 460.85 150.18 505.17 125.79 509.39 109.38" style="fill:#e0e0e0"></polygon><polygon points="471.15 110.18 467.13 125.78 511.45 101.4 515.68 84.99 471.15 110.18" style="fill:#ebebeb"></polygon><polygon points="502.5 136.14 457.97 161.33 455.65 170.33 462.67 172.14 498.27 152.55 502.5 136.14" style="fill:#ebebeb"></polygon><polygon points="495.9 161.76 472.89 174.78 489.57 179.07 491.75 177.88 495.9 161.76" style="fill:#e0e0e0"></polygon><path d="M491.32,179.52s0-.19.13-.56.23-.93.4-1.64c.37-1.44.9-3.55,1.59-6.28,1.39-5.47,3.41-13.41,5.95-23.36l20.44-79.81.18.3L484.35,59h0l.31-.19c-11.6,44.88-22,85.05-28.84,111.58l-.12-.21L481.87,177l7,1.85,1.82.49.62.17s-.2,0-.6-.13l-1.8-.45-7-1.76-26.32-6.68-.16,0,0-.17c6.82-26.53,17.14-66.72,28.67-111.62l.06-.25.25.07h0l35.66,9.19.24.07-.06.24c-8.32,32.11-15.56,60-20.71,79.93-2.59,9.9-4.65,17.82-6.07,23.27-.71,2.7-1.26,4.78-1.64,6.21-.18.69-.33,1.22-.43,1.6S491.32,179.52,491.32,179.52Z" style="fill:#e0e0e0"></path><rect x="451.08" y="170.34" width="45.74" height="5.54" rx="2.15" transform="translate(889.72 459.02) rotate(-165.55)" style="fill:#ebebeb"></rect><path d="M469.7,189.61a18.41,18.41,0,0,0,22.43-13.24l-35.66-9.19A18.42,18.42,0,0,0,469.7,189.61Z" style="fill:#ebebeb"></path><path d="M494.22,175.62c0,.14-8.79-2-19.56-4.77s-19.46-5.14-19.42-5.28,8.79,2,19.55,4.77S494.25,175.48,494.22,175.62Z" style="fill:#e0e0e0"></path><path d="M492.87,180.86c0,.14-8.79-2-19.56-4.77s-19.46-5.14-19.42-5.28,8.79,2,19.55,4.77S492.9,180.72,492.87,180.86Z" style="fill:#e0e0e0"></path><g style="opacity:0.30000000000000004"><rect x="498.07" y="69.53" width="5.15" height="91.95" rx="2" transform="translate(44.65 -121.26) rotate(14.45)" style="fill:#fff"></rect></g><rect x="480.06" y="57.88" width="45.74" height="5.54" rx="2.15" transform="translate(31.04 -123.58) rotate(14.45)" style="fill:#ebebeb"></rect><path d="M507.18,44.16A18.41,18.41,0,0,0,484.76,57.4l35.66,9.19A18.42,18.42,0,0,0,507.18,44.16Z" style="fill:#ebebeb"></path><path d="M523.2,63.15c0,.14-8.79-2-19.55-4.77s-19.46-5.14-19.43-5.28,8.79,2,19.56,4.77S523.24,63,523.2,63.15Z" style="fill:#e0e0e0"></path><path d="M521.85,68.39c0,.14-8.79-2-19.55-4.77s-19.46-5.14-19.43-5.28,8.79,2,19.56,4.77S521.89,68.25,521.85,68.39Z" style="fill:#e0e0e0"></path><path d="M59,170.36l-.26-.19-.29-.21-1.8-1.34-.54-.4L50.4,164a1.48,1.48,0,0,1-.48-2.18L57,167l.32-.43-7-5.23.47-.64,7,5.23.47-.64-7-5.24.48-.64,7,5.23.48-.64-7-5.23.47-.64,7.05,5.23.47-.64-7-5.24.48-.64,7,5.23.48-.64-7-5.23.47-.64,7,5.23.47-.64L55,155l.48-.64,7,5.23.48-.64-7-5.23.47-.64,7.05,5.23.47-.65-7-5.23.48-.64,7,5.23.48-.64-7-5.23.47-.65,7.05,5.24.47-.65-7-5.23.48-.64,7,5.23.48-.64-7-5.23.47-.65,7,5.24.48-.65-7-5.23.48-.64,7,5.23.48-.64-7-5.23.48-.65,7,5.24.48-.65-7-5.23.48-.64,7,5.23.48-.64-7.05-5.23.48-.65,7,5.23.48-.64-7-5.23.48-.64,7,5.23.48-.64-7-5.23.48-.65,7,5.23.48-.64-7-5.23.48-.64,7,5.23.48-.64-7-5.24.48-.64,7,5.23.48-.64-7-5.23.48-.64,7,5.23.48-.64-7-5.24.48-.64,7,5.23.48-.64-7-5.23.48-.64,7,5.23.47-.64-7-5.24.48-.64,7,5.23.48-.64-7-5.23.47-.64,7,5.23.47-.65-7-5.23.48-.64,7,5.23.48-.64-7-5.23.47-.64,7,5.23.47-.65-7-5.23.48-.64,7,5.23.48-.64-7-5.23.47-.65,7.05,5.24.47-.65-7-5.23.48-.64,7,5.23.48-.64-7-5.23.47-.65,7,5.24.47-.65-7-5.23.48-.64,7,5.23.48-.64-7-5.23.47-.65,7,5.23.47-.64-7-5.23.48-.64,7,5.23.48-.64-7-5.23.47-.65,7,5.23.48-.64-7-5.23.48-.64,7,5.23.48-.64-7-5.23.48-.65,7,5.23.48-.64-7-5.23.48-.64,7,5.23.48-.64-7-5.24.48-.64,7,5.23.48-.64-7-5.23.48-.64,7,5.23.48-.64-7-5.24.48-.64,7,5.23.48-.64-7-5.23a1.49,1.49,0,0,1,2.23-.17L96.34,114h0l2.34,1.75L99,116l.26.19a2.62,2.62,0,0,1,.22,3.66L62.54,169.52A2.6,2.6,0,0,1,59,170.36Z" style="fill:#e0e0e0"></path><path d="M666.53,154.11s10.61,10.71,12.35,13.86a10.37,10.37,0,0,1,.9,6.67h0a11.51,11.51,0,0,0,1.63,9.63c3.3,5,9.37,6.77,13.56,4l.13-.1a9.39,9.39,0,0,0,9.72,3.38c1.47-.41.71-2.65-.76-2.24a7,7,0,0,1-7.24-2.77c2.47-3.18,2.5-8.19-.23-12.31a11.1,11.1,0,0,0-9.81-5.27h0c-5.11-1-18.43-16.79-18.43-16.79ZM695,175.29c2.6,3.92,2,8.86-1.27,11s-8.06.78-10.66-3.14-2-8.85,1.27-11S692.37,171.38,695,175.29Z" style="fill:#e0e0e0"></path><path d="M658.25,178.61h0a11.1,11.1,0,0,0-4.59,10.13c.41,6,4.8,10.52,9.82,10.18s8.75-5.45,8.34-11.41a11.48,11.48,0,0,0-4.56-8.64h0A10.32,10.32,0,0,1,664,173c-.54-3.56,1.38-18.52,1.38-18.52l-2.65-.44S661.7,174.71,658.25,178.61Zm11.65,9c.32,4.69-2.62,8.7-6.56,9s-7.4-3.31-7.72-8,2.62-8.7,6.57-9S669.58,183,669.9,187.64Z" style="fill:#e0e0e0"></path><path d="M650,103.25c-4.93,1.67,12.21,52,12.21,52l2.74,2.33,3.7-1.25,1.16-3.65S655,101.58,650,103.25Z" style="fill:#e0e0e0"></path><path d="M666.42,149.52A1.94,1.94,0,1,1,664,148.3,1.95,1.95,0,0,1,666.42,149.52Z" style="fill:#fff"></path></g><g id="freepik--Table--inject-129"><path d="M708.18,469.24c0,.15-150.08.26-335.16.26s-335.2-.11-335.2-.26,150-.26,335.2-.26S708.18,469.1,708.18,469.24Z" style="fill:#263238"></path></g><g id="freepik--character-3--inject-129"><path d="M497.65,274.19c-2.19-16.68-4.23-34.4,2.77-49.7,4.26-9.31,11.7-17.21,14.12-27.16s1.92-21,3-31c2.24-21.05,23.47-36.42,30.91-36.82l67.79,56.82c.42,15.32.87,30.86,5.37,45.51,3.31,10.75,8.78,21,10,32.14,1.47,13.17-3,26.94,1.08,39.54,3.89,11.88,14.89,20.71,17.47,32.93,1.91,9-1.06,18.93,2.58,27.42,1.58,3.68,4.39,7.66,2.68,11.28-1.32,2.79-4.71,3.79-7.71,4.47a399,399,0,0,1-50.49,8q-2-7.54-3.91-15.1c1.33,6.9-3.55,14.17-9.93,17.5-6.86,3.57-14.92,3.71-22.66,3.77l-47.41.39Q505.49,334.17,497.65,274.19Z" style="fill:#263238"></path><path d="M529.85,143.15c10.92-12.43,25.24-19.3,41.78-19,9.34.18,13.13,2.25,19.78,4.3s12.59,5.86,16.4,11.69c4.52,6.92,8.25,14.63,8.86,22.87.63,8.47,1.26,17,.33,25.44s-3.54,16.89-8.76,23.58l-21.67,3c-11.91,0-24-.05-35.47-3.16s-22.54-9.75-28.39-20.13C514.59,177.32,518.93,155.58,529.85,143.15Z" style="fill:#263238"></path><path d="M549,143.68l29.11-10.4,7.47,1.13c16.88.65,27.87,19.67,27.5,33.35-.41,15.19-1.51,33.72-4.32,44.83-5.64,22.33-24.91,23.53-24.91,23.53l0,11.73,15.92,3.88L623.35,304l-72.54,11.87L541.62,268l-.89-13.63.43-103.22A8,8,0,0,1,549,143.68Z" style="fill:#ae7461"></path><path d="M575.21,206.13a4.72,4.72,0,0,1,1.76-2.89,4.88,4.88,0,0,1,5.95-.13,6.52,6.52,0,0,1,2.27,6.24h0a6,6,0,0,1-4.35,2.33,7.12,7.12,0,0,1-.8,0,5.36,5.36,0,0,1-3.56-1.55A4.75,4.75,0,0,1,575.21,206.13Z" style="fill:#6f4439"></path><path d="M601.71,185.54a2.92,2.92,0,0,1-3.07,2.68,2.79,2.79,0,0,1-2.76-2.89,2.91,2.91,0,0,1,3.06-2.68A2.8,2.8,0,0,1,601.71,185.54Z" style="fill:#263238"></path><path d="M607.69,175.17c-.4.34-2.45-1.48-5.58-1.76s-5.56,1.09-5.87.67c-.15-.18.28-.83,1.35-1.47a8,8,0,0,1,4.73-1,7.79,7.79,0,0,1,4.4,1.87C607.62,174.3,607.88,175,607.69,175.17Z" style="fill:#263238"></path><path d="M586.69,199c0-.18,2-.34,5.16-.46.81,0,1.58-.1,1.76-.64a4.09,4.09,0,0,0-.32-2.41q-.87-3-1.81-6.29c-2.5-9-4.24-16.29-3.87-16.39s2.68,7.08,5.18,16q.88,3.3,1.71,6.32a4.67,4.67,0,0,1,.13,3.17,2,2,0,0,1-1.42,1.05,5.06,5.06,0,0,1-1.37.06C588.65,199.38,586.68,199.22,586.69,199Z" style="fill:#263238"></path><path d="M583.9,236.1a57.89,57.89,0,0,1-29.62-10.83s6.67,16.44,29.55,16.36Z" style="fill:#6f4439"></path><path d="M577.29,200.37c.51,0,.21,3.41,2.9,6.08s6.33,2.63,6.32,3.11c0,.21-.87.58-2.4.49a8.54,8.54,0,0,1-5.29-2.4,7.39,7.39,0,0,1-2.21-5.08C576.6,201.14,577.06,200.33,577.29,200.37Z" style="fill:#263238"></path><path d="M607,164.16c-.59.71-2.94,0-5.76,0s-5.2.51-5.75-.24c-.25-.36.12-1.08,1.16-1.76a9,9,0,0,1,9.29.22C606.94,163.07,607.27,163.81,607,164.16Z" style="fill:#263238"></path><path d="M566.2,182.93a2.91,2.91,0,0,0,2.65,3.08,2.78,2.78,0,0,0,3.14-2.46,2.91,2.91,0,0,0-2.65-3.09A2.78,2.78,0,0,0,566.2,182.93Z" style="fill:#263238"></path><path d="M565.32,172.47c.34.4,2.64-1.12,5.77-.95s5.35,1.86,5.71,1.5c.18-.16-.15-.87-1.12-1.65a8,8,0,0,0-4.54-1.67,7.66,7.66,0,0,0-4.62,1.23C565.52,171.62,565.15,172.29,565.32,172.47Z" style="fill:#263238"></path><path d="M567.56,162.49c.58.75,3,.14,6,.25s5.35.77,6,0c.27-.35-.08-1.08-1.12-1.81a9,9,0,0,0-4.78-1.42,8.81,8.81,0,0,0-4.81,1.18C567.68,161.42,567.3,162.13,567.56,162.49Z" style="fill:#263238"></path><path d="M543.72,189.42c.15-1.69-1.44-5.85-3.08-6.26-4.39-1.09-12.45-1.46-13.54,9.84-1.49,15.44,14.32,13.76,14.39,13.32S543.21,195.25,543.72,189.42Z" style="fill:#ae7461"></path><path d="M537.77,200.26c-.06,0-.28.17-.76.33a2.68,2.68,0,0,1-2-.15c-1.58-.76-2.7-3.48-2.5-6.27a8.9,8.9,0,0,1,1.12-3.78,3.12,3.12,0,0,1,2.22-1.87,1.38,1.38,0,0,1,1.52.89c.17.45,0,.75.12.78s.35-.22.29-.87a1.73,1.73,0,0,0-.51-1,2.05,2.05,0,0,0-1.45-.54,3.79,3.79,0,0,0-3,2.13,9,9,0,0,0-1.35,4.21c-.21,3.12,1.1,6.19,3.28,7a2.87,2.87,0,0,0,2.49-.17C537.71,200.63,537.82,200.3,537.77,200.26Z" style="fill:#6f4439"></path><path d="M540,183.19l3.79,4.21C561.34,171.75,596,132.22,594,134.58c0,0-11.46-5.2-24.16-3.49s-36.87,7.19-37,22.09S540,183.19,540,183.19Z" style="fill:#263238"></path><path d="M599.82,251.73s42.64,48.53,46.86,68.4c2.78,13.15-4.54,47.65-4.54,47.65s9.9,94.82,6.57,101.46L507,469l28.49-88.38-33.64-85.26,10.63-34,27.83-13.52s60.58,56.47,70,45.4c6.12-7.19-21.26-44.14-21.26-44.14Z" style="fill:#FF725E"></path><g style="opacity:0.30000000000000004"><path d="M526.82,340.42s45.84,67.28,62.26,71.15,56.32-10.15,56.32-10.15l.73-11.49L543.35,331.55Z"></path></g><path d="M629.25,278.31c2.76-.64,39.28,50.77,46.77,71.27s10.64,32.32,4.73,37.05-65.66,17.53-65.66,17.53l4.62-29.35,29.75-13.41-3.36-17.33c3.36-22.5-2.34-30.07-6.47-38.33l-3.44-6.86Z" style="fill:#ae7461"></path><path d="M526.57,277c-1.93.54-25.57,1.39-14.5,29.62s59,92.93,78.9,99.57,78-24.91,78-24.91l-10-27.13s-32.63,8-53.89,7.25l-45.49-61.14S546.5,271.46,526.57,277Z" style="fill:#ae7461"></path><path d="M640.55,288.48s-27.78-39.27-40.73-36.75c-7.58,1.47,34.42,54.88,34.42,54.88Z" style="fill:#FF725E"></path><polygon points="701.72 258.57 721.81 281.05 709.68 287.83 705.87 287.01 701.53 291.06 689.6 277.71 693.8 273.89 693.59 270.17 701.72 258.57" style="fill:#263238"></polygon><path d="M683.75,338.05s15.76,21.62,18,24.38,4.59,3.74,2.64,6.55-5.39,7.32-7.62,6.81-4.72-4.87-7.67-7.58-16.81-17.4-18.76-19.58.54-4.58-1.86-7.07-9-3.05-9-3.05,13.75-12.87,14-12.5.33,6.34,3.9,8.14S680.6,333.12,683.75,338.05Z" style="fill:#263238"></path><path d="M700.44,365.42l9.27,13.26s-2.26,2.48-2.52,2.17-12.43-10.18-12.43-10.18Z" style="fill:#263238"></path><path d="M686.08,282s5.07-4.34,5.29-4.72l10.94,12.23L697,294.23l-.24.32-11-12.36Z" style="fill:#263238"></path><path d="M626.64,330.48s.29-.71.8-1.85h0l.2-.44c.85-1.68,5-7.76,21.34-9.76,15.28-1.87,23.14,4.19,25.64,6.65a34.68,34.68,0,0,1-11,10.91C650.48,344.42,641,346.55,641,346.55,631.62,341.88,626.64,330.48,626.64,330.48Z" style="fill:#263238"></path><path d="M649,318.43c-16.31,2-20.49,8.08-21.34,9.76,1.83-4,6.05-12.42,11.45-17.8,7.3-7.27,17.95-12.69,17.95-12.69l28.69-15.51,11,12.36-6,8.29c-9,9.41-12.22,16.36-16.11,22.24C672.12,322.62,664.26,316.56,649,318.43Z" style="fill:#455a64"></path><polygon points="627.44 328.63 627.44 328.63 627.44 328.63 627.44 328.63" style="fill:#FF725E"></polygon><path d="M705.7,286.92a74.9,74.9,0,0,1-6.16-6.49,82,82,0,0,1-5.77-6.84,74.9,74.9,0,0,1,6.16,6.49A80.16,80.16,0,0,1,705.7,286.92Z" style="fill:#455a64"></path><path d="M689.58,277.74a72.28,72.28,0,0,1,6,6.34,72.69,72.69,0,0,1,5.63,6.7,77.15,77.15,0,0,1-6-6.35A71.87,71.87,0,0,1,689.58,277.74Z" style="fill:#455a64"></path><path d="M652.12,342.16c0-.09,1.52-.62,3.91-1.72a47.43,47.43,0,0,0,16.29-12.33c1.71-2,2.64-3.36,2.71-3.31a4.11,4.11,0,0,1-.58,1,28.13,28.13,0,0,1-1.85,2.55,42.25,42.25,0,0,1-16.42,12.43,30,30,0,0,1-2.95,1.09A5.19,5.19,0,0,1,652.12,342.16Z" style="fill:#455a64"></path><path d="M643,345.7c-.11.09-3.65-3.69-7.91-8.45s-7.62-8.7-7.51-8.79,3.65,3.68,7.9,8.44S643.14,345.6,643,345.7Z" style="fill:#455a64"></path><path d="M659.06,354.14s5.49-5.19,7.25-8.69,5.27-11.76,5.27-11.76,10-7,13.19-4.57,3.16,7.21,3.16,7.21a8.11,8.11,0,0,1,5.8,9.12S698,350.75,696,355s-1.59,3.64-1.59,3.64,3,.23.88,4.8-12.3,12.83-18.63,15.3-8.79,3.18-8.79,3.18l-9.67-19.53Z" style="fill:#ae7461"></path><path d="M508.3,264.26s-18.84,12.09-4.5,41.55,20.49,36,20.49,36l50.18-26.92s-32.64-51.08-41.09-57.21S508.3,264.26,508.3,264.26Z" style="fill:#FF725E"></path><path d="M671.58,333.69a5.15,5.15,0,0,1-.31.85c-.25.6-.59,1.39-1,2.37l-3.77,8.63v0l-3,3.7-1.61,2-.83,1-.43.53a2.33,2.33,0,0,1-.52.52,18.39,18.39,0,0,1-5.25,2.48,51.55,51.55,0,0,1-5.94,1.47c-4.73.89-9.26,1.48-13.39,2s-7.85.9-11,1.21-5.66.54-7.41.68l-2,.14a3.45,3.45,0,0,1-.71,0,3.37,3.37,0,0,1,.7-.12l2-.24,7.39-.84c3.12-.36,6.84-.8,11-1.33s8.65-1.15,13.35-2a52.8,52.8,0,0,0,5.89-1.45,18.13,18.13,0,0,0,5.1-2.38,1.88,1.88,0,0,0,.45-.44l.43-.53.84-1c.56-.68,1.1-1.35,1.62-2l3-3.66,0,0,3.94-8.55,1.1-2.33A6.18,6.18,0,0,1,671.58,333.69Z" style="fill:#6f4439"></path><path d="M685,373.82a6.85,6.85,0,0,1-.73.45c-.49.28-1.22.67-2.16,1.17-1.89,1-4.66,2.36-8.14,3.92s-7.7,3.24-12.36,5.15l-15.19,6.13c-10.79,4.34-20.57,8.24-27.67,11l-8.41,3.27-2.3.85a4.22,4.22,0,0,1-.82.25s.27-.13.78-.35l2.27-.94,8.35-3.42,27.6-11.17,15.21-6.1c4.68-1.88,8.91-3.5,12.4-5s6.28-2.83,8.19-3.76l2.2-1.08A4.72,4.72,0,0,1,685,373.82Z" style="fill:#6f4439"></path><path d="M707.15,379c6.71,10.21,11.74,22.54,9.21,34.93A28.3,28.3,0,0,1,709,428.2a22.12,22.12,0,0,1-14.43,6.5c-5.17.29-10.77-1.34-14.21-5.4-3.21-3.81-4.69-10.33,0-13.69s10.87-1.05,14.32,3c3.92,4.64,5.17,11.06,4.62,17-1.29,14.18-12,24.62-22.44,33.15-.62.51.27,1.39.89.88,10.24-8.38,20.57-18.49,22.59-32.21.91-6.23,0-12.94-3.65-18.2-3.17-4.56-8.59-7.76-14.23-6-5.2,1.61-7.4,6.89-5.8,11.92,1.7,5.35,6.41,9,11.75,10.27a23,23,0,0,0,16.14-2.27,25.71,25.71,0,0,0,11.09-12.74c6-14.28.64-29.79-7.43-42.05-.45-.67-1.53,0-1.08.63Z" style="fill:#263238"></path><path d="M585.94,441l1.64,28.27h67.24c-.15-11.33-8.76-47.16-8.76-47.16Z" style="fill:#455a64"></path><polygon points="526.11 409.85 646.06 420.11 650.51 453.33 520.39 427.54 526.11 409.85" style="fill:#455a64"></polygon><path d="M638.08,411.29l-6.56-1,6.07,2.53,0,.12-6.23-2-.19.57,6.23,2-.18.57-6.24-2-.18.57,6.24,2-.19.57-6.24-2-.18.57,6.24,2-.18.58-6.25-2-.18.58,6.25,2-.19.57-6.25-2-.18.57,6.25,2-.18.57-6.26-2-.18.58,6.25,2-.18.57-6.26-2-.18.57,6.26,2L635,421l-6.26-2-.18.58,6.26,2-.18.58-6.27-2-.18.57,6.26,2-.18.57-6.27-2-.18.57,6.27,2-.18.57-6.28-2-.19.57,6.28,2-.18.57-6.28-2-.19.57,6.29,2-.19.57-6.28-2-.19.57,6.29,2-.18.58-6.29-2-.19.57,6.29,2-.18.57-6.29-2-.19.58,6.3,2-.19.58-6.29-2-.19.57,6.3,2-.18.57-6.3-2-.19.58,6.31,2-.19.57-6.3-2-.19.57,6.31,2-.18.58-6.31-2.05-.19.57,6.31,2.05-.18.57-6.31-2-.19.57,6.32,2-.19.58-6.32-2.05-.18.57,6.32,2.05-.18.57-6.33-2-.18.57,6.33,2.05-.19.57-6.33-2-.18.57,6.33,2.05-.18.58-6.34-2.06-.18.58,6.33,2.05-.18.57-6.34-2.05-.18.57,6.34,2.05-.19.58-6.34-2.06-.18.58,6.34,2.05-.18.57-6.35-2.05-.18.57,6.34,2.06-.18.57-6.35-2.06-.18.58,6.35,2.05-.18.58L620.94,443l-.18.57,6.35,2.06-.1.32-6.36-2.05s5.37,5.11,4.75,7-7.2,17.31-5.67,17.81a7.9,7.9,0,0,0,4.19-4.1C633,446.28,640,415,640,415A2.53,2.53,0,0,0,638.08,411.29Z" style="fill:#263238"></path><path d="M606.89,435.37s-3.75-8.44-4.06-10.62a6.31,6.31,0,0,1,.93-4h0a7,7,0,0,0,1.16-5.87c-.8-3.57-3.89-5.91-6.89-5.23l-.1,0a5.75,5.75,0,0,0-4.83-4.05c-.93-.08-1,1.36-.05,1.45a4.28,4.28,0,0,1,3.54,3.16,6.55,6.55,0,0,0-2.54,7.1,6.8,6.8,0,0,0,4.47,5.14h0c2.7,1.68,6.9,13.61,6.9,13.61Zm-11.68-18.3c-.63-2.81.77-5.51,3.13-6.05s4.79,1.31,5.42,4.11-.77,5.52-3.12,6.05S595.85,419.87,595.21,417.07Z" style="fill:#e0e0e0"></path><path d="M617,423.14h0a6.79,6.79,0,0,0,4.83-4.81c1.06-3.5-.46-7.06-3.41-7.95s-6.19,1.21-7.26,4.72a7,7,0,0,0,.74,5.93h0a6.33,6.33,0,0,1,.63,4.07c-.46,2.16-4.81,10.3-4.81,10.3l1.42.82S614.13,424.63,617,423.14Zm-4.71-7.7c.84-2.75,3.39-4.41,5.71-3.71s3.51,3.51,2.68,6.26-3.39,4.41-5.71,3.71S611.41,418.19,612.24,415.44Z" style="fill:#e0e0e0"></path><path d="M605.53,468.08c3.18.12,4.06-32.41,4.06-32.41l-1.06-1.93-2.39-.09-1.46,1.84S602.34,468,605.53,468.08Z" style="fill:#e0e0e0"></path><path d="M606,438a1.19,1.19,0,1,1,1.14,1.23A1.19,1.19,0,0,1,606,438Z" style="fill:#fff"></path><path d="M648.64,449.94c-25.85,3-42,.11-59.84-5.31,0,0-2,14.45,3.93,24.61l57.78-.5A137.31,137.31,0,0,0,648.64,449.94Z" style="fill:#455a64"></path><path d="M649.89,449.1a10.55,10.55,0,0,1-2.32.68c-1.52.39-3.73.82-6.49,1.24a99.17,99.17,0,0,1-43.18-3.19c-2.67-.82-4.8-1.57-6.23-2.18a10,10,0,0,1-2.2-1c.06-.18,3.29,1,8.64,2.45A113.69,113.69,0,0,0,641,450.25C646.48,449.61,649.85,448.91,649.89,449.1Z" style="fill:#263238"></path><path d="M509.13,316.47a4.49,4.49,0,0,1,.3.45l.83,1.32,3.11,5.07c2.68,4.43,6.49,10.73,11.11,18.35l-.29-.08,35-18.83,15.15-8.13-.09.37-20.89-30.87-6.06-9-1.6-2.43-.41-.63c-.08-.15-.13-.22-.12-.23a1.58,1.58,0,0,1,.16.2l.44.61,1.68,2.39,6.17,8.94c5.25,7.67,12.59,18.41,21,30.76l.16.24-.25.13-15.14,8.13L524.4,342l-.18.1-.11-.18-11-18.44-3-5.14-.77-1.35A2.49,2.49,0,0,1,509.13,316.47Z" style="fill:#263238"></path><path d="M597.51,313.89c.12.3,4.17,6,12.35,1.59,9.69-5.21,5.31-12.4,3.21-14.08a5.29,5.29,0,0,0-7,.77c-2.51,2.64-2.15,8.53-4.09,10.14A7.55,7.55,0,0,1,597.51,313.89Z" style="fill:#fff"></path><path d="M601.56,316.77a7.82,7.82,0,0,1-5.53-6.84,5.39,5.39,0,0,0,4.14,2.91,3.83,3.83,0,0,0,3.71-2.48L603.5,316Z" style="fill:#fff"></path><path d="M632.17,298.68c.13.3,1.75,7.58-7.09,10.37-10.46,3.3-12.35-4.94-12-7.64a5.4,5.4,0,0,1,5.47-4.51c3.6.06,7.44,4.48,9.93,4.22A5.19,5.19,0,0,0,632.17,298.68Z" style="fill:#fff"></path><path d="M631.49,304.12c1.86-3.26.69-7.37-.83-8.83a5.6,5.6,0,0,1-.91,5,3.77,3.77,0,0,1-4.34.92l4.14,3.68Z" style="fill:#fff"></path></g><g id="freepik--character-2--inject-129"><path d="M467.75,287.8l19.68-3.68a400.09,400.09,0,0,1-7.08-39.64l-.09-.67a42.79,42.79,0,0,0-31.91-35.53L411.63,199H342.9s-39.5,15.06-39.81,16.51,6.38,164.65,6.38,164.65c-.76,4.14-8.11,68.13-8.11,68.13l173.38-8.93-5.11-95.63Z" style="fill:#263238"></path><path d="M305.58,411.9h0a33.92,33.92,0,0,0,21.64-29l9.91-126.25L432.85,253l28.47,141.5a13.64,13.64,0,0,0,11.6,10.84h0l2.22,26.13L478,469.23h-9l-154.6-.39-15.18.39L303.71,428Z" style="fill:#FF725E"></path><path d="M426.39,202.35,424.45,264,435,265.26V204.35A18.94,18.94,0,0,0,426.39,202.35Z" style="fill:#FF725E"></path><path d="M434.81,250.45a4.65,4.65,0,0,1,.09,1c0,.76,0,1.7.07,2.83,0,2.42.08,5.79.09,9.67v.25h-4.14l-6.47,0h-.25V264c0-3.21.05-6,.09-7.88,0-.89.05-1.64.07-2.26a2.7,2.7,0,0,1,.08-.8,4,4,0,0,1,.08.8c0,.62,0,1.37.06,2.26.05,1.93.08,4.67.1,7.88l-.24-.24,6.47,0h3.89l-.25.25c0-3.88,0-7.25.09-9.67,0-1.13.05-2.07.07-2.83A4.65,4.65,0,0,1,434.81,250.45Z" style="fill:#263238"></path><path d="M335.3,201.92a21.64,21.64,0,0,0-9,3.52l.24.79,16.79,60,12.82-.52Z" style="fill:#FF725E"></path><path d="M351.25,260.58a3.17,3.17,0,1,1-3.16-3.17A3.15,3.15,0,0,1,351.25,260.58Z" style="fill:#263238"></path><path d="M352,253a4.41,4.41,0,0,1,.39.92l.93,2.62c.78,2.24,1.85,5.41,3.07,9.08l.1.31-.33,0-5.11.21-7.71.3h-.19l-.05-.18c-.8-3-1.49-5.57-2-7.5l-.53-2.14a2.65,2.65,0,0,1-.14-.78,3.46,3.46,0,0,1,.28.74q.27.84.66,2.1c.56,1.92,1.31,4.47,2.18,7.46l-.23-.18,7.71-.34,5.11-.19-.23.32c-1.18-3.68-2.19-6.86-2.88-9.13l-.8-2.67A4,4,0,0,1,352,253Z" style="fill:#263238"></path><g style="opacity:0.30000000000000004"><path d="M396.64,453.21h0a49,49,0,0,1-49-49v-17h98.09v17A49,49,0,0,1,396.64,453.21Z"></path><path d="M396.64,453.21l.46,0,1.33-.08a40.2,40.2,0,0,0,5.14-.5,48.87,48.87,0,0,0,28.71-15.06l1.26-1.39a14.38,14.38,0,0,0,1.23-1.46l2.35-3.14,2.1-3.47a14.09,14.09,0,0,0,1-1.85l.92-1.9A48.94,48.94,0,0,0,445.32,407c.23-3.13.1-6.39.13-9.69V387.15l.24.24-49,0-49,0,.24-.24c0,3.43,0,6.81,0,10.11s-.1,6.56.14,9.7a48.88,48.88,0,0,0,4.22,17.35c.31.64.61,1.28.91,1.91a16.14,16.14,0,0,0,1,1.84l2.1,3.47,2.35,3.15a14.38,14.38,0,0,0,1.23,1.46l1.26,1.39a48.94,48.94,0,0,0,28.71,15.05,40,40,0,0,0,5.14.5l1.33.08.45,0h-.45l-1.33,0a35.92,35.92,0,0,1-5.16-.42,46.84,46.84,0,0,1-18.26-6.38,47.39,47.39,0,0,1-10.69-8.59l-1.28-1.39a13.56,13.56,0,0,1-1.24-1.47l-2.38-3.16-2.13-3.49a15.68,15.68,0,0,1-1-1.86c-.31-.63-.61-1.27-.93-1.92a49.22,49.22,0,0,1-4.3-17.5c-.24-3.18-.11-6.41-.15-9.72s0-6.68,0-10.11v-.25h98.59v.25c0,3.43,0,6.81,0,10.11s.09,6.54-.15,9.72a49.22,49.22,0,0,1-4.31,17.5c-.31.65-.62,1.28-.92,1.92a15.54,15.54,0,0,1-1,1.85l-2.13,3.49-2.38,3.17a14.48,14.48,0,0,1-1.24,1.46l-1.28,1.4a47.33,47.33,0,0,1-10.69,8.58,46.72,46.72,0,0,1-18.26,6.39,35.92,35.92,0,0,1-5.16.42l-1.33,0Z" style="fill:#263238"></path></g><path d="M396.64,453.21l.46,0,1.33-.08a40.2,40.2,0,0,0,5.14-.5,48.87,48.87,0,0,0,28.71-15.06l1.26-1.39a14.38,14.38,0,0,0,1.23-1.46l2.35-3.14,2.1-3.47a14.09,14.09,0,0,0,1-1.85l.92-1.9A48.94,48.94,0,0,0,445.32,407c.23-3.13.1-6.39.13-9.69V387.15l.24.24-49,0-49,0,.24-.24c0,3.43,0,6.81,0,10.11s-.1,6.56.14,9.7a48.88,48.88,0,0,0,4.22,17.35c.31.64.61,1.28.91,1.91a16.14,16.14,0,0,0,1,1.84l2.1,3.47,2.35,3.15a14.38,14.38,0,0,0,1.23,1.46l1.26,1.39a48.94,48.94,0,0,0,28.71,15.05,40,40,0,0,0,5.14.5l1.33.08.45,0h-.45l-1.33,0a35.92,35.92,0,0,1-5.16-.42,46.84,46.84,0,0,1-18.26-6.38,47.39,47.39,0,0,1-10.69-8.59l-1.28-1.39a13.56,13.56,0,0,1-1.24-1.47l-2.38-3.16-2.13-3.49a15.68,15.68,0,0,1-1-1.86c-.31-.63-.61-1.27-.93-1.92a49.22,49.22,0,0,1-4.3-17.5c-.24-3.18-.11-6.41-.15-9.72s0-6.68,0-10.11v-.25h98.59v.25c0,3.43,0,6.81,0,10.11s.09,6.54-.15,9.72a49.22,49.22,0,0,1-4.31,17.5c-.31.65-.62,1.28-.92,1.92a15.54,15.54,0,0,1-1,1.85l-2.13,3.49-2.38,3.17a14.48,14.48,0,0,1-1.24,1.46l-1.28,1.4a47.33,47.33,0,0,1-10.69,8.58,46.72,46.72,0,0,1-18.26,6.39,35.92,35.92,0,0,1-5.16.42l-1.33,0Z" style="fill:#263238"></path><path d="M367.19,283.41c0,.32,2.23,7.08,13.67,5.83,13.53-1.48,11.57-9.75,9.86-12.06a7.48,7.48,0,0,0-8.46-1.75c-4.07,1.59-6.23,7.24-9.19,8.07A11.66,11.66,0,0,1,367.19,283.41Z" style="fill:#fff"></path><path d="M370.65,287.52c-3.74-2.15-4.46-6.37-3.45-8.35a5.44,5.44,0,0,0,8.93,3.16l-2.87,5.11Z" style="fill:#fff"></path><path d="M414.12,281.34c0,.32-1.28,7.71-12.77,7.22-13.6-.59-12.2-9-10.64-11.38a7.47,7.47,0,0,1,8.33-2.3c4.16,1.32,6.69,6.81,9.7,7.44A7.58,7.58,0,0,0,414.12,281.34Z" style="fill:#fff"></path><path d="M411,286.19c3.58-2.4,4-6.66,2.89-8.56a5.45,5.45,0,0,1-8.71,3.74l3.21,4.91Z" style="fill:#fff"></path><path d="M455.09,236.9a2.24,2.24,0,0,1,0,.57c-.05.42-.1.95-.17,1.6-.18,1.47-.43,3.46-.73,5.89-.65,5-1.61,11.83-2.78,19.38s-2.32,14.39-3.2,19.32l-1.09,5.83c-.13.64-.24,1.17-.32,1.59a2.09,2.09,0,0,1-.15.54,2.14,2.14,0,0,1,.05-.56c.06-.42.13-.95.22-1.6l.92-5.86c.79-5,1.87-11.82,3.05-19.34l2.93-19.35c.37-2.42.67-4.41.9-5.86.1-.65.19-1.18.26-1.6A2.41,2.41,0,0,1,455.09,236.9Z" style="fill:#455a64"></path><path d="M344.86,145.5c-2-8.51-4-17.08-4.56-25.81s.44-17.71,4.13-25.64c.56-1.2,5.15-9.2,6.46-9,.93.17-2.11,7.73-1.7,8.59,3.91,8.15,4.4,17.62,3,26.55a118.67,118.67,0,0,1-7.29,25.28" style="fill:#263238"></path><path d="M422.53,108.68a40.84,40.84,0,0,0-39.39-39L381,69.64c-22.85.54-35.15,20.24-34,43.06l5.84,92.75,47.56,11.16.16-31.16s22-2.64,23.07-24.54C424.18,150.33,423.44,128.46,422.53,108.68Z" style="fill:#cb8072"></path><path d="M400.64,185.44s-13.89.64-28.29-9.11c0,0,6.2,16,28.14,14.79Z" style="fill:#975d53"></path><path d="M412.31,128.7a3.13,3.13,0,0,1-3.13,3.05,3,3,0,0,1-3.12-2.93,3.13,3.13,0,0,1,3.12-3A3,3,0,0,1,412.31,128.7Z" style="fill:#263238"></path><path d="M417.82,118.1c-.41.39-2.72-1.44-6.08-1.55s-5.9,1.49-6.25,1.06c-.17-.19.25-.91,1.35-1.66a8.64,8.64,0,0,1,5-1.35,8.26,8.26,0,0,1,4.82,1.74C417.69,117.17,418,117.92,417.82,118.1Z" style="fill:#263238"></path><path d="M381.6,127.69a3.14,3.14,0,0,1-3.13,3.06,3,3,0,0,1-3.13-2.94,3.13,3.13,0,0,1,3.13-3A3,3,0,0,1,381.6,127.69Z" style="fill:#263238"></path><path d="M384.29,116c-.35.44-2.85-1.14-6.21-.88s-5.7,2.12-6.09,1.73c-.19-.17.14-.93,1.16-1.79a8.61,8.61,0,0,1,4.84-1.9,8.26,8.26,0,0,1,5,1.22C384.06,115.07,384.47,115.78,384.29,116Z" style="fill:#263238"></path><path d="M395.68,144.11c0-.19,2.09-.48,5.5-.8.86-.05,1.68-.2,1.85-.78a4.37,4.37,0,0,0-.49-2.57q-1.1-3.17-2.31-6.63c-3.21-9.45-5.5-17.2-5.12-17.33s3.3,7.43,6.5,16.87c.77,2.33,1.51,4.55,2.21,6.68a5,5,0,0,1,.33,3.39,2.19,2.19,0,0,1-1.46,1.2,5.82,5.82,0,0,1-1.47.16C397.8,144.36,395.68,144.3,395.68,144.11Z" style="fill:#263238"></path><path d="M385.3,104.66c-.37.9-3.71.35-7.68.69s-7.2,1.3-7.7.46c-.22-.4.37-1.24,1.69-2.08a13.41,13.41,0,0,1,11.71-.88C384.75,103.48,385.46,104.23,385.3,104.66Z" style="fill:#263238"></path><path d="M417.31,111.45c-.62.75-2.91-.13-5.7-.26s-5.17.33-5.68-.49c-.23-.39.17-1.15,1.23-1.84a8,8,0,0,1,4.68-1.09,7.88,7.88,0,0,1,4.49,1.7C417.29,110.29,417.59,111.09,417.31,111.45Z" style="fill:#263238"></path><path d="M349.45,129.58c-.36-.17-14.9-5-14.94,10s15,12,15.05,11.52S349.45,129.58,349.45,129.58Z" style="fill:#cb8072"></path><path d="M345,145.42c-.06,0-.26.19-.7.39a2.61,2.61,0,0,1-2,0c-1.59-.58-2.91-3.1-3-5.81a8.83,8.83,0,0,1,.74-3.74,3.06,3.06,0,0,1,2-2,1.34,1.34,0,0,1,1.54.73c.2.42.1.71.18.74s.32-.25.2-.87a1.65,1.65,0,0,0-.58-.94,2,2,0,0,0-1.45-.39,3.68,3.68,0,0,0-2.73,2.32,8.84,8.84,0,0,0-.92,4.18c.08,3,1.62,5.85,3.79,6.49a2.83,2.83,0,0,0,2.39-.39C345,145.79,345.05,145.45,345,145.42Z" style="fill:#975d53"></path><path d="M423.83,148.92a4.7,4.7,0,0,0-7.05,1.84,5.84,5.84,0,0,0-10.45,1.13c-.79-3.24-5.74-4.41-7.88-1.86a3.79,3.79,0,0,0-4-1.89,3.7,3.7,0,0,0-5.82-3.66,6,6,0,0,0-8.8-2,3.34,3.34,0,0,0-6.45-.18,5.43,5.43,0,0,0-6.15-2,3.62,3.62,0,0,0-4.28-3.6c.64-1.82-2-2.82-3.32-4.24-.58-.63-.93-1.46-1.56-2s-1.79-.77-2.27-.06a3.1,3.1,0,0,0-5.69-2.39,9.85,9.85,0,0,0-.67,2.6c-.6,2.84-2.42,6.15-.47,8.3.34.38.8.7.92,1.2.22.84-.65,1.58-.76,2.45s.74,1.84,1.1,2.79c.52,1.41-.14,3-.34,4.45s.53,3.45,2,3.39a5.27,5.27,0,0,0,1.24,6.63,5.14,5.14,0,0,0,2.57,6.94,2.65,2.65,0,0,0-.41,3.45,7.67,7.67,0,0,0,2.92,2.42,2.19,2.19,0,0,0-.72,3,5,5,0,0,0,2.82,2,2.17,2.17,0,0,1,1.26.77c.49.81-.3,1.82-.21,2.76.13,1.44,2.11,2,2.63,3.33s-.34,2.8.54,3.74c.57.61,1.54.57,2.31.89,1.37.58,1.89,2.2,2.71,3.45,1.54,2.34,4.33,3.51,7,4.37,1.36.43,2.74.83,4.12,1.18,2.77.7,5.57,1.22,8.37,1.74,1.4.26,3.12.39,3.93-.77a4.89,4.89,0,0,0,7.83-.42c2.48.84,5.17-.06,7.64-1l2.55-.92c2.54-.92,5.37-2.13,6.27-4.67a5.44,5.44,0,0,0,4.37-7.19c1.11.39,2.27-.68,2.53-1.82a10.84,10.84,0,0,0-.22-3.49c-.56-4.74,2.23-9.36,1.89-14.12-.25-3.33-2-6.73-.86-9.86a5.92,5.92,0,0,0,.6-2c0-.69-.59-1.44-1.26-1.28a3.05,3.05,0,0,0-2.82-4.24" style="fill:#263238"></path><path d="M385.69,146.09c.54,0,.42,3.65,3.46,6.35s6.94,2.44,7,2.95c0,.23-.9.68-2.54.67a9.2,9.2,0,0,1-5.82-2.26,8,8,0,0,1-2.67-5.31C385,147,385.44,146.06,385.69,146.09Z" style="fill:#fff"></path><path d="M416.1,88.47c.44-4.41-5.71-13.71-11.77-16.67-9.17-4.46-23.27-7.44-31.89-5.25-10.38,2.64-19.08,7.53-24.51,16.76s-7.68,20.11-7.67,30.82c0,3.27.25,6.69,1.92,9.5,2.06,3.47,6.14,5.73,5.83,10.44a6.47,6.47,0,0,0,1.47,4.75c2.75,3.09,6.28.36,7.95-2.43,3.56-5.95,4.13-13.16,4.62-20.08.35-4.92.68-10-.57-14.71-.69-2.6-1.84-5.06-2.38-7.69s-.38-5.59,1.31-7.68A9.24,9.24,0,0,1,361.7,85a16.09,16.09,0,0,1,16.06-2.61c8.61,3.32,23.33,8.32,27.29,5.47,5.69-4.09,6.29-5.66,6.29-5.66Z" style="fill:#263238"></path><path d="M413.7,188.8c.14.25,3.55-2.17,5.73-6.68s2.05-8.67,1.76-8.63-.67,3.89-2.78,8.13S413.46,188.55,413.7,188.8Z" style="fill:#455a64"></path><path d="M402.78,195.6c.11.26,4.08-1.65,7.53-5.72s4.75-8.27,4.47-8.33-2,3.72-5.33,7.59S402.59,195.31,402.78,195.6Z" style="fill:#455a64"></path><path d="M395.68,192.3c0,.29,2.92.49,6.08-1.12s4.76-4.08,4.51-4.23-2.11,1.77-5,3.21S395.65,192,395.68,192.3Z" style="fill:#455a64"></path><path d="M342.13,97.87c-.15.16,3.53,3,9.1,3.75s9.87-1.06,9.76-1.26c-.07-.39-4.37.8-9.61.14S342.3,97.51,342.13,97.87Z" style="fill:#fff"></path><path d="M486.61,284.18s9.26,64.12-1.83,77.68S457.05,384,414.66,375.57c-40.26-8-72.06-28.14-72.06-28.14l6.59-20.09,97.19,6-.63-42.86Z" style="fill:#cb8072"></path><path d="M463.42,348.68c-.09,0-.65-1.21-1.82-3.07A30.5,30.5,0,0,0,449,334.38c-2-.95-3.28-1.36-3.26-1.45a3.43,3.43,0,0,1,.94.21,19.29,19.29,0,0,1,2.47.91,27.59,27.59,0,0,1,12.76,11.37,19.61,19.61,0,0,1,1.18,2.35A3.86,3.86,0,0,1,463.42,348.68Z" style="fill:#6f4439"></path><polygon points="343.47 199 351.16 187.29 382.71 212.83 406.81 194.07 413.78 199 401.33 228.71 368.84 232.24 343.47 199" style="fill:#263238"></polygon><path d="M413.78,200.77s0,.06-.06.17l-.22.49c-.22.45-.51,1.08-.89,1.88l-3.42,7.05c-3,6.07-7.18,14.65-12.15,24.78l-.17.36-.23-.33L382.82,215.5l.46-.08c-.36,1.35-.82,2.77-1.34,4.18-2.27,6.08-4.93,11.75-7.47,17l-.16.33-.25-.28c-9.21-10.46-16.88-19.74-22.23-26.42-2.68-3.33-4.78-6-6.21-7.86-.69-.91-1.24-1.62-1.62-2.13l-.42-.55c-.09-.13-.13-.2-.12-.2s.06.05.16.17l.44.53,1.69,2.08c1.5,1.83,3.64,4.47,6.32,7.77,5.42,6.61,13.13,15.85,22.37,26.28l-.42.05c2.52-5.19,5.18-10.86,7.43-16.9.52-1.4,1-2.81,1.33-4.14l.14-.54.32.45c4.91,7,9.56,13.67,13.79,19.7l-.41,0,12.32-24.69c1.51-3,2.7-5.35,3.53-7l1-1.84c.1-.2.18-.35.25-.47S413.77,200.77,413.78,200.77Z" style="fill:#455a64"></path><path d="M309,225.89c-2.94,1-25.5,3.88-29.5,20.23-4.29,17.52-11,98.3-3,116.64a28.66,28.66,0,0,0,8.34,10.8,31.22,31.22,0,0,0,34.44,2.75L422.63,314l-6.57-30.91-99.22,39.43Z" style="fill:#cb8072"></path><path d="M271,312.79c1.06-.71,49.45-11.31,49.45-11.31l-9.29-89.89S277.3,218.53,273.77,250A535.16,535.16,0,0,0,271,312.79Z" style="fill:#263238"></path><path d="M455.12,261.82l-2.24-4.17,32.53-22.83,4.14,5.09s2.63,2.11-.34,4.43S439.55,279,439.55,279l-.53-5.75Z" style="fill:#e0e0e0"></path><path d="M458.66,212.61c-.51-.24-3.92-2.24-8.28,3.78a120,120,0,0,0-15.76,32.12c-4,12.88-6,26.37-3.93,29.76s8.83,1.5,10-.27,3.4-18.75,6.46-27.89c3.84-11.47,14.13-28.12,14.75-32C462.42,215,460.89,213.67,458.66,212.61Z" style="fill:#455a64"></path><circle cx="456.46" cy="217.71" r="2.2" transform="translate(-21.65 52.9) rotate(-6.48)" style="fill:#e0e0e0"></circle><path d="M487.27,239.26c.08.11-7.14,5.22-16.13,11.4s-16.34,11.1-16.43,11,7.14-5.23,16.13-11.41S487.19,239.14,487.27,239.26Z" style="fill:#263238"></path><path d="M437.93,275.26a2.35,2.35,0,1,1-1.07-3.15A2.35,2.35,0,0,1,437.93,275.26Z" style="fill:#e0e0e0"></path><path d="M437.73,273.18c.06.14-.77.64-1.82,1.21s-1.92,1-2,.87.69-.74,1.75-1.32S437.67,273.05,437.73,273.18Z" style="fill:#263238"></path><path d="M448.27,289.66a13.4,13.4,0,0,1-5.73,10.66c-6,4.26-25.29,18.48-26.12,17.43l-17.51-22.13,16-29.72A18.86,18.86,0,0,1,423,258l11.84-6a15.73,15.73,0,0,1,11.24-1.26c3.19.87,5.59,2.69,2.45,6.45-.86,1-7.43,4.38-7.43,4.38l-6.85,6.77s9.08-3.19,12.06-1.88,3.54,3.69.47,7.12a25.93,25.93,0,0,1-7.2,5.39s7.81.32,6,5.93C445.59,284.93,448.58,287.09,448.27,289.66Z" style="fill:#cb8072"></path><path d="M339.64,314.24l5.65-2.28c-1.46-.73-18.55-12.77-19.1-12.77s-1.82.91-2,3.27l-6.2-6s-5.1-.54-4.37,5.29c0,0-5.1-1.64-2.37,7.1l4.74,7.28a22.74,22.74,0,0,0,.91,7.29Z" style="fill:#cb8072"></path><path d="M339.64,314.24a2.2,2.2,0,0,1-.41.2L338,315l-4.6,1.92L317,323.62l-.21.09-.08-.22a21.15,21.15,0,0,1-.94-7.38l0,.15L311,309l0,0v0a15.4,15.4,0,0,1-.8-4.63,3.25,3.25,0,0,1,.89-2.34,2.7,2.7,0,0,1,2.5-.49l.1,0-.34.28a5.55,5.55,0,0,1,.84-4.11,3.76,3.76,0,0,1,1.75-1.2,5.39,5.39,0,0,1,2.07-.26h.08l.07.07,6.19,6-.42.16a5.56,5.56,0,0,1,.61-2.19,3.44,3.44,0,0,1,.72-.9,2.6,2.6,0,0,1,.51-.32.68.68,0,0,1,.66,0c1.32.74,2.37,1.51,3.49,2.25l6.12,4.21c3.78,2.6,6.92,4.84,9.29,6.34l.22.13-.23.09-4.22,1.64-1.09.41a2,2,0,0,1-.38.12,1.88,1.88,0,0,1,.35-.18l1.07-.46,4.18-1.76v.23c-2.46-1.48-5.59-3.66-9.4-6.23l-6.15-4.17c-1.09-.71-2.27-1.53-3.39-2.18-.15-.17-.48.06-.71.24a2.6,2.6,0,0,0-.61.77,5.07,5.07,0,0,0-.54,2l0,.52-.38-.36-6.2-6,.16.07A4,4,0,0,0,314.6,298a5,5,0,0,0-.72,3.71l.05.39-.39-.11-.07,0a2.22,2.22,0,0,0-2,.37,2.78,2.78,0,0,0-.72,2,14.65,14.65,0,0,0,.77,4.45l0-.06,4.72,7.29,0,.06v.08a21.17,21.17,0,0,0,.88,7.2l-.29-.13,16.51-6.56,4.65-1.8,1.23-.46Z" style="fill:#6f4439"></path><path d="M314.73,250.9c.14,0,1.19,10.33,2.34,23.1s2,23.13,1.82,23.15-1.19-10.33-2.34-23.1S314.59,250.91,314.73,250.9Z" style="fill:#455a64"></path><path d="M343,313a2,2,0,0,1-.42.22l-1.25.56-4.62,1.95c-3.91,1.62-9.33,3.83-15.32,6.25l-4.27,1.71-.05,0H317A16.87,16.87,0,0,0,309.8,325a17.8,17.8,0,0,0-5,3.1,22.49,22.49,0,0,0-3.46,4s0-.12.15-.34.27-.53.53-.92a16.11,16.11,0,0,1,2.56-3,17.31,17.31,0,0,1,5-3.27,17,17,0,0,1,7.38-1.42l-.11,0,4.27-1.73c6-2.41,11.43-4.57,15.37-6.1l4.69-1.8,1.28-.46A1.21,1.21,0,0,1,343,313Z" style="fill:#6f4439"></path><path d="M438.77,290a9.51,9.51,0,0,1,6.7-4.52c0,.15-1.72.69-3.56,1.95S438.89,290.05,438.77,290Z" style="fill:#6f4439"></path><path d="M434,281.85a7.63,7.63,0,0,1,2.88-2.08,7.24,7.24,0,0,1,3.41-1c0,.14-1.46.62-3.18,1.47A33.38,33.38,0,0,1,434,281.85Z" style="fill:#6f4439"></path><path d="M402.2,326.47a2.43,2.43,0,0,1-.51.37l-1.52,1-5.62,3.54L376,343.07c-7.27,4.54-14,8.44-18.92,11.09-2.48,1.33-4.5,2.37-5.91,3l-1.63.78a3.8,3.8,0,0,1-.59.24,3.39,3.39,0,0,1,.54-.34l1.59-.86c1.38-.74,3.37-1.83,5.82-3.19,4.9-2.73,11.56-6.68,18.82-11.21S389.56,334,394.36,331c2.39-1.45,4.34-2.62,5.7-3.4l1.58-.89A2.47,2.47,0,0,1,402.2,326.47Z" style="fill:#6f4439"></path></g><g id="freepik--character-1--inject-129"><path d="M139.79,221.82s-21,1.18-34,16.72C98,248,64.73,287,66.26,287.46s42.5,20.45,42.5,20.45C108.76,306.42,139.79,221.82,139.79,221.82Z" style="fill:#263238"></path><path d="M104.67,260.28c.78,1.46-8.23,110.66-8.61,111.75s-6,60.16-4.12,61.25,135.56,2.29,135.56,2.29l4.1-131.72L243,226.64l-35.1-11.06-68.32,6.77Z" style="fill:#263238"></path><path d="M108.22,272.58h97.54L216.4,419.33s11.41,6.17,11.33,8.79,5.59,41.11,5.59,41.11H85.16l16.47-156.36Z" style="fill:#FF725E"></path><path d="M110.27,275.27s.71-44.38,25.86-53a17.68,17.68,0,0,1,7.64-.73s-24.37,16.08-23.47,53.72Z" style="fill:#FF725E"></path><path d="M191.23,278.74s10.35-47.1,35.5-55.71l6.88,2.17s-30.14,21-31.29,53.25Z" style="fill:#FF725E"></path><path d="M202.79,273.11a4.77,4.77,0,0,1,0,1c-.06.75-.13,1.7-.22,2.84-.2,2.43-.52,5.84-.91,9.79l0,.23h-5.55l-6.23,0h-.31l.07-.29c.76-3.59,1.43-6.69,1.92-9l.6-2.59a3.93,3.93,0,0,1,.27-.91,4,4,0,0,1-.11.95c-.12.69-.27,1.56-.46,2.61-.45,2.32-1,5.44-1.74,9l-.24-.3h11.55l-.25.22c.42-3.94.81-7.35,1.1-9.77.14-1.14.26-2.08.36-2.83A4.31,4.31,0,0,1,202.79,273.11Z" style="fill:#263238"></path><path d="M198.39,281.35a2.62,2.62,0,1,1-2.62-2.61A2.62,2.62,0,0,1,198.39,281.35Z" style="fill:#263238"></path><path d="M130.25,293.69c0,.33,2,7.08,12.09,5.83,12-1.48,10.24-9.75,8.72-12.06a6.12,6.12,0,0,0-7.48-1.74c-3.6,1.59-5.51,7.24-8.13,8.06A9.06,9.06,0,0,1,130.25,293.69Z" style="fill:#fff"></path><path d="M133.3,297.81c-3.3-2.15-3.94-6.38-3.05-8.35a5.44,5.44,0,0,0,3.14,4.19,4.5,4.5,0,0,0,4.77-1l-2.55,5.11Z" style="fill:#fff"></path><path d="M171.76,291.63c0,.32-1.14,7.71-11.3,7.22-12-.59-10.79-9-9.41-11.39a6.18,6.18,0,0,1,7.36-2.29c3.69,1.32,5.92,6.81,8.59,7.44A6.16,6.16,0,0,0,171.76,291.63Z" style="fill:#fff"></path><path d="M169,296.48c3.17-2.4,3.56-6.66,2.56-8.56a5.55,5.55,0,0,1-2.89,4.41,4.45,4.45,0,0,1-4.81-.67l2.83,4.91Z" style="fill:#fff"></path><path d="M180.94,94.92l-2,0A39.44,39.44,0,0,0,140.32,132c-1.15,19.09-2.18,40.19-1.85,50.41.69,21.16,21.93,24,21.93,24l-1.27,25.47L177.92,248l25.47-19.28L213.14,137C214.59,115,203,95.76,180.94,94.92Z" style="fill:#ffbf9d"></path><path d="M160.4,206.45s13.36.52,27.4-8.7c0,0-6.5,15.43-27.66,13.95Z" style="fill:#ff9a6c"></path><path d="M142.16,122.27s5.31-13.36,11.64-16.59c7.66-3.9,11.17,4.53,18.5,2.32s4.68,5,15.5,2c7.51-2.12,3.93,8.64,7.63,16.15,3.54,7.21,8.11,11.15,8.49,14.33,3.53,29.73,1.06,21.8,7.6,17.76,1.68-1,5.6-3.65,6.24-12,.83-10.79,1-23.87-1.58-31.46-2.16-6.4-5.92-10.77-12.6-15.54C193,91.69,178.75,91.82,169.08,93S140.94,105.7,142.16,122.27Z" style="fill:#455a64"></path><path d="M191.59,110.5c-2.24-5.73-4.58-11.5-8.08-16.56s-8.32-9.44-14.18-11.34-12.82-1-17.3,3.26a14.7,14.7,0,0,1-2.7,2.35,10.55,10.55,0,0,1-2.71.91,29.34,29.34,0,0,0-12.48,6.31,18.74,18.74,0,0,0-6.35,12.22,13.8,13.8,0,0,0,5.56,12.29c.86,4.79,2.8,9.56,7,12.08,1.34-5.64,4.31-11.55,6.75-16.81,1.25-2.7,2.75-5.45,5.22-7.12a11.74,11.74,0,0,1,9-1.38,25.83,25.83,0,0,1,8.43,3.92c2.11,1.4,4.25,3,6.76,3.34,5,.76,9.43-3.39,14.42-4.31" style="fill:#263238"></path><path d="M210.16,157.64a5.74,5.74,0,0,1,6.09-5.66c3.95.29,8.39,2.44,8.3,10.61-.17,14.48-14.67,11.32-14.69,10.9S210,163.7,210.16,157.64Z" style="fill:#ffbf9d"></path><path d="M213.07,168.08c.06,0,.25.18.67.38a2.48,2.48,0,0,0,1.89.06c1.54-.54,2.85-3,3-5.56a8.42,8.42,0,0,0-.66-3.62,2.92,2.92,0,0,0-1.88-2,1.28,1.28,0,0,0-1.49.67c-.2.41-.11.7-.19.72s-.31-.25-.19-.84a1.61,1.61,0,0,1,.59-.9,1.85,1.85,0,0,1,1.39-.35,3.5,3.5,0,0,1,2.61,2.27,8.57,8.57,0,0,1,.83,4.05c-.13,2.91-1.65,5.63-3.75,6.21a2.73,2.73,0,0,1-2.3-.41C213.09,168.43,213,168.11,213.07,168.08Z" style="fill:#ff9a6c"></path><path d="M148.53,151.89a3,3,0,0,0,3,3,2.9,2.9,0,0,0,3-2.82,3,3,0,0,0-3-3A2.9,2.9,0,0,0,148.53,151.89Z" style="fill:#263238"></path><path d="M143.16,142.08c.39.38,2.62-1.38,5.87-1.47s5.67,1.46,6,1c.17-.18-.23-.88-1.29-1.61a8.31,8.31,0,0,0-4.83-1.32,8,8,0,0,0-4.66,1.66C143.29,141.18,143,141.91,143.16,142.08Z" style="fill:#263238"></path><path d="M177.92,151.89a3,3,0,0,0,3,3,2.89,2.89,0,0,0,3-2.82,3,3,0,0,0-3-2.95A2.89,2.89,0,0,0,177.92,151.89Z" style="fill:#263238"></path><path d="M175,141.85c.39.38,2.63-1.38,5.87-1.47s5.67,1.46,6,1.05c.17-.18-.23-.88-1.29-1.6a8.31,8.31,0,0,0-4.83-1.33,8,8,0,0,0-4.66,1.66C175.13,141,174.82,141.68,175,141.85Z" style="fill:#263238"></path><path d="M164.13,167.15c0-.19-2-.47-5.3-.79-.83-.06-1.62-.2-1.78-.76a4.3,4.3,0,0,1,.48-2.48c.71-2,1.47-4.15,2.25-6.38,3.13-9.09,5.37-16.56,5-16.68s-3.2,7.15-6.33,16.24c-.75,2.24-1.47,4.37-2.15,6.42A4.82,4.82,0,0,0,156,166a2.05,2.05,0,0,0,1.4,1.17,5.87,5.87,0,0,0,1.42.16C162.08,167.38,164.12,167.33,164.13,167.15Z" style="fill:#263238"></path><path d="M172.77,130.7c.4.85,3.59.12,7.42.21s7,.84,7.43,0c.19-.4-.42-1.17-1.74-1.91a12.29,12.29,0,0,0-5.64-1.38,12.44,12.44,0,0,0-5.68,1.22C173.22,129.54,172.59,130.29,172.77,130.7Z" style="fill:#263238"></path><path d="M144.89,130c.49.82,3,.39,5.81.76s5.17,1.24,5.83.56c.29-.34,0-1.13-.93-2a9,9,0,0,0-9.38-1.06C145.11,128.86,144.67,129.57,144.89,130Z" style="fill:#263238"></path><path d="M147.19,111.88c-.11-.09,1.3-2.13,4.09-5a47.18,47.18,0,0,1,5.22-4.7,15.22,15.22,0,0,1,8-3.34,9.9,9.9,0,0,1,8.19,2.88,13.7,13.7,0,0,1,3.25,6.34,26.56,26.56,0,0,1,.66,4.69,5.36,5.36,0,0,1,0,1.74c-.21,0-.36-2.46-1.36-6.24A13.67,13.67,0,0,0,172,102.4a9,9,0,0,0-7.41-2.51,14.75,14.75,0,0,0-7.55,3.06,57.36,57.36,0,0,0-5.27,4.46C148.91,110.11,147.31,112,147.19,111.88Z" style="fill:#455a64"></path><path d="M185,89.72c.14-.21,3.88,3.29,5.64,9.18s.65,10.86.42,10.76.32-4.87-1.43-10.46S184.69,89.92,185,89.72Z" style="fill:#455a64"></path><path d="M186.76,109.66c-10,3.36-6.91-15.36-13-23.92a5.79,5.79,0,0,1-1-1.84,3.74,3.74,0,0,1,1.6-3.77,8,8,0,0,1,4.11-1.28,20.11,20.11,0,0,1,18.17,8.94c2.64-3.42,8.25-3,11.63-.34s5.1,6.91,6.67,10.93c1,2.48,1.92,5.39.57,7.69-1,1.74-3.07,2.56-5,3.14A48.13,48.13,0,0,1,191.74,111,4.26,4.26,0,0,0,186.76,109.66Z" style="fill:#263238"></path><path d="M176.52,170.59c-.53-.15-1.62,2.48-4.42,4.15s-5.68,1.5-5.78,2c0,.24.64.66,1.92.77a8.32,8.32,0,0,0,4.88-1.2,8,8,0,0,0,3.26-3.73C176.84,171.43,176.77,170.64,176.52,170.59Z" style="fill:#263238"></path><polygon points="147.56 221.3 159.24 211.8 169.62 230.02 206.41 205.97 215.61 220.15 206.38 231.28 172.49 257.28 150.22 235.29 147.56 221.3" style="fill:#263238"></polygon><path d="M106.53,258.51c.14,0-1.18,15-2.94,33.55s-3.32,33.51-3.46,33.5,1.17-15,2.94-33.55S106.39,258.5,106.53,258.51Z" style="fill:#455a64"></path><path d="M220.32,258.7c.14.05-3.84,11.4-8.87,25.36s-9.23,25.23-9.37,25.18,3.84-11.4,8.88-25.36S220.19,258.65,220.32,258.7Z" style="fill:#455a64"></path><path d="M214.46,222.75a.69.69,0,0,1-.17.15l-.52.4-2,1.51-7.58,5.61c-6.41,4.82-15.26,11.7-25,20l-.23.2-.16-.26a93.92,93.92,0,0,1-4.58-9,96.7,96.7,0,0,0-4.8-9.55l.42,0a87.68,87.68,0,0,1-6.49,7.52,79.07,79.07,0,0,0-5.85,6.79l-.24.33-.14-.38c-2.72-7.1-5-13-6.57-17.16-.76-2.05-1.37-3.66-1.8-4.81-.19-.53-.34-.95-.46-1.26a2,2,0,0,1-.13-.45,2.63,2.63,0,0,1,.2.42l.51,1.25,1.92,4.75c1.63,4.16,3.95,10,6.74,17.1l-.38-.05A78.45,78.45,0,0,1,163,239a89.19,89.19,0,0,0,6.44-7.49l.23-.31.2.33a97.6,97.6,0,0,1,4.84,9.59,93,93,0,0,0,4.54,9l-.38-.07c9.75-8.25,18.64-15.09,25.11-19.84,3.24-2.37,5.86-4.23,7.67-5.49l2.09-1.44c.23-.14.41-.26.55-.36Z" style="fill:#455a64"></path><path d="M159.24,433.06l3.06,36.17h73.35c-.17-12.36-9.55-51.46-9.55-51.46Z" style="fill:#455a64"></path><polygon points="93.39 392.73 227.7 414.75 230.95 451.87 91.3 416.89 93.39 392.73" style="fill:#455a64"></polygon><path d="M211,419.79a35.25,35.25,0,0,1-4.67,10.54,30.09,30.09,0,0,0,3.8-10.82c-.54-.16-1.17-.31-1.86-.45A43.2,43.2,0,0,1,204,431.2a45.37,45.37,0,0,0,3.19-12.32,31.09,31.09,0,0,0-3.1-.3,32.87,32.87,0,0,1-1.72,12.62,59.07,59.07,0,0,0,.74-12.65l-1,0c-.65,0-1.26,0-1.84.05.31,4.91.82,10.34.82,10.34a77.92,77.92,0,0,1-1.68-10.29c-.78.05-1.5.13-2.16.22a45.84,45.84,0,0,0,3.19,12.35A43.09,43.09,0,0,1,196.16,419c-.69.13-1.31.28-1.86.43a30.09,30.09,0,0,0,3.8,10.87,35.34,35.34,0,0,1-4.68-10.6,8.19,8.19,0,0,0-2.6,1.3c1.17,10.22,6.83,15.3,6.83,15.3h8.92s5.66-5.08,6.83-15.3A7.84,7.84,0,0,0,211,419.79Z" style="fill:#263238"></path><path d="M197.26,451.57H207s3.59-6.52,3.26-10.54-3-5.2-8.07-5.22h-.08c-5.06,0-7.75,1.22-8.07,5.22S197.26,451.57,197.26,451.57Z" style="fill:#FF725E"></path><path d="M236.65,406l-7.16-1.09,6.62,2.76,0,.13-6.8-2.2-.21.62,6.81,2.21-.2.62-6.81-2.2-.2.62,6.81,2.21-.2.62-6.81-2.2-.2.62,6.81,2.21-.2.62-6.82-2.2-.2.62,6.82,2.21-.2.62-6.82-2.21-.2.63,6.82,2.21-.2.62-6.82-2.21-.21.63,6.83,2.21-.2.62-6.83-2.21-.2.63,6.83,2.21-.2.62-6.83-2.21-.2.62,6.83,2.22-.2.62L226,415.59l-.2.62,6.84,2.22-.2.62-6.84-2.21-.2.62,6.84,2.22-.2.62-6.85-2.21-.2.62,6.85,2.22-.2.62-6.85-2.22-.2.63,6.85,2.22-.2.62-6.85-2.22-.21.63,6.86,2.22-.2.62L224,421.83l-.2.63,6.86,2.22-.2.62-6.86-2.22-.2.62,6.86,2.23-.2.62-6.87-2.22-.2.62,6.87,2.23-.2.62-6.87-2.22-.2.62,6.88,2.23-.2.62-6.88-2.22-.21.62,6.89,2.23-.2.62L222,428.07l-.2.63,6.89,2.23-.2.62-6.89-2.23-.21.63,6.9,2.23-.2.62-6.9-2.23-.2.63,6.9,2.23-.2.62-6.9-2.23-.2.62,6.9,2.24-.2.62-6.91-2.23-.2.62,6.91,2.24-.2.62L220,434.32l-.2.62,6.91,2.24-.2.62-6.91-2.23-.21.62,6.92,2.24-.2.62-6.92-2.23-.2.62,6.92,2.24-.2.62-6.92-2.24-.21.63,6.93,2.24-.2.63-6.93-2.25-.2.63,6.93,2.24-.2.63L218,440.56l-.2.63,6.93,2.24-.11.36-6.94-2.25s5.86,5.58,5.19,7.66-7.86,18.88-6.2,19.42a8.58,8.58,0,0,0,4.57-4.47c9.94-20,17.52-54.1,17.52-54.1A2.77,2.77,0,0,0,236.65,406Z" style="fill:#263238"></path><path d="M228.91,448.16c-28.2,3.29-45.84.12-65.28-5.79,0,0-2.15,15.77,4.29,26.86l63-.55C231,460.05,228.91,448.16,228.91,448.16Z" style="fill:#455a64"></path><path d="M186.57,442.75c-1.52-6.42-3.12-12.47-6-18.4a13.18,13.18,0,0,0-2.9-3.55,3.79,3.79,0,0,0-3.78-.88c-1.65.66-2.28,2.63-2.59,4.38-1.07,6-.56,12.69-.09,19.86,4.45,2.18,10.1,3.41,16.32,4.2C187.49,447.67,186.73,443.42,186.57,442.75Z" style="fill:#FF725E"></path><path d="M230.28,447.25a11.8,11.8,0,0,1-2.54.75c-1.65.42-4.07.89-7.08,1.35a108.72,108.72,0,0,1-47.11-3.48c-2.91-.9-5.23-1.72-6.8-2.38a11.3,11.3,0,0,1-2.4-1.12c.08-.19,3.6,1.11,9.44,2.68a123.76,123.76,0,0,0,46.76,3.45C226.56,447.81,230.23,447.05,230.28,447.25Z" style="fill:#263238"></path><path d="M107.85,223.88s-9.63,16.19-14.07,17.86h0a10.13,10.13,0,0,0-8,6.2c-1.84,4.12-1.06,8.63,1.63,11.12a6.4,6.4,0,0,1-6.1,3.58c-1.38-.15-1.73,2-.35,2.13a8.58,8.58,0,0,0,8.24-4.5l.13.07c4.19,1.87,9.39-.64,11.61-5.62a10.47,10.47,0,0,0,0-8.91h0a9.42,9.42,0,0,1-.18-6.13c1.09-3.1,9-14.33,9-14.33ZM96.51,244.26c3.29,1.47,4.54,5.83,2.79,9.74s-5.83,5.89-9.13,4.42-4.54-5.83-2.79-9.74S93.21,242.79,96.51,244.26Z" style="fill:#e0e0e0"></path><path d="M113.24,224.76l-2.31.79s4,13.17,4,16.45a9.46,9.46,0,0,1-2.13,5.76h0a10.46,10.46,0,0,0-2.81,8.45c.53,5.43,4.66,9.47,9.22,9s7.84-5.2,7.31-10.62a10.11,10.11,0,0,0-5.64-8.44h0C117.23,243.17,113.24,224.76,113.24,224.76Zm4.29,22.93c3.58-.35,6.83,2.83,7.24,7.09s-2.16,8-5.74,8.35-6.84-2.82-7.25-7.09S113.94,248,117.53,247.69Z" style="fill:#e0e0e0"></path><path d="M119.36,169.13c4.69.77-5.52,56.59-5.52,56.59l-2.12,2.51-3.52-.58-1.59-3.11S114.67,168.37,119.36,169.13Z" style="fill:#e0e0e0"></path><path d="M109.21,221.21a1.77,1.77,0,1,0,2-1.46A1.78,1.78,0,0,0,109.21,221.21Z" style="fill:#fff"></path><path d="M56.93,203.08l7.94-3.2-6.86,5,.08.14,7.22-4.38.4.66-7.22,4.38.4.66,7.22-4.38.41.67L59.29,207l.4.66,7.23-4.38.4.66-7.23,4.39.4.66,7.23-4.39.4.67-7.23,4.39.4.66,7.24-4.39.4.66L61.68,211l.4.66,7.25-4.39.4.66-7.25,4.4.4.66,7.25-4.4.41.67-7.26,4.39.4.67,7.26-4.4.4.66L64.08,215l.4.67,7.26-4.41.4.67-7.26,4.4.4.67,7.27-4.41.4.66-7.27,4.41.4.67,7.27-4.41.4.66-7.27,4.41.4.67,7.27-4.42.41.67-7.28,4.41.4.66L75,216.52l.4.66-7.28,4.42.4.66,7.28-4.41.41.66-7.29,4.42.4.66,7.29-4.42.4.66-7.29,4.43.4.66,7.29-4.42.4.66-7.3,4.43.4.66,7.31-4.43.4.67-7.31,4.43.4.66L79,223.15l.4.66-7.31,4.43.4.67,7.31-4.43.41.66-7.32,4.43.4.67,7.32-4.44.4.66-7.32,4.44.4.67,7.32-4.44.4.66-7.32,4.44.4.67,7.33-4.45.4.67-7.33,4.44.4.67L83,229.78l.4.66-7.33,4.45.4.67,7.33-4.45.41.66-7.34,4.45.4.66,7.34-4.45.4.66-7.34,4.46.4.66,7.34-4.45.41.66-7.35,4.46.39.66,7.36-4.46.4.67-7.36,4.46.4.66L87,236.41l.4.66-7.36,4.47.4.66,7.37-4.46.4.66-7.37,4.47.23.37,7.37-4.46s-5.23,8-3.89,10.21,22.4,37.6,20.64,38.67h0s-1,.63-14.71-21.91L55.66,208.29S53.07,205,56.93,203.08Z" style="fill:#263238"></path><path d="M98.41,308.16s76.58,81.68,98.2,86.13,28.53-2.19,35-21,31.54-101,31.54-101l-44.07-8.4L196.8,339.72,121,293Z" style="fill:#ffbf9d"></path><path d="M81.6,266.67a13.47,13.47,0,0,0,0,12.19c3.27,6.62,15.58,29.83,16.81,29.3s24.13-12.67,24.13-12.67l-2.78-38.35-8.85-18.22a13.58,13.58,0,0,0-6.45-5c-3.91-1.43-8.85-2.18-7.62,3.84.27,1.32,4.5,7.42,4.5,7.42l2.85,9.28s-6.53-7.16-9.8-7.43-4.9,1.6-3.81,6.1a26.09,26.09,0,0,0,3.81,8.22s-7.07-3.45-8.16,2.38C86.23,263.75,82.55,264.24,81.6,266.67Z" style="fill:#ffbf9d"></path><path d="M240.17,226.38s14.33,0,23.66,21.18c7.92,18-9.08,81.83-9.08,81.83L200.7,311l24-66.71Z" style="fill:#263238"></path><path d="M91.72,299a14.72,14.72,0,0,1,1.41,2.07c.83,1.3,2,3.07,3.39,5s2.67,3.6,3.62,4.81a14,14,0,0,1,1.49,2,10.47,10.47,0,0,1-1.77-1.78,59.35,59.35,0,0,1-3.77-4.75,55.59,55.59,0,0,1-3.28-5.09A10,10,0,0,1,91.72,299Z" style="fill:#ff9a6c"></path><path d="M71,289.63c-.59-.83-18.92,40.9-13.82,54.3s31.3,21.53,65.68,28c31.81,6,46.79,6.31,46.79,6.31L156.51,352.4l-59.8-27.35L104.65,304Z" style="fill:#ffbf9d"></path><path d="M90.12,295s.06.07.15.22l.41.67,1.59,2.59c1.42,2.25,3.53,5.51,6.28,9.55l0,0c8.39,8.55,21.36,21.67,36.13,36.08C147.83,357,160,368.35,169.12,376.19c4.57,3.92,8.39,6.95,11.15,8.87.68.5,1.31.9,1.86,1.24s1,.65,1.4.84l.89.48.3.18a1.48,1.48,0,0,1-.32-.13l-.92-.43a15.78,15.78,0,0,1-1.43-.81c-.56-.32-1.2-.72-1.89-1.2a138,138,0,0,1-11.28-8.76c-9.22-7.78-21.41-19.14-34.58-32-14.78-14.41-27.7-27.58-36-36.22h0c-2.71-4.08-4.78-7.36-6.15-9.64-.69-1.14-1.19-2-1.52-2.64l-.37-.7C90.15,295.11,90.12,295,90.12,295Z" style="fill:#ff9a6c"></path><path d="M208.55,363.63c-.13.07-2.87-5.17-6.13-11.7s-5.8-11.86-5.67-11.93,2.87,5.17,6.13,11.7S208.68,363.57,208.55,363.63Z" style="fill:#ff9a6c"></path></g></svg>
