<svg xmlns="http://www.w3.org/2000/svg" viewBox="0 0 500 500"><g id="freepik--background-simple--inject-203"><path d="M495.78,246c-5.36,45.37-26.07,98.12-67.44,122.35C365.83,405,371.06,461.3,249.05,485.78a250.64,250.64,0,0,1-54.1,5.11,208.4,208.4,0,0,1-26.55-2.16C90.86,477.4,38.67,423.5,19.53,358.43-5.67,272.86,44.64,216.84,78,183.09S135.75,44.16,255.51,19.15a243.2,243.2,0,0,1,55.6-5.29c42.6,1.05,89.08,15,121.24,44.24q3.61,3.3,7,6.82C484.1,110.79,503.09,184.15,495.78,246Z" style="fill:#92E3A9"></path><path d="M495.78,246c-5.36,45.37-26.07,98.12-67.44,122.35C365.83,405,371.06,461.3,249.05,485.78a250.64,250.64,0,0,1-54.1,5.11,208.4,208.4,0,0,1-26.55-2.16C90.86,477.4,38.67,423.5,19.53,358.43-5.67,272.86,44.64,216.84,78,183.09S135.75,44.16,255.51,19.15a243.2,243.2,0,0,1,55.6-5.29c42.6,1.05,89.08,15,121.24,44.24q3.61,3.3,7,6.82C484.1,110.79,503.09,184.15,495.78,246Z" style="fill:#fff;opacity:0.7000000000000001"></path></g><g id="freepik--Floor--inject-203"><line x1="493.75" y1="440.29" x2="6.18" y2="440.29" style="fill:none;stroke:#263238;stroke-linecap:round;stroke-linejoin:round"></line></g><g id="freepik--Furniture--inject-203"><rect x="291.12" y="256.4" width="195.26" height="6.8" style="fill:none;stroke:#263238;stroke-linecap:round;stroke-linejoin:round"></rect><rect x="296.28" y="263.26" width="184.94" height="177.03" style="fill:none;stroke:#263238;stroke-linecap:round;stroke-linejoin:round"></rect><rect x="307.59" y="276.88" width="164" height="45.52" style="fill:none;stroke:#263238;stroke-linecap:round;stroke-linejoin:round"></rect><rect x="307.59" y="328.24" width="164" height="45.52" style="fill:none;stroke:#263238;stroke-linecap:round;stroke-linejoin:round"></rect><rect x="307.59" y="379.6" width="164" height="45.52" style="fill:none;stroke:#263238;stroke-linecap:round;stroke-linejoin:round"></rect></g><g id="freepik--Pictures--inject-203"><rect x="366.88" y="45.6" width="49.38" height="59.12" style="fill:none;stroke:#263238;stroke-linecap:round;stroke-linejoin:round"></rect><rect x="371.79" y="51.48" width="39.56" height="47.37" style="fill:none;stroke:#263238;stroke-linecap:round;stroke-linejoin:round"></rect><rect x="372.69" y="164.49" width="41.66" height="49.89" transform="translate(204.08 582.95) rotate(-90)" style="fill:none;stroke:#263238;stroke-linecap:round;stroke-linejoin:round"></rect><rect x="376.83" y="169.45" width="33.38" height="39.97" transform="translate(204.08 582.95) rotate(-90)" style="fill:none;stroke:#263238;stroke-linecap:round;stroke-linejoin:round"></rect><rect x="422.75" y="90.43" width="34.73" height="41.58" style="fill:none;stroke:#263238;stroke-linecap:round;stroke-linejoin:round"></rect><rect x="426.2" y="94.56" width="27.82" height="33.32" style="fill:none;stroke:#263238;stroke-linecap:round;stroke-linejoin:round"></rect><rect x="325.95" y="90.43" width="34.73" height="41.58" style="fill:none;stroke:#263238;stroke-linecap:round;stroke-linejoin:round"></rect><rect x="329.4" y="94.56" width="27.82" height="33.32" style="fill:none;stroke:#263238;stroke-linecap:round;stroke-linejoin:round"></rect><rect x="374.68" y="116.42" width="34.73" height="41.58" style="fill:none;stroke:#263238;stroke-linecap:round;stroke-linejoin:round"></rect><rect x="378.13" y="120.55" width="27.82" height="33.32" style="fill:none;stroke:#263238;stroke-linecap:round;stroke-linejoin:round"></rect><rect x="423.96" y="141.52" width="34.73" height="41.58" style="fill:none;stroke:#263238;stroke-linecap:round;stroke-linejoin:round"></rect><rect x="427.41" y="145.65" width="27.82" height="33.32" style="fill:none;stroke:#263238;stroke-linecap:round;stroke-linejoin:round"></rect><rect x="327.25" y="141.11" width="34.73" height="41.58" style="fill:none;stroke:#263238;stroke-linecap:round;stroke-linejoin:round"></rect><rect x="330.7" y="145.24" width="27.82" height="33.32" style="fill:none;stroke:#263238;stroke-linecap:round;stroke-linejoin:round"></rect></g><g id="freepik--Mirror--inject-203"><rect x="96.25" y="49.74" width="156.58" height="274.61" style="fill:none;stroke:#263238;stroke-linecap:round;stroke-linejoin:round"></rect><line x1="124.6" y1="88.49" x2="178.7" y2="142.59" style="fill:none;stroke:#263238;stroke-linecap:round;stroke-linejoin:round"></line><line x1="158.67" y1="138.1" x2="177.8" y2="157.23" style="fill:none;stroke:#263238;stroke-linecap:round;stroke-linejoin:round"></line><line x1="103.68" y1="199.07" x2="166.44" y2="261.83" style="fill:none;stroke:#263238;stroke-linecap:round;stroke-linejoin:round"></line><line x1="118.03" y1="249.88" x2="122.21" y2="254.06" style="fill:none;stroke:#263238;stroke-linecap:round;stroke-linejoin:round"></line><line x1="107.87" y1="74.15" x2="116.23" y2="82.52" style="fill:none;stroke:#263238;stroke-linecap:round;stroke-linejoin:round"></line></g><g id="freepik--Plant--inject-203"><path d="M34.69,294.64s-2.45,6.73-7.65,7.65-14.37-9.18-8.56-14.38S32.24,291,34.69,294.64Z" style="fill:#92E3A9;stroke:#263238;stroke-linecap:round;stroke-linejoin:round;stroke-width:0.75px"></path><path d="M42.64,261.61S35,280.27,38.05,289.44s22,15.9,27.53,4S58.85,264.67,54.26,261,44.17,258.55,42.64,261.61Z" style="fill:#92E3A9;stroke:#263238;stroke-linecap:round;stroke-linejoin:round;stroke-width:0.75px"></path><path d="M87.29,269.56s-13.15,11.93-14.68,23.86S80,309.63,89.13,308.1s13.76-24.78,11-35.48S87.29,269.56,87.29,269.56Z" style="fill:#92E3A9;stroke:#263238;stroke-linecap:round;stroke-linejoin:round;stroke-width:0.75px"></path><path d="M89.74,335.62s-14.68.61-15.29,7.65,6.42,8.56,13.45,2.44S95.86,335.93,89.74,335.62Z" style="fill:#92E3A9;stroke:#263238;stroke-linecap:round;stroke-linejoin:round;stroke-width:0.75px"></path><path d="M74.69,344.94s11.57-5.29,16.78-6.21" style="fill:none;stroke:#263238;stroke-miterlimit:10;stroke-width:0.75px"></path><path d="M93,381.65s-10.78-10-16.2-5.46-1.55,10.6,7.75,11.27S97.11,386.2,93,381.65Z" style="fill:#92E3A9;stroke:#263238;stroke-linecap:round;stroke-linejoin:round;stroke-width:0.75px"></path><path d="M75.79,377.55S87.7,382,92,385.07" style="fill:none;stroke:#263238;stroke-miterlimit:10;stroke-width:0.75px"></path><path d="M36.13,378.71S51,365,58.47,371.19s2.13,14.6-10.69,15.53S30.49,385,36.13,378.71Z" style="fill:#92E3A9;stroke:#263238;stroke-linecap:round;stroke-linejoin:round;stroke-width:0.75px"></path><path d="M59.87,373.06s-16.42,6.16-22.38,10.36" style="fill:none;stroke:#263238;stroke-miterlimit:10;stroke-width:0.75px"></path><path d="M53.35,350.3s-1.53,7.34-7,10.09S31,357.34,36.22,348.47,50.59,346.63,53.35,350.3Z" style="fill:#92E3A9;stroke:#263238;stroke-linecap:round;stroke-linejoin:round;stroke-width:0.75px"></path><path d="M40.5,327.36s-2.75-6.11-13.46-2.14-15,10.1-8.25,12.24S40.5,327.36,40.5,327.36Z" style="fill:#92E3A9;stroke:#263238;stroke-linecap:round;stroke-linejoin:round;stroke-width:0.75px"></path><path d="M38.45,327.09S27.11,328.31,21,333.52" style="fill:none;stroke:#263238;stroke-miterlimit:10;stroke-width:0.75px"></path><path d="M71.08,254s1.84,4.29,5.51,3.37,4.59-6.42,10.4-4.9,10.7,8.26,10.7,5.2-7.34-11-15.6-11S71.39,250,71.08,254Z" style="fill:#92E3A9;stroke:#263238;stroke-linecap:round;stroke-linejoin:round;stroke-width:0.75px"></path><path d="M40.5,327.36s13.17-2.52,18.65,12.1a40.2,40.2,0,0,1,1.38,4.48" style="fill:none;stroke:#263238;stroke-miterlimit:10;stroke-width:0.75px"></path><path d="M95.46,313.2s2.75-6.12,13.46-2.14,15,10.09,8.26,12.23S95.46,313.2,95.46,313.2Z" style="fill:#92E3A9;stroke:#263238;stroke-linecap:round;stroke-linejoin:round;stroke-width:0.75px"></path><path d="M97.91,313.6s11-.61,16.24,5.82" style="fill:none;stroke:#263238;stroke-miterlimit:10;stroke-width:0.75px"></path><path d="M95.46,313.2a17,17,0,0,0-9.12,1.24" style="fill:none;stroke:#263238;stroke-miterlimit:10;stroke-width:0.75px"></path><path d="M47.52,302.23c-6.45-6.59-12.83-7.59-12.83-7.59s-9.42-2.49-13.1.88" style="fill:none;stroke:#263238;stroke-miterlimit:10;stroke-width:0.75px"></path><line x1="48.83" y1="268.35" x2="48.26" y2="265.79" style="fill:none;stroke:#263238;stroke-miterlimit:10;stroke-width:0.75px"></line><path d="M63.72,403.55s1.37-52.66,0-68.66S56,300.16,56,300.16l-6.51-29.1" style="fill:none;stroke:#263238;stroke-miterlimit:10;stroke-width:0.75px"></path><line x1="90.91" y1="279.66" x2="92.08" y2="277.13" style="fill:none;stroke:#263238;stroke-miterlimit:10;stroke-width:0.75px"></line><path d="M66.92,403.5s.46-48,2.29-61.75,9.14-35.19,9.14-35.19l11.22-24" style="fill:none;stroke:#263238;stroke-miterlimit:10;stroke-width:0.75px"></path><path d="M74.69,344.94s-3.2,27.55-5,58.62" style="fill:none;stroke:#263238;stroke-miterlimit:10;stroke-width:0.75px"></path><path d="M59.15,403.5s.92-43.93-.91-49.87-4.89-3.33-4.89-3.33-8.46,1-11.53,5.9" style="fill:none;stroke:#263238;stroke-miterlimit:10;stroke-width:0.75px"></path><path d="M61.25,347.36c2.39,13.39.19,56.18.19,56.18" style="fill:none;stroke:#263238;stroke-miterlimit:10;stroke-width:0.75px"></path><path d="M83.75,315.88a19.05,19.05,0,0,0-6.94,9.41C71.32,339.92,72,403.56,72,403.56" style="fill:none;stroke:#263238;stroke-miterlimit:10;stroke-width:0.75px"></path><path d="M49.11,304a43.14,43.14,0,0,1,7.76,14c7.31,21,10.05,75.46,8.68,85.52" style="fill:none;stroke:#263238;stroke-miterlimit:10;stroke-width:0.75px"></path><path d="M67.68,323.64c-.44,26.53-.76,79.86-.76,79.86" style="fill:none;stroke:#263238;stroke-miterlimit:10;stroke-width:0.75px"></path><path d="M67.74,320.34c.3-17.54.66-34.71,1-43.94.91-23.77,2.33-22.44,2.33-22.44s1.7-5.33,11.2-4.72" style="fill:none;stroke:#263238;stroke-miterlimit:10;stroke-width:0.75px"></path><path d="M56,340.38s-7.65-6.82-4.59-10.18,22-5.81,27.52-1.45-6.73,10.51-11.31,11.85S57.56,341.49,56,340.38Z" style="fill:#92E3A9;stroke:#263238;stroke-linecap:round;stroke-linejoin:round;stroke-width:0.75px"></path><path d="M63.1,334.79a13.06,13.06,0,0,0-.17,2" style="fill:none;stroke:#263238;stroke-miterlimit:10;stroke-width:0.75px"></path><path d="M65.73,326.83a35,35,0,0,0-2,5.07" style="fill:none;stroke:#263238;stroke-miterlimit:10;stroke-width:0.75px"></path><path d="M56,385s-7.65-6.82-4.59-10.18,22-5.81,27.52-1.45-6.73,10.51-11.31,11.85S57.56,386.07,56,385Z" style="fill:#92E3A9;stroke:#263238;stroke-linecap:round;stroke-linejoin:round;stroke-width:0.75px"></path><path d="M65.73,371.41s-2.8,5.6-2.8,10" style="fill:none;stroke:#263238;stroke-miterlimit:10;stroke-width:0.75px"></path><path d="M61.73,366.1s-5.19-4.63-3.12-6.9,15-3.95,18.69-1-4.57,7.13-7.68,8S62.77,366.86,61.73,366.1Z" style="fill:#92E3A9;stroke:#263238;stroke-linecap:round;stroke-linejoin:round;stroke-width:0.75px"></path><path d="M68.31,356.91s-1.9,3.8-1.9,6.78" style="fill:none;stroke:#263238;stroke-miterlimit:10;stroke-width:0.75px"></path><rect x="54.55" y="395.91" width="20.7" height="45.89" style="fill:#263238;stroke:#263238;stroke-linecap:round;stroke-linejoin:round;stroke-width:0.75px"></rect></g><g id="freepik--Lamp--inject-203"><ellipse cx="113.59" cy="447.5" rx="39.88" ry="9.2" style="fill:#263238;stroke:#263238;stroke-linecap:round;stroke-linejoin:round"></ellipse><polyline points="113.86 443.87 113.66 160.89 219.06 51.98 258.04 103.7" style="fill:none;stroke:#263238;stroke-linecap:round;stroke-linejoin:round;stroke-width:4px"></polyline><polyline points="113.66 160.89 120.66 165.72 222.33 61.15 219.06 51.98" style="fill:none;stroke:#263238;stroke-linecap:round;stroke-linejoin:round;stroke-width:4px"></polyline><path d="M120,160.17a6.42,6.42,0,1,0-5.67,7.09A6.42,6.42,0,0,0,120,160.17Z" style="fill:#263238;stroke:#263238;stroke-linecap:round;stroke-linejoin:round"></path><path d="M227.68,53.82A6.41,6.41,0,1,0,222,60.9,6.42,6.42,0,0,0,227.68,53.82Z" style="fill:#263238;stroke:#263238;stroke-linecap:round;stroke-linejoin:round"></path><path d="M261.44,95l-13.1,9.69-8.13-11a8.15,8.15,0,0,1,1.71-11.39h0A8.14,8.14,0,0,1,253.31,84Z" style="fill:#263238;stroke:#263238;stroke-linecap:round;stroke-linejoin:round"></path><path d="M279.46,99.62c3.4,5.41-8.95,9-16.64,13.83s-18,12.48-21.44,7.07,1.44-21.85,9.13-26.67S276.07,94.21,279.46,99.62Z" style="fill:#263238;stroke:#263238;stroke-linecap:round;stroke-linejoin:round"></path><ellipse cx="262.6" cy="113.54" rx="23.15" ry="16.29" transform="translate(-20.17 157) rotate(-32.12)" style="fill:#fff;stroke:#263238;stroke-linecap:round;stroke-linejoin:round"></ellipse></g><g id="freepik--Characters--inject-203"><path d="M195,174.78s-23.87,3.34-36.71,19.77-13.35,28.75-13.86,37.22,0,54.17,0,55.19-1.8,13.35-1.28,17.2,1.79,2.57,1.79,2.57-3.33,5.65-3.08,7.45,5.91,10.52,5.91,10.52,25.16-18.23,28.49-19.25,17.46,0,17.46,0l24.9-1.29s.52-17.45.52-20.28,6.41-36.45,6.41-36.45l3.08-1.8s20.54,2.31,25.93.52,11-14.64,11-14.64-7.19-11.29-11-14.63-4.62-4.36-5.64-6.16-2.32-5.14-9.25-13.35S214.26,174,195,174.78Z" style="fill:#92E3A9;stroke:#263238;stroke-linecap:round;stroke-linejoin:round"></path><path d="M186,301.7c4.07-.16,6.89-.16,6.89-.16" style="fill:none;stroke:#263238;stroke-linecap:round;stroke-linejoin:round"></path><path d="M148.62,306.77s4.47.37,15.08-2.43A96.18,96.18,0,0,1,180.14,302" style="fill:none;stroke:#263238;stroke-linecap:round;stroke-linejoin:round"></path><path d="M145.77,315.33a62.1,62.1,0,0,1,16.17-7.61" style="fill:none;stroke:#263238;stroke-linecap:round;stroke-linejoin:round"></path><path d="M274.53,207.61c-3.18-.57-4.49,1.31-4.68,2.24a7,7,0,0,1-.93,2.06l-2.06,1.69s-4.31,1.68-4.31,3.56c0,0-4.12.75-3.93,3s5.06,5.06,5.06,5.06l1.47-1.88h0c.56,0,10.31-8.77,10.31-8.77l2.24-4.34S277.72,208.17,274.53,207.61Z" style="fill:#263238;stroke:#263238;stroke-linecap:round;stroke-linejoin:round"></path><path d="M209.55,169.58s-6.43-3.5-7.79-2.92-8.18,5.65-8.18,5.65a105.37,105.37,0,0,0-.78,20.25,71.12,71.12,0,0,0,4.09,20.83l12.66-5.65,4.28-.39,8.37,7.79s2.73-11.88,2.34-13.82S209.55,169.58,209.55,169.58Z" style="fill:#fff;stroke:#263238;stroke-linecap:round;stroke-linejoin:round"></path><path d="M260.36,176.79s-2.34,6-3.31,7-5.26,2.92-5.26,2.92-1.75,10.71-2.53,12.66-7.59.39-7.59.39-6.62,7.2-7.2,8.37-2.92.19-6.23-1.56a45.5,45.5,0,0,1-5.84-3.7l-10.52,12.66a216.51,216.51,0,0,1-6.23-22.39,120.91,120.91,0,0,1-2.53-19.86s5.26-4.09,5.65-5.45,3.89-14.41,3.89-14.41,11.88-.77,28.81,5.07S260.94,174.26,260.36,176.79Z" style="fill:#fff;stroke:#263238;stroke-linecap:round;stroke-linejoin:round"></path><path d="M259.78,172.93c-1.57-4.16-6.34-10.32-18.31-14.44-16.93-5.84-28.81-5.07-28.81-5.07s-3.5,13.05-3.89,14.41a2.38,2.38,0,0,1-.43.71l1.21,1c1.75,1.56,4.86,1.56,5.45.78s4.67-3.31,7.79-5.06,7.59,1.56,7.59,1.56,4.67,4.09,6,3.31,1.17-1.17,2.73-1.76,3.89-1.55,3.89-1.55Z" style="fill:#263238;stroke:#263238;stroke-linecap:round;stroke-linejoin:round"></path><path d="M211.3,155.76s16.55,5.06,29.79,11.49,24.14,16.35,27.64,18.1,3.31-2.53,0-6.42a27.19,27.19,0,0,0-10.9-8c-4.48-1.95-23.75-9.74-25.31-10.32s-18.88-7-19.86-7.21S210.72,153.81,211.3,155.76Z" style="fill:#92E3A9;stroke:#263238;stroke-linecap:round;stroke-linejoin:round"></path><path d="M263.67,173.67s1.56,1.17,4.09-.58,3.89-3.9,2.53-7.6-10.13-11.87-10.13-11.87-6-12.27-16.93-18.3-19.86-2.53-23.17,1-13.24,9.54-11.68,14.21,6.62,3.12,6.62,3.12l15.57,6.81Z" style="fill:#92E3A9;stroke:#263238;stroke-linecap:round;stroke-linejoin:round"></path><line x1="238.75" y1="163.74" x2="258.02" y2="167.44" style="fill:none;stroke:#263238;stroke-linecap:round;stroke-linejoin:round"></line><path d="M232.32,170.56s0-8.18-3.11-9.74-9.34.59-9.73,4.09a30.35,30.35,0,0,1-1.95,7.2s-3.7,5.07-2.34,7.79,4.09,4.67,7.4,3.12,3.12-3.51,3.12-3.51" style="fill:#fff;stroke:#263238;stroke-linecap:round;stroke-linejoin:round"></path><circle cx="221.23" cy="177.37" r="2.92" style="fill:#263238;stroke:#263238;stroke-linecap:round;stroke-linejoin:round"></circle><polygon points="222.4 202.87 216.56 198.4 215.78 209.88 222.4 202.87" style="fill:#263238;stroke:#263238;stroke-linecap:round;stroke-linejoin:round"></polygon><path d="M252.57,181.85a6.1,6.1,0,0,0-5.84-4.67" style="fill:none;stroke:#263238;stroke-linecap:round;stroke-linejoin:round"></path><path d="M247.6,186.08c-1.14,1.07-2.45,1.52-2.93,1s.06-1.79,1.2-2.86,2.44-1.51,2.92-1S248.73,185,247.6,186.08Z" style="fill:#263238"></path><path d="M239.33,200.54a8.7,8.7,0,0,1-4.47-5.84" style="fill:none;stroke:#263238;stroke-linecap:round;stroke-linejoin:round"></path><rect x="379.48" y="353.06" width="4.98" height="44.25" style="fill:#fff;stroke:#263238;stroke-linecap:round;stroke-linejoin:round"></rect><rect x="377.43" y="381.78" width="9.38" height="48.94" style="fill:#263238;stroke:#263238;stroke-linecap:round;stroke-linejoin:round"></rect><rect x="377.73" y="439.12" width="9.21" height="14.54" style="fill:#263238;stroke:#263238;stroke-linecap:round;stroke-linejoin:round"></rect><circle cx="435.41" cy="446.87" r="7.75" transform="translate(-143.47 214.13) rotate(-23.84)" style="fill:#263238;stroke:#263238;stroke-linecap:round;stroke-linejoin:round"></circle><path d="M439,446.87a3.64,3.64,0,1,1-3.63-3.63A3.64,3.64,0,0,1,439,446.87Z" style="fill:#fff;stroke:#263238;stroke-linecap:round;stroke-linejoin:round"></path><circle cx="328.06" cy="446.87" r="7.75" transform="translate(-208.51 307.53) rotate(-39.16)" style="fill:#fff;stroke:#263238;stroke-linecap:round;stroke-linejoin:round"></circle><path d="M331.69,446.87a3.64,3.64,0,1,1-3.63-3.63A3.64,3.64,0,0,1,331.69,446.87Z" style="fill:#fff;stroke:#263238;stroke-linecap:round;stroke-linejoin:round"></path><polygon points="385.73 428.7 381.85 427.25 377.98 428.7 321.03 438.88 321.03 443.24 324.66 443.24 327.33 441.06 380.16 435.66 380.16 443 384.76 443 384.76 435.78 436.38 441.06 439.04 443.24 442.68 443.24 442.68 438.88 385.73 428.7" style="fill:#263238;stroke:#263238;stroke-linecap:round;stroke-linejoin:round"></polygon><line x1="410.97" y1="283.91" x2="402.17" y2="331.08" style="fill:none;stroke:#263238;stroke-linecap:round;stroke-linejoin:round;stroke-width:6px"></line><path d="M427.23,287.08H404.69a6.34,6.34,0,0,1-6.23-7.51l9.18-48.43a6.34,6.34,0,0,1,6.23-5.16h22.54a6.34,6.34,0,0,1,6.22,7.52l-9.18,48.43A6.32,6.32,0,0,1,427.23,287.08Z" style="fill:#878787;stroke:#263238;stroke-linecap:round;stroke-linejoin:round"></path><path d="M418.75,287.08H396.21a6.34,6.34,0,0,1-6.23-7.51l9.18-48.43a6.34,6.34,0,0,1,6.23-5.16h22.54a6.34,6.34,0,0,1,6.22,7.52L425,281.93A6.34,6.34,0,0,1,418.75,287.08Z" style="fill:#878787;stroke:#263238;stroke-linecap:round;stroke-linejoin:round"></path><path d="M386.56,327.54s15.22.44,19.78-.43,12.43-1.1,12.18,5.92-6.85,23.24-16,29.82-43.12,6.58-43.12,6.58H334.94c-14.19,0-24.09-14.33-18.79-27.5.05-.12.11-.25.16-.38,5.33-12.72,24.09-7.87,41.59-11.15S386.56,327.54,386.56,327.54Z" style="fill:#878787;stroke:#263238;stroke-linecap:round;stroke-linejoin:round"></path><path d="M409.07,329.83s-8,6.34-25.4,6.77-55.43.42-58,13.11" style="fill:none;stroke:#263238;stroke-linecap:round;stroke-linejoin:round"></path><rect x="264.39" y="279.15" width="4.98" height="118.16" transform="translate(533.76 676.47) rotate(180)" style="fill:#263238;stroke:#263238;stroke-linecap:round;stroke-linejoin:round"></rect><rect x="262.05" y="381.78" width="9.38" height="48.94" transform="translate(533.47 812.51) rotate(180)" style="fill:#263238;stroke:#263238;stroke-linecap:round;stroke-linejoin:round"></rect><rect x="261.91" y="439.12" width="9.21" height="14.54" transform="translate(533.03 892.78) rotate(180)" style="fill:#263238;stroke:#263238;stroke-linecap:round;stroke-linejoin:round"></rect><circle cx="213.44" cy="446.87" r="7.75" transform="translate(-281.67 457.85) rotate(-65.74)" style="fill:#263238;stroke:#263238;stroke-linecap:round;stroke-linejoin:round"></circle><path d="M209.81,446.87a3.64,3.64,0,1,0,3.63-3.63A3.64,3.64,0,0,0,209.81,446.87Z" style="fill:#fff;stroke:#263238;stroke-linecap:round;stroke-linejoin:round"></path><circle cx="320.8" cy="446.87" r="7.75" transform="translate(-94.37 85.98) rotate(-13.33)" style="fill:#263238;stroke:#263238;stroke-linecap:round;stroke-linejoin:round"></circle><path d="M317.16,446.87a3.64,3.64,0,1,0,3.64-3.63A3.64,3.64,0,0,0,317.16,446.87Z" style="fill:#fff;stroke:#263238;stroke-linecap:round;stroke-linejoin:round"></path><polygon points="263.12 428.7 267 427.25 270.88 428.7 327.82 438.88 327.82 443.24 324.19 443.24 321.52 441.06 268.69 435.66 268.69 443 264.09 443 264.09 435.78 212.48 441.06 209.81 443.24 206.18 443.24 206.18 438.88 263.12 428.7" style="fill:#263238;stroke:#263238;stroke-linecap:round;stroke-linejoin:round"></polygon><path d="M323,293.63l-1.74,2.71s-12.37,3.48-27.64,15.65-28,26.68-29.57,32.48,3.09,16.43,5.22,20.87S292,392,298.41,397.43s30,24,30.73,24.35,20.49,14.69,20.49,14.69-.19,10.63-2.9,13.92-8.31,6.38-7.92,8.5,12.56,2.52,16.23,1.36,8.32-2.71,9.48-4.26,8.69-17.2,10.43-20.29,3.1-6.77,1.94-10.63-6.58-5.41-8.32-6-5.41-1.74-6-2.13-27.64-21.46-28.6-23.2-19-19.9-20.69-22-12.56-19.14-12.56-19.14,15.27-10.82,25.32-15.65,37.5-2.51,46-5.61,20.49-6.38,22-15.46-.39-24-.39-24L323,291.7Z" style="fill:#263238;stroke:#263238;stroke-linecap:round;stroke-linejoin:round"></path><path d="M339.58,440.14s-4.25,5.42-5.22,7.54-4.83,6-9.47,8.51-8.31,4.25-7.92,7.53,7,5,13.91,5.8,23.2-2.32,26.68-4.44,5.41-1,6.18-5a15,15,0,0,0-.58-7.54S352.92,438,339.58,440.14Z" style="fill:#92E3A9;stroke:#263238;stroke-linecap:round;stroke-linejoin:round"></path><path d="M336.3,464.88c-11.33.43-17-1.58-19.2-2.65a3.5,3.5,0,0,0-.13,1.49c.38,3.29,7,5,13.91,5.8s23.2-2.32,26.68-4.44,5.41-1,6.18-5a12.26,12.26,0,0,0,.22-1.95C358.75,460.3,347.63,464.45,336.3,464.88Z" style="fill:#fff;stroke:#263238;stroke-linecap:round;stroke-linejoin:round"></path><path d="M349.83,308.13a130.22,130.22,0,0,0-20.3,11c-11.21,7.34-10.82,14.69-10.44,19.71s15.85,73.26,16.82,78.09,2.71,14.3,2.71,14.3a2.38,2.38,0,0,0-1.36,2.13c0,1.54,1.36,9.08,1.36,9.08A41.26,41.26,0,0,1,350,444c6.18,1.74,13.14,8.5,13.14,8.5a37,37,0,0,0,2.71-8.5,20,20,0,0,0-1.74-11,42.58,42.58,0,0,1-2.13-4.25s-1.54-31.12-1.74-38.27,2.9-23.78,1-32.09-5-22.61-5-22.61,23,1.16,32.48-4.45,8.89-15.07,7.53-24.35a69,69,0,0,0-3.86-15.27L364.13,294" style="fill:#263238;stroke:#263238;stroke-linecap:round;stroke-linejoin:round"></path><path d="M303.37,274.24H237.28a6,6,0,0,1-6-6h0a6,6,0,0,1,6-6h66.09a6,6,0,0,1,6,6h0A6,6,0,0,1,303.37,274.24Z" style="fill:#878787;stroke:#263238;stroke-linecap:round;stroke-linejoin:round"></path><rect x="234.33" y="273.27" width="72.81" height="7.14" style="fill:#263238;stroke:#263238;stroke-linecap:round;stroke-linejoin:round"></rect><path d="M300.92,192.93s-12.95,2.9-18.74,10.24-7.93,12.18-7.93,12.18-7.92,5.41-12.95,11.6-14.5,17.59-16.24,21.65-4.63,6.18-3.67,9.66,39.43,15.46,42.14,15.85,12.76,2.51,12.76,2.51S298,289,299,291.89a14.84,14.84,0,0,0,3.87,5.41s-2.13.58-2.13,1.74,1,2.9,2.32,3.1a10.62,10.62,0,0,0,4.25,0c1-.39,7.54-3.1,8.7-3.87s2.51-1.93,2.32-5.22-6.18-16.81-8.5-20.29-3.87-5-5-5.61-26.87-17.78-26.87-17.78,12.95-4.83,15.85-9.86a55.44,55.44,0,0,1,3.87-6.18s6.57,13.72,13.14,19.91,14.31,18.94,14.31,18.94.77,9.86-.2,13.14-1.93,8.31-1.93,8.31,24.16.39,38.08.39,32.66-2.13,32.66-2.13-2.9-37.3-3.09-41.17-2.71-35.18-5.22-43.29-6.76-13-16-17-29.57-4.83-29.57-4.83Z" style="fill:#fff;stroke:#263238;stroke-linecap:round;stroke-linejoin:round"></path><line x1="342.05" y1="204.75" x2="350.02" y2="200.27" style="fill:none;stroke:#263238;stroke-linecap:round;stroke-linejoin:round"></line><line x1="335.91" y1="208.2" x2="338.67" y2="206.65" style="fill:none;stroke:#263238;stroke-linecap:round;stroke-linejoin:round"></line><path d="M297.64,233.33s-3.29-6.57-6.57-9.47" style="fill:none;stroke:#263238;stroke-linecap:round;stroke-linejoin:round"></path><path d="M302.86,297.3s.1,2.12,1.47,2.51" style="fill:none;stroke:#263238;stroke-linecap:round;stroke-linejoin:round"></path><path d="M266.33,239.71s8.5,3.67,11.59,9.66" style="fill:none;stroke:#263238;stroke-linecap:round;stroke-linejoin:round"></path><path d="M393.7,291.89s-2.9-37.3-3.09-41.17c-.07-1.31-.4-5.77-.9-11.4-4.87-1.84-11.46-4.95-16.5-9.67-9.08-8.5-14.3-23.19-14.69-31.5-.27-5.87-.35-9.22-.37-10.69-2.53-.43-5.1-.77-7.49-1,1.35,4.59,4.91,19.4-1.22,30.85-7.35,13.73-17.59,17.4-25.71,12.76s-17-21.26-17.59-27.64c-.34-3.77-.82-7.68-1.15-10.24l-3.59.68a149.24,149.24,0,0,0-.86,30.24c.61,8,1.58,14.85,2.46,20a53,53,0,0,0,7.78,10.19c6.57,6.18,14.31,18.94,14.31,18.94s.77,9.86-.2,13.14-1.93,8.31-1.93,8.31,24.16.39,38.08.39S393.7,291.89,393.7,291.89Z" style="fill:#92E3A9;stroke:#263238;stroke-linecap:round;stroke-linejoin:round"></path><path d="M348.24,268.85c7.17,3.79,17.08,8.67,23.44,10.33" style="fill:none;stroke:#263238;stroke-linecap:round;stroke-linejoin:round"></path><path d="M339.34,264s2.35,1.36,5.9,3.28" style="fill:none;stroke:#263238;stroke-linecap:round;stroke-linejoin:round"></path><path d="M372.78,285.18a49,49,0,0,0,5.56.66" style="fill:none;stroke:#263238;stroke-linecap:round;stroke-linejoin:round"></path><path d="M341.72,277.28s14.77,4.57,26.55,7" style="fill:none;stroke:#263238;stroke-linecap:round;stroke-linejoin:round"></path><path d="M320,209c-3.69-2.18-13-11.94-13-11.94a23.16,23.16,0,0,1-6.49,3c-4.27,1.35-4.93-4.82-4.93-4.82l-6.45-9.08a13.65,13.65,0,0,1-4,.32c-2.2-.16-2.95-13.74-2.95-13.74a19.68,19.68,0,0,1-2.34-2c-1.46-1.4-3.82-16.19-3.82-16.19s-.09-3.19,1.3-4.82,23.25-18.69,32.38-16.05,17.39,28.07,18.1,30.7,5.52,14.21,6.21,14.49,7.34,5.56,14.22,7.91" style="fill:#fff;stroke:#263238;stroke-linecap:round;stroke-linejoin:round"></path><path d="M283.61,133.25s-6.45,3.55-8.61,8.1-4.62,5.42-7.14,9.66,4.57.31,4.57.31-4.65,7.1-2.35,8.43,9.78-6,9.78-6-.56,1.39,2.09.85,10-5.52,10-5.52.32,10.41,1.84,10.46a75.64,75.64,0,0,1,8.06,1.88l7,10s3.56-1.8,3.69-2.31-2.83-8-2.49-10.07,4.51-4.74,6.67-2.89a15.68,15.68,0,0,1,4.56,8.56c.2,2.51,2.39,6.71,2.45,7.54s-2,4.37-2,4.37a9.74,9.74,0,0,0,6.18-.49c2.92-1.41,4.94-7.8,4.94-7.8S334,169.46,334,170a10.6,10.6,0,0,1,.92-3.27c1-2.1,1.14-2.62-.11-5.55s-7.19-7.84-7.19-7.84.28-7.09-2.52-12.59-9.69-9.66-13.85-11.18-10.12-.2-10.12-.2S288.3,128.67,283.61,133.25Z" style="fill:#263238;stroke:#263238;stroke-linecap:round;stroke-linejoin:round"></path><path d="M293.19,185.68s3.3-.77,5.3-5.31" style="fill:none;stroke:#263238;stroke-linecap:round;stroke-linejoin:round"></path><path d="M283.81,169.43s1.17-4.3,5.59-3.82" style="fill:none;stroke:#263238;stroke-linecap:round;stroke-linejoin:round"></path><path d="M288.55,172.06c.77,1,1,2.08.55,2.45s-1.49-.12-2.26-1.1-1-2.08-.55-2.45S287.77,171.08,288.55,172.06Z" style="fill:#263238"></path><path d="M311.23,190.3a2.65,2.65,0,0,0-4.27-2.86c-1.88,1.66-6.57,4.06-7.41,4.13s-2.29-1.34-4.15-1.36-2.09,1.18-2.09,1.18l-.06.49,2.39,3.37s.66,6.17,4.93,4.82a23.16,23.16,0,0,0,6.49-3S310.45,193.22,311.23,190.3Z" style="fill:#263238"></path><path d="M321.31,164.75s-.53,3.95-1.27,4.4a21.27,21.27,0,0,0-1.83,1.31s.29,3.66.17,7-3.52,9.4-3.52,9.4" style="fill:none;stroke:#263238;stroke-linecap:round;stroke-linejoin:round"></path><path d="M340.74,312.57a30.29,30.29,0,0,0-7.73-8.5" style="fill:none;stroke:#263238;stroke-linecap:round;stroke-linejoin:round"></path><g style="opacity:0.28"><path d="M285.17,244.13c.2-1.31.37-2.64.52-4a1.15,1.15,0,0,0-1-1.2c-1.34-.07-2.67-.11-4-.13.11-1.31.19-2.64.24-4a1.16,1.16,0,0,0-1.1-1.13q-2,0-4,.18c0-1.32,0-2.66-.05-4a1.13,1.13,0,0,0-1.17-1c-1.34.12-2.66.28-4,.46-.08-1.32-.19-2.65-.33-4a1.14,1.14,0,0,0-1.26-.95c-1.32.22-2.63.47-3.92.74,0-.18-.06-.36-.08-.54-.58.58-1.15,1.18-1.7,1.8a1.07,1.07,0,0,0,1.22.84c1.28-.27,2.57-.52,3.88-.75.14,1.32.24,2.64.32,3.94a1,1,0,0,0,.37.72,1,1,0,0,0,.78.23c1.3-.18,2.61-.34,3.93-.47,0,1.33.05,2.65,0,4a1.06,1.06,0,0,0,1.08,1c1.31-.09,2.62-.15,4-.18-.05,1.33-.14,2.64-.25,3.95a1,1,0,0,0,.27.77,1,1,0,0,0,.74.33c1.31,0,2.63.05,4,.11-.15,1.33-.33,2.63-.53,3.93a1,1,0,0,0,.21.79h0a1.09,1.09,0,0,0,.36.28c1-.48,2-1,3-1.59Z"></path><path d="M289.38,240.81c.17-1.35.31-2.72.42-4.09a1.26,1.26,0,0,0-1.07-1.27c-1.38-.11-2.74-.18-4.1-.23.07-1.36.12-2.73.14-4.1a1.25,1.25,0,0,0-1.16-1.18c-1.38,0-2.75,0-4.1.06,0-1.35-.08-2.72-.16-4.09a1.25,1.25,0,0,0-1.24-1.1c-1.37.1-2.74.22-4.08.37-.13-1.35-.28-2.71-.46-4.08a1.25,1.25,0,0,0-1.32-1c-.94.13-1.87.3-2.8.46-.8.66-1.63,1.39-2.48,2.17a1.06,1.06,0,0,0,.71.15c1.32-.24,2.66-.46,4-.66.18,1.35.33,2.7.44,4a1.13,1.13,0,0,0,.41.74,1.07,1.07,0,0,0,.81.25q2-.23,4.05-.36c.07,1.36.12,2.71.14,4.05a1.18,1.18,0,0,0,1.15,1.09c1.34-.06,2.69-.08,4.06-.08,0,1.36-.07,2.72-.15,4.06a1.15,1.15,0,0,0,1.07,1.17c1.34,0,2.7.12,4.06.22-.12,1.36-.26,2.71-.43,4a1.13,1.13,0,0,0,.23.82h0a1.14,1.14,0,0,0,.75.42l.72.1a19,19,0,0,0,2.17-1.75C290.57,241,290,240.87,289.38,240.81Z"></path><path d="M283.66,252.25l.46.65a1,1,0,0,0,1.06.37Z"></path><path d="M272.54,218.1a106,106,0,0,1,20.74,20.07q.57-1,1-1.71a108.12,108.12,0,0,0-20.18-19.52C273.79,217.18,273.24,217.57,272.54,218.1Z"></path><path d="M280.12,247.5l1.77-.78A91.5,91.5,0,0,0,262,228l-1.18,1.45A89.32,89.32,0,0,1,280.12,247.5Z"></path></g><path d="M367.6,298.53s-9.7.2-10.49.59-5.93,9.2-5.93,9.2l12.46-5.63,8.71-4.36Z" style="fill:#fff;stroke:#263238;stroke-linecap:round;stroke-linejoin:round"></path><path d="M360.65,188.29s14.69-1.35,24.55,4.45,18.55,18,19.13,18.94,10.63,15.27,16.24,22,10.63,12,10.24,14.31-8.5,19.91-18.17,30.15S397,294,395.83,295.37s-8.89,7.93-12,9.47A21.4,21.4,0,0,1,373.21,307c-3.86-.19-7.73-.58-7.73-.58s-5.41,1.55-8.7,2.13-6.95,1.35-5.6-.2,6.57-7,9.47-7.73,13.53-3.09,13.53-3.09l7-1.16s10.44-13.72,11.6-18.17S403.37,248,403.37,248s-15.66-10.44-18.75-14.11-8.7-8.89-8.7-8.89l-3.29,2.32" style="fill:#fff;stroke:#263238;stroke-linecap:round;stroke-linejoin:round"></path><polyline points="369.19 302.29 363.64 302.69 352.75 308.43" style="fill:none;stroke:#263238;stroke-linecap:round;stroke-linejoin:round"></polyline><g style="opacity:0.30000000000000004"><path d="M413.76,225a3.36,3.36,0,0,1-1.22,1.32,3.74,3.74,0,0,1-2.84.43h0a3.79,3.79,0,0,0,2.84-.43,3.47,3.47,0,0,0,1.22-1.33l-.25-.32a3.24,3.24,0,0,1-1.18,1.34,3.53,3.53,0,0,1-2.74.36h0l-.14-.05.14.05a12.43,12.43,0,0,0-.46-1.32,2.85,2.85,0,0,0-.21-.37h0a2.83,2.83,0,0,0-.2-.28l.16-.18h0a1.46,1.46,0,0,0-.16.19l.2.27a2.47,2.47,0,0,0,2.63.15,2.14,2.14,0,0,0,1-1.43l-.31-.4a1.87,1.87,0,0,1-.86,1.51h0a1.89,1.89,0,0,0,.86-1.51l-1.8-2.32-.12.23a16.9,16.9,0,0,1-1.67,2.46l-.24.27-.18.21h0l-.18-.15a9.64,9.64,0,0,0-1.69-1.1l-.4-.19-.36-.18c-.74-.33-1.45-.58-2-.76l-.35.28h0l-.4-.11.4.11.34-.28-.41-.12-.46-.13h-.17a.31.31,0,0,0-.12.05.32.32,0,0,0-.15.25s0,.19,0,.43,0,.33,0,.54h0a13.18,13.18,0,0,0,.13,2.31c0,.15,0,.29.07.44s.06.28.1.43a6.9,6.9,0,0,0,.69,1.89h0l-.28.12-.32.14-.33.16a17.13,17.13,0,0,1-2.88.81l-.37.06-.28,0h0c0-.07,0-.14-.06-.22a11.77,11.77,0,0,0-.75-1.91c-.06-.13-.13-.25-.2-.39s-.12-.24-.19-.36c-.39-.73-.8-1.38-1.11-1.85h0c-.13-.19-.23-.33-.31-.46l-.08-.11c-.07-.11-.13-.18-.14-.2a.4.4,0,0,0-.22-.14h-.05a.33.33,0,0,0-.27.09,8.66,8.66,0,0,0-.69.7h0a12.81,12.81,0,0,0-1.39,1.86c-.08.12-.14.25-.22.37s-.15.27-.22.42a6.7,6.7,0,0,0-.63,1.91h0l-.31-.09a3.15,3.15,0,0,1-.36-.09l-.38-.11a16.29,16.29,0,0,1-2.92-1.26l-.34-.2-.26-.15h0c0-.07.07-.15.11-.22a12.94,12.94,0,0,0,.69-2c0-.15.08-.3.11-.44s.07-.29.1-.42c.19-.84.33-1.64.42-2.23l-.33-.32h0l.33.32c.08-.5.13-.84.14-.94v0a.27.27,0,0,0,0-.09.42.42,0,0,0-.08-.22l-.09-.06a.3.3,0,0,0-.18-.06h-.19l-.81.05h0a13.54,13.54,0,0,0-2.34.44l-.44.14-.43.16a6.38,6.38,0,0,0-1.85,1h0c-.07-.1-.11-.21-.17-.3l-.19-.34c-.07-.13-.15-.24-.21-.37a14.36,14.36,0,0,1-1.12-3.23c0-.13-.06-.27-.08-.42s0-.21-.06-.31l-.07,0,.07,0h0l.23-.1a12.44,12.44,0,0,0,2-1l.41-.25.37-.25c.76-.5,1.44-1,1.94-1.37h0l.29-.22.39-.3a1.06,1.06,0,0,0,.13-.11l0,0a.4.4,0,0,0,.08-.16s.06-.07.06-.11a.36.36,0,0,0-.08-.3l-.22-.25c-.12-.13-.27-.29-.47-.47,0,.17,0,.34-.08.51h0c0-.17.05-.34.08-.52a13,13,0,0,0-1.79-1.49c-.12-.09-.25-.16-.37-.24l-.4-.24a5.84,5.84,0,0,0-1.92-.7h0c.05-.13.09-.24.13-.37s.1-.28.15-.41.12-.3.19-.44a17,17,0,0,1,1.92-3.3l.29-.37c.07-.09.14-.19.22-.28h0l.21.12a9.28,9.28,0,0,0,1.91.85l.43.14.41.12c.83.23,1.62.4,2.2.52l.41-.34-.39-.08.39.08.49.09.18,0-.18,0-.49-.09-.41.34.13,0,.3.06.45.08h.08a.38.38,0,0,0,.15,0h.05a.31.31,0,0,0,.13-.06h0a.4.4,0,0,0,.13-.16.25.25,0,0,0,0-.11.5.5,0,0,0,0-.12c0-.17.09-.49.15-.93h0a19.91,19.91,0,0,0,.19-2.46,3.68,3.68,0,0,0,0-.47c0-.16,0-.31,0-.47a6.32,6.32,0,0,0-.42-2h0l.37-.15.43-.16.45-.17.44-.13-.35-.29-.3.09-.16.06.16-.06.3-.09-.86-.71a2,2,0,0,0,0,.6l0,0,0,0a2,2,0,0,1,0-.6l-.38-.31a2.42,2.42,0,0,0,0,1.07h0v0l-.44.17a1,1,0,0,1,.1.17,1,1,0,0,0-.1-.17h0a2.8,2.8,0,0,0-.41-.5,7.59,7.59,0,0,0-.78-.62h0a3.89,3.89,0,0,1,.09-.47,6.11,6.11,0,0,1,.27-.66l-.34-.26a4.61,4.61,0,0,0-.36.89h0a4.79,4.79,0,0,1,.36-.88l-.33-.25a5.3,5.3,0,0,0-.45,1.1,0,0,0,0,1,0,0,28.91,28.91,0,0,0-5.81-2.54.49.49,0,0,0-.44.1.51.51,0,0,0-.22.4,36.7,36.7,0,0,0,.55,5.91,6.1,6.1,0,0,0-3.71,1.59c-2.46,2.18-2.84,5.69-1,7.62h0a31.32,31.32,0,0,0-6,3.67.57.57,0,0,0-.21.42.35.35,0,0,0,.19.34c.15.07,2.81,1.33,5.1,2.14a6.08,6.08,0,0,0-1.27,3.72,4.38,4.38,0,0,0,4.9,4.61h0a17.32,17.32,0,0,0-1.2,4.47c0,.15.78.38.88.46s.57.85.69.79a14.74,14.74,0,0,0,3.56-1.43,4.93,4.93,0,0,0,1.56,3.1,4.41,4.41,0,0,0,6.38-.37v0a34.56,34.56,0,0,0,2.84,5.37.41.41,0,0,0,.32.18.3.3,0,0,0,.23-.11.56.56,0,0,0,.05-.08c0-.14,1.15-2.67,2-4.81a5,5,0,0,0,2.94,1.39,3.94,3.94,0,0,0,3.05-1,4.17,4.17,0,0,0,1.32-3v0c2.18,1.46,4.9,2.85,5,2.93a.3.3,0,0,0,.33,0,.33.33,0,0,0,.1-.31c0-.15-.59-3-1.19-5.29a4.09,4.09,0,0,0,2.95-.49,3.76,3.76,0,0,0,1.27-1.33Zm-8.93,4.71a3.55,3.55,0,0,1-1.12,2.54,3.33,3.33,0,0,1-2.58.81,4.23,4.23,0,0,1-2.66-1.37h0a12,12,0,0,0,.37-1.28,2.71,2.71,0,0,0,0-.41h0a1.21,1.21,0,0,0,0-.19,1.34,1.34,0,0,1,0,.2,2.85,2.85,0,0,0,.5.79,2.69,2.69,0,0,0,1.72.91,2.13,2.13,0,0,0,1.69-.53,2.27,2.27,0,0,0,.73-1.66,2.72,2.72,0,0,0-.22-1.16h0l0-.06,0,.06.32-.14h0a5,5,0,0,0,.43.48c.22.2.48.4.75.61h0C404.82,229.46,404.83,229.6,404.83,229.74Zm-28.08-9.59A5.08,5.08,0,0,1,378,216.8h0a9.28,9.28,0,0,0,1.36.34,3.2,3.2,0,0,0,.44,0H380l-.13,0a3.29,3.29,0,0,0-1.63,2.81,2.41,2.41,0,0,0,2.64,2.56,2.57,2.57,0,0,0,1.16-.44h0l.22-.15-.22.15c.07.13.13.24.2.35h0a5.56,5.56,0,0,0-.42.57c-.16.29-.32.62-.48,1h0a2.2,2.2,0,0,1-.43.09A3.69,3.69,0,0,1,376.75,220.15Zm4.3-8.85a5.81,5.81,0,0,0,1.54-.16A5.81,5.81,0,0,1,381.05,211.3Zm-.4,0a16.9,16.9,0,0,0-.31,3.23A16.9,16.9,0,0,1,380.65,211.26ZM378.32,216A4.9,4.9,0,0,1,380,215,4.9,4.9,0,0,0,378.32,216Zm.05.48.36.09-.36-.09,0,0Zm1.11.26h0l-.37-.08Zm.63,0s0,0,0,0v0Zm.1.57,0,.12a2.81,2.81,0,0,0-1.67,2.53,2.06,2.06,0,0,0,2.26,2.19,2.41,2.41,0,0,0,1-.35v0a2.43,2.43,0,0,1-1,.36,2.06,2.06,0,0,1-2.26-2.2,2.8,2.8,0,0,1,1.67-2.53Zm.48.4a.07.07,0,0,0,0-.05v.05Zm.33-2.44a3.61,3.61,0,0,1,1.28.16A3.61,3.61,0,0,0,381,215.21Zm0-.41a3.76,3.76,0,0,1,1.75.27A3.76,3.76,0,0,0,381.05,214.8Zm1.16-.35a4.91,4.91,0,0,1,1,.35c.75-.49,1.49-1,2.1-1.46-.61.45-1.35,1-2.1,1.46A4.91,4.91,0,0,0,382.21,214.45Zm2-3a14.49,14.49,0,0,1,1.69,1.5A14.49,14.49,0,0,0,384.19,211.43Zm-3-.55a4.82,4.82,0,0,0,1.79-.25A4.82,4.82,0,0,1,381.15,210.88Zm.2-.8a4.85,4.85,0,0,1,1,.28A4.85,4.85,0,0,0,381.35,210.08Zm-.68-.46a2.34,2.34,0,0,0-.53.08c-.22.05-.45.12-.69.2a1.39,1.39,0,0,1-.19-.15,1.33,1.33,0,0,0,.19.14l.69-.2a3.21,3.21,0,0,1,.53-.07Zm-6.58,4.67c1.07.48,2.53,1.11,3.8,1.54A5.44,5.44,0,0,1,380,214.6a5.44,5.44,0,0,0-2.06,1.23c-1.27-.43-2.73-1.06-3.8-1.54l-.92-.42Zm-.45-.77a27.84,27.84,0,0,1,5.16-3A27.84,27.84,0,0,0,373.64,213.52Zm14.52,6.92a13.88,13.88,0,0,0-2.18.35,12.79,12.79,0,0,1,2.18-.35Zm2.93,8.69a2,2,0,0,1-.38.7A2,2,0,0,0,391.09,229.13Zm-1.26,1.25a1.69,1.69,0,0,1-1.62-.43,2,2,0,0,1-.42-.68,2,2,0,0,0,.42.68A1.69,1.69,0,0,0,389.83,230.38Zm-1.86-.14a2,2,0,0,0,3-.14,2.14,2.14,0,0,0,.32-.54,2,2,0,0,1-.32.54,2,2,0,0,1-3,.14,2.22,2.22,0,0,1-.44-.58A2.19,2.19,0,0,0,388,230.24Zm-.69-1.87a2.44,2.44,0,0,1,.19-.83l-.23-.13h0l.23.13A2.7,2.7,0,0,0,387.28,228.37Zm-.72-2.69a4.33,4.33,0,0,1,1-.82,9.62,9.62,0,0,1-.55,1.47,9.62,9.62,0,0,0,.55-1.47A4.33,4.33,0,0,0,386.56,225.68Zm-.26-.26a4.23,4.23,0,0,1,1.42-1.1A4.23,4.23,0,0,0,386.3,225.42Zm.14-.69a3.43,3.43,0,0,1,.62-.46A3.43,3.43,0,0,0,386.44,224.73Zm.24-3.69c.42-.08.8-.14,1.13-.17C387.48,220.9,387.1,221,386.68,221Zm-4.59,2.16a6.15,6.15,0,0,0-.33.63l-.16,0,.15,0c.12-.23.23-.44.34-.63a1.13,1.13,0,0,1,.12-.18Zm3.91,3.36a4.49,4.49,0,0,0-.41,1.27A4.49,4.49,0,0,1,386,226.56Zm.5,1.11,0,0,0,0-.35.25Zm1.9-6.85c0,.22-.07.48-.11.76C388.33,221.3,388.37,221,388.4,220.82Zm-5.16,3.1a5.3,5.3,0,0,1-1.45.76A5.3,5.3,0,0,0,383.24,223.92ZM381,227.14c-.31,1.12-.53,2.22-.67,3,.14-.8.36-1.9.67-3,.12-.47.27-.94.42-1.4C381.24,226.2,381.09,226.67,381,227.14Zm4,0a6.17,6.17,0,0,0-.17,1.13A6.17,6.17,0,0,1,385,227.17Zm1.89,4.5a4.27,4.27,0,0,1-1.33-2.9h0c0-.07,0-.14,0-.21s0,.14,0,.21a11,11,0,0,0,1.18-.78,2.27,2.27,0,0,0,.31-.31,1.45,1.45,0,0,1,.09-.22l-.09.22h0a2.83,2.83,0,0,0,.72,2.86,2.39,2.39,0,0,0,3.5-.17,2.83,2.83,0,0,0,.55-1.06h0l.06-.28-.06.28.36.09h0a3,3,0,0,0,.06.66c.07.31.16.63.26.95a2.59,2.59,0,0,0,.25-.39c-.06-.21-.12-.43-.16-.63a4.26,4.26,0,0,1-.06-.5h0a4.26,4.26,0,0,0,.06.5,6.12,6.12,0,0,0,.17.64c-.08.13-.17.26-.26.39h0a3.07,3.07,0,0,1-.24.35A3.71,3.71,0,0,1,386.86,231.67Zm.35-4.23c0,.06-.08.13-.12.18l0,0,0,0A1.18,1.18,0,0,0,387.21,227.44Zm12.18,1.76h0l-.35,0h0l.35,0Zm3.78.27a1.86,1.86,0,0,1-2.08,1.89,2.4,2.4,0,0,1-2-1.73l-.2,0,.2,0a2.42,2.42,0,0,0,2,1.73,1.86,1.86,0,0,0,2.08-1.89,2.41,2.41,0,0,0-.18-1l.07,0-.07,0A2.41,2.41,0,0,1,403.17,229.47ZM402,230.79a1.64,1.64,0,0,0,.75-1A1.64,1.64,0,0,1,402,230.79Zm.79-1.37a2.06,2.06,0,0,0-.14-.77,16.44,16.44,0,0,1-3.22.92,2.13,2.13,0,0,0,.41.77,2.13,2.13,0,0,1-.41-.77,16.44,16.44,0,0,0,3.22-.92A2.06,2.06,0,0,1,402.82,229.42Zm-6.08.44a17.5,17.5,0,0,1-2.89-.15A17.5,17.5,0,0,0,396.74,229.86Zm1.2,1.13a4,4,0,0,1-.48-1.17A4,4,0,0,0,397.94,231Zm.58-1.26.25,0a.88.88,0,0,0,.05.15,1.21,1.21,0,0,1-.05-.14,1.87,1.87,0,0,0-.25,0Zm-4-4.31c.18-.24.36-.46.53-.66C394.9,225,394.72,225.18,394.54,225.42Zm-1.32,3.42a4.19,4.19,0,0,0,0-1.06A4.19,4.19,0,0,1,393.22,228.84Zm2,6.5a27.27,27.27,0,0,1-2-4.16A27.27,27.27,0,0,0,395.27,235.34Zm1.16-.46c.39-.94.86-2.07,1.23-3.07-.37,1-.84,2.13-1.23,3.07l-.6,1.42Zm2.06-4.56a3,3,0,0,0,0-.31c0,.1,0,.22,0,.31q-.11.47-.3,1.05l.07.08-.07-.08A8.08,8.08,0,0,0,398.49,230.32Zm10-5c.1.22.2.49.3.78C408.69,225.81,408.59,225.54,408.49,225.32Zm-2-1.78a7.47,7.47,0,0,1,1.2.84A7.47,7.47,0,0,0,406.52,223.54Zm-2.12,2.87a5.07,5.07,0,0,0-1.27-1.18c0-.17-.06-.35-.09-.52,0,.17,0,.35.09.52A5.07,5.07,0,0,1,404.4,226.41Zm4.41-1.21a1.9,1.9,0,0,0-.25-.4,1.9,1.9,0,0,1,.25.4c.05.12.11.26.16.4A3.7,3.7,0,0,0,408.81,225.2Zm-2.59-.61a4.83,4.83,0,0,1-.57-1.5A4.83,4.83,0,0,0,406.22,224.59Zm-3.59-.36c0-.3,0-.58-.05-.85C402.59,223.65,402.6,223.93,402.63,224.23Zm2.13,4.68v0c-.18-.14-.34-.28-.49-.41a1.42,1.42,0,0,1-.12-.13l.12.12c.15.14.31.28.49.42Zm.28-1.43a5.31,5.31,0,0,1,.44,1.49A5.31,5.31,0,0,0,405,227.48Zm3.65,3.52-1.28-.76Zm1.21-.5c.12.53.22,1,.29,1.34C410.12,231.5,410,231,409.9,230.5Zm.2-5.71Zm-.64-.18h0Zm1.27.16h0ZM408.6,224l.06-.06-.06.06a2.09,2.09,0,0,1-.14.17h0A1,1,0,0,0,408.6,224Zm-.43-.08,0,0-.07.09.07-.09Zm-2.59-1.23.31.14-.3-.14c-.3-.14-.59-.26-.88-.37C405,222.41,405.29,222.53,405.58,222.67Zm-2.65,3.3c0-.12-.06-.24-.08-.35,0,.11,0,.23.08.35a6.61,6.61,0,0,0,.58,1.48l-.19.09.19-.09A6.42,6.42,0,0,1,402.93,226Zm.21,2.06-.18.08.18-.08Zm-.63.29.1,0-.1,0a15.78,15.78,0,0,1-2.4.73A18.38,18.38,0,0,0,402.51,228.32Zm-4.79-1.15a9.67,9.67,0,0,1,.69,1.81h0a9.61,9.61,0,0,0-.68-1.81c-.06-.14-.13-.27-.2-.41s-.07-.13-.1-.2.07.14.1.2S397.66,227,397.72,227.17Zm-1.47-3h0Zm-1.11-.06c.28-.3.46-.47.46-.47s-.18.17-.46.47h0l-.16,0ZM393,227.19l.09-.19c0,.07-.07.13-.09.19a5.38,5.38,0,0,0-.2.51A5.38,5.38,0,0,1,393,227.19Zm-.47,1.52c0-.17.08-.34.12-.52,0,.18-.09.35-.12.53l-.14,0Zm-.69.23-.18-.05.18,0Zm-4.06-1.66-.15-.08-.2-.12.2.11Zm-.35-.2h0l.15-.27C387.56,226.9,387.51,227,387.46,227.08Zm.1-.39.05,0-.05,0-.14-.08.14.08Zm.69-3-.09.38.09-.38c.08-.36.15-.7.21-1C388.4,223,388.33,223.36,388.25,223.72Zm.53-3.31h0Zm-5.8,1.77a6.35,6.35,0,0,1,1.44-.87l.44-.18-.44.18a6.35,6.35,0,0,0-1.44.87,2.2,2.2,0,0,1-.15-.26Zm-.66-.34-.14-.25.14.25Zm-.39-.68.12.2-.12-.2a14.1,14.1,0,0,1-1.18-3.32A14.43,14.43,0,0,0,381.93,221.16Zm1.26-5.87-.42.26a11.67,11.67,0,0,1-1.88.93h0a10.3,10.3,0,0,0,1.88-.94l.42-.26.41-.26.12-.08-.12.08Zm3.28-2.35-.56.44c0,.09,0,.18,0,.26a2.17,2.17,0,0,0,0-.26h0ZM385,211.56c.22.18.42.36.59.52C385.46,211.92,385.26,211.74,385,211.56Zm-1.17-.89h0Zm-.86-.5.28.16c-.1-.05-.19-.11-.29-.15a5.11,5.11,0,0,0-1.53-.51c0-.07,0-.14.07-.21s-.05.14-.07.21A5.78,5.78,0,0,1,383,210.17ZM381,208.78c0,.14-.1.27-.14.42h0a3.44,3.44,0,0,0-.7.09,6.69,6.69,0,0,0-1,.32h0c-.11-.1-.23-.18-.33-.29-1.5-1.63-1.15-4.56.9-6.39a5,5,0,0,1,3.4-1.34h0a8.39,8.39,0,0,0,.43,1.38,2.77,2.77,0,0,0,.22.37h0a1.63,1.63,0,0,0,.17.2l-.18-.2a3.06,3.06,0,0,0-3.15.68,3,3,0,0,0-.6,4.11,2.38,2.38,0,0,0,1,.65h0a2.66,2.66,0,0,0,.38.1l0-.07,0,.07Zm9.73-6.52c0-.17,0-.33,0-.5C390.69,201.93,390.69,202.09,390.69,202.26Zm-10.3,4.94a1.65,1.65,0,0,1-.19-.73A1.65,1.65,0,0,0,380.39,207.2Zm.88.76a1.66,1.66,0,0,1-.67-.45A1.66,1.66,0,0,0,381.27,208Zm.36-3.76a2,2,0,0,1,1.82,0A2,2,0,0,0,381.63,204.2Zm-.84.11a2.56,2.56,0,0,0-.52,3.51,2,2,0,0,0,.39.33,2,2,0,0,1-.39-.33,2.56,2.56,0,0,1,.52-3.51,2.89,2.89,0,0,1,1.11-.63A2.89,2.89,0,0,0,380.79,204.31Zm2.34,1a.41.41,0,0,1-.05.09A.41.41,0,0,0,383.13,205.3Zm.59-1.44a2.25,2.25,0,0,0-1.7-.21,2.25,2.25,0,0,1,1.7.2l.2-.25h0C383.85,203.68,383.79,203.77,383.72,203.86Zm1.76-1.93a3.87,3.87,0,0,0-1.61-.69A3.87,3.87,0,0,1,385.48,201.93Zm-1-1a4.17,4.17,0,0,1,1.37.67A4.17,4.17,0,0,0,384.46,201Zm-.59,1.8a1.18,1.18,0,0,0,.1.19c0-.06-.07-.12-.1-.19a4.07,4.07,0,0,1-.23-.65A4.46,4.46,0,0,0,383.87,202.75Zm2.38-.09a4,4,0,0,1,.73,1.62A4,4,0,0,0,386.25,202.66Zm.35-.27a4.26,4.26,0,0,1,.83,2A4.26,4.26,0,0,0,386.6,202.39Zm4,1.32c0,.16,0,.32-.05.48C390.58,204,390.59,203.87,390.61,203.71Zm-1.38-4.46a3.62,3.62,0,0,1-.17-1.1A3.62,3.62,0,0,0,389.23,199.25Zm-.42.22a17.92,17.92,0,0,0-1.8,1.18,17.92,17.92,0,0,1,1.8-1.18,4.33,4.33,0,0,1-.2-1.62A4.33,4.33,0,0,0,388.81,199.47Zm-2.34-2.8c-.75-.35-1.5-.66-2.15-.9.65.24,1.4.55,2.15.9.5.24,1,.49,1.47.76C387.47,197.16,387,196.91,386.47,196.67Zm-2.56,7.56.12-.15.15-.2-.15.2Zm.29-.37h0l.19.13Zm.31.22.07-.08.08-.09-.08.09Zm2.07.52c-.3-.11-.6-.23-.88-.36a8.48,8.48,0,0,0,.88.35l.36.13Zm.89.28h0l.29.08Zm3.32.52c0-.12,0-.28.08-.48s0-.18,0-.27a2.19,2.19,0,0,1,0,.27h0C390.84,205.12,390.81,205.28,390.79,205.4Zm.31-3.89v0h0Zm-.17-1.3a4.32,4.32,0,0,0-.25-.84l.31-.13-.31.13A4.54,4.54,0,0,1,390.93,200.21Zm.61-1.6-.25.11h0Zm-1.54-.29.18.21-.18-.2-.51-.42c0-.07,0-.14,0-.21s0,.14,0,.2Zm-.79-1.41a1.81,1.81,0,0,0,0,.23l.26.18-.27-.18C389.19,197.06,389.19,197,389.21,196.91Zm-10.63,12.88,0,0-.12-.12c-1.65-1.78-1.28-5,1-7a5.57,5.57,0,0,1,3.55-1.47h0a5.63,5.63,0,0,0-3.55,1.47c-2.25,2-2.62,5.22-1,7l.12.12,0,0,.05,0-.05,0Zm-2.3,1.57c.35-.2.71-.4,1.07-.58s.73-.35,1.09-.5c-.36.15-.72.32-1.09.5s-.72.38-1.07.58c-.53.3-1,.62-1.51.92C375.24,212,375.75,211.66,376.28,211.36Zm-2,1.22-.8.55Zm-1.42,1-.4.3Zm-.54.42.13.06Zm.48.22c.46.22,1.2.55,2,.91C374,214.77,373.3,214.44,372.84,214.22Zm2.47,1.09.89.37Zm1.63,7.13a3.87,3.87,0,0,0,2.1,1.83A3.87,3.87,0,0,1,376.94,222.44Zm2.27,1.9,0,0Zm1.66.13h0a.25.25,0,0,0,.3-.24c0,.06-.05.12-.08.19Zm.46.33a19.83,19.83,0,0,0-.67,2.06A19.83,19.83,0,0,1,381.33,224.8Zm-1.2,4.28a12.26,12.26,0,0,1,.45-1.92c-.38,1.45.13,1.88,0,2.65,0,.2.71.68.69.79C381.3,230.49,380.1,229.28,380.13,229.08Zm2.53.81-1.38.71,1.38-.71c.57-.3,1.16-.61,1.72-.92C383.82,229.28,383.23,229.59,382.66,229.89Zm2.52-.91a5.63,5.63,0,0,0,.24,1.08,5.63,5.63,0,0,1-.24-1.08Zm5.71,3.79a4.17,4.17,0,0,0,1.62-1.14l.06-.08-.06.08A4.17,4.17,0,0,1,390.89,232.77Zm3.13,1a21.17,21.17,0,0,1-1-2.19A21.17,21.17,0,0,0,394,233.74Zm1.12,2.06c-.26-.45-.57-1-.88-1.58C394.57,234.81,394.88,235.35,395.14,235.8Zm.77,1.26s.61-1.43,1.28-3.05C396.52,235.63,395.9,237.05,395.91,237.06Zm2.45-5,0,0h0Zm6.82-2.22a3.63,3.63,0,0,1-4,3.65,4.42,4.42,0,0,1-1.73-.57,4.37,4.37,0,0,0,1.72.57,3.63,3.63,0,0,0,4-3.65.79.79,0,0,0,0-.22l-.12-.09.12.09C405.16,229.66,405.18,229.73,405.18,229.8Zm5,.45.24,1.13.17.79c0,.12,0,.21,0,.26s0-.14,0-.26l-.17-.79-.24-1.13c-.16-.7-.34-1.49-.53-2.26C409.85,228.76,410,229.55,410.19,230.25Z"></path><path d="M406.29,215.66l.13.19.24.33c.06.09.13.19.21.29h0a19.13,19.13,0,0,0,1.55,1.77l.3.29-1.78-2.3s0,0,0,.06a.64.64,0,0,0,0-.07l-.69-.89s0,0,0,0,0,0,0,.07A.38.38,0,0,0,406.29,215.66Z"></path><path d="M391.16,205.66a.54.54,0,0,1-.05.11.4.4,0,0,1-.13.16h0a.31.31,0,0,1-.13.06h-.05a.34.34,0,0,1-.14,0h-.09l-.45-.08-.3-.06-.13,0a11.28,11.28,0,0,0-3.58,6.09h0l.46.48.23.25a.35.35,0,0,1,.07.3h0s0,.07-.06.11a.4.4,0,0,1-.08.16l0,0-.14.11-.39.3-.29.22a10,10,0,0,0,2,6.18c.37,0,.64-.05.82-.05h.18a.31.31,0,0,1,.19.06l.09.06a.45.45,0,0,1,.08.22s0,.06,0,.08v0c0,.09,0,.43-.14.94a10.54,10.54,0,0,0,5.6,2.66c.37-.41.64-.67.69-.71a.3.3,0,0,1,.27-.08h.05a.36.36,0,0,1,.22.13,1.38,1.38,0,0,0,.14.21l.08.11c.08.13.19.27.31.46a11,11,0,0,0,5.78-1.67c0-.21,0-.38,0-.54s0-.4,0-.43a.32.32,0,0,1,.15-.25.31.31,0,0,1,.12-.05h.17l.46.13.42.12a10.91,10.91,0,0,0,3.28-5c-.08-.1-.15-.2-.21-.29l-.24-.33a1.43,1.43,0,0,1-.13-.2.33.33,0,0,1-.06-.22s0-.05,0-.07,0,0,0,0l-1.44-1.88v0a16.06,16.06,0,0,0-5.83-7.68,7.94,7.94,0,0,0-1.38-.22,7.94,7.94,0,0,1,1.38.22c-.87-1.16-1.58-2.13-2.06-2.81a11.2,11.2,0,0,0-5.58,1.65c-.07.43-.13.76-.16.93S391.16,205.64,391.16,205.66Zm9,5.54a4.22,4.22,0,0,1-6.74,5,4.21,4.21,0,0,1,6.74-5Zm-5.69,6.39a4.51,4.51,0,0,0,2.47.49A4.51,4.51,0,0,1,394.45,217.59Zm-.4-7.51a4.69,4.69,0,0,1,2.61-1A4.69,4.69,0,0,0,394.05,210.08Zm5.51,7.39a5.34,5.34,0,0,1-1.15.62A5.34,5.34,0,0,0,399.56,217.47Zm1.66-4a4.38,4.38,0,0,0-.75-2.46A4.38,4.38,0,0,1,401.22,213.45Zm-7.4-3.68a5.2,5.2,0,0,1,2.85-1A5.2,5.2,0,0,0,393.82,209.77ZM404.63,215a8.37,8.37,0,0,1-2,4,8.71,8.71,0,0,1-1.15,1,8.21,8.21,0,0,1-1.32.81,9.3,9.3,0,0,1-1.41.54,8.39,8.39,0,0,1-1.48.28,8.39,8.39,0,0,0,1.48-.28,9.3,9.3,0,0,0,1.41-.54,8.21,8.21,0,0,0,1.32-.81,8.71,8.71,0,0,0,1.15-1A8.37,8.37,0,0,0,404.63,215Zm-3-1.54a5.11,5.11,0,0,1-1.33,3.37,5.11,5.11,0,0,0,1.33-3.37,5,5,0,0,0-.35-1.82A5,5,0,0,1,401.61,213.45Z"></path></g><rect x="178.96" y="353.06" width="4.98" height="44.25" transform="translate(362.9 750.38) rotate(180)" style="fill:#fff;stroke:#263238;stroke-linecap:round;stroke-linejoin:round"></rect><rect x="176.61" y="381.78" width="9.38" height="48.94" transform="translate(362.6 812.51) rotate(180)" style="fill:#263238;stroke:#263238;stroke-linecap:round;stroke-linejoin:round"></rect><rect x="176.48" y="439.12" width="9.21" height="14.54" transform="translate(362.16 892.78) rotate(180)" style="fill:#263238;stroke:#263238;stroke-linecap:round;stroke-linejoin:round"></rect><circle cx="128.01" cy="446.87" r="7.75" transform="translate(-99.25 41.37) rotate(-13.28)" style="fill:#263238;stroke:#263238;stroke-linecap:round;stroke-linejoin:round"></circle><path d="M124.38,446.87a3.64,3.64,0,1,0,3.63-3.63A3.63,3.63,0,0,0,124.38,446.87Z" style="fill:#fff;stroke:#263238;stroke-linecap:round;stroke-linejoin:round"></path><circle cx="235.36" cy="446.87" r="7.75" transform="translate(-267.47 494.29) rotate(-67.61)" style="fill:#fff;stroke:#263238;stroke-linecap:round;stroke-linejoin:round"></circle><path d="M231.73,446.87a3.64,3.64,0,1,0,3.63-3.63A3.63,3.63,0,0,0,231.73,446.87Z" style="fill:#fff;stroke:#263238;stroke-linecap:round;stroke-linejoin:round"></path><polygon points="177.69 428.7 181.56 427.25 185.44 428.7 242.39 438.88 242.39 443.24 238.75 443.24 236.09 441.06 183.26 435.66 183.26 443 178.66 443 178.66 435.78 127.04 441.06 124.38 443.24 120.74 443.24 120.74 438.88 177.69 428.7" style="fill:#263238;stroke:#263238;stroke-linecap:round;stroke-linejoin:round"></polygon><path d="M169.89,327.54s-14.64.44-19-.43-12-1.1-11.71,5.92,6.59,23.24,15.37,29.82S196,369.43,196,369.43h32.17a10.16,10.16,0,0,0,9.46-13.88l-.15-.37c-5.12-12.72-23.18-21.5-40-24.78S169.89,327.54,169.89,327.54Z" style="fill:#878787;stroke:#263238;stroke-linecap:round;stroke-linejoin:round"></path><path d="M148.61,333.63s-2.54,5.93,17.78,9.31,49.51.43,58.4,3,9.73,9.73,7.61,14" style="fill:none;stroke:#263238;stroke-linecap:round;stroke-linejoin:round"></path><path d="M227.9,305.88S278,313.58,287.22,319s23.88,13.36,20,28.25-27.22,69.6-27.48,70.62a49.29,49.29,0,0,0-.26,5.65,4.4,4.4,0,0,1,1.55,2.83,57.06,57.06,0,0,1-.77,5.9l9.24,9.25s12.58,6.42,12.33,9-5.65,3.85-8.22,4.62-11.3.26-15.67-.77-15.66-7.45-20.28-9-10.53-2.05-10.79-5.39,5.65-11.05,6.68-13.87,2.31-11.81,3.59-13.87a13.81,13.81,0,0,0,2.31-4.88c.52-2.05,11-54.44,11-54.44s-44.69-39.55-46.23-41.34-8.53-7.28-5.68-7.37S227.9,305.88,227.9,305.88Z" style="fill:#263238;stroke:#263238;stroke-linecap:round;stroke-linejoin:round"></path><path d="M218.62,304.16s33.67,6.85,45,12.76,15.15,9.5,15.41,13.35-24.39,74.73-25.42,80.9-6.17,19-6.17,19a52.27,52.27,0,0,0,.52,5.39c.26.77-1,4.37-1,4.37l3.85,8s6.94,5.9,12.07,8,4.63,4.36,3.6,6.42-7.45,3.08-14.13,3.08-13.61-2.82-18.49-4.62-13.61-8.22-17.2-10.27-8-6.47-4.12-9.4,12.85-13.2,12.85-13.2,5.39-25.17,5.39-29.28,1.29-25.93,2.83-34.41,3.08-20.54,3.08-20.54-55,1.79-65.74,0-18-3.6-20.55-9.76a23.28,23.28,0,0,1-1.89-11.05s7.8-13.6,15.25-18.48S208.64,300,208.64,300Z" style="fill:#263238;stroke:#263238;stroke-linecap:round;stroke-linejoin:round"></path><path d="M262.82,455.85c-5.13-2.06-12.07-8-12.07-8l-3.85-8a43.36,43.36,0,0,1-17.39,1.13,30.53,30.53,0,0,1-11.78-4.93,57.1,57.1,0,0,1-5.25,4.93c-3.87,2.93.52,7.34,4.12,9.4s12.33,8.47,17.2,10.27,11.82,4.62,18.49,4.62,13.1-1,14.13-3.08S268,457.9,262.82,455.85Z" style="fill:#92E3A9;stroke:#263238;stroke-linecap:round;stroke-linejoin:round"></path><path d="M233.8,460.73c4.88,1.8,11.82,4.62,18.49,4.62s13.1-1,14.13-3.08a7.06,7.06,0,0,0,.55-1.42c-2.56.4-6.81,1-10.31,1.16-5.39.26-14.89-2.31-20.8-5.65-5.2-2.94-18.62-14.07-21.75-16.68-.6.54-1.16,1-1.63,1.38-3.87,2.93.52,7.34,4.12,9.4S228.93,458.93,233.8,460.73Z" style="fill:#fff;stroke:#263238;stroke-linecap:round;stroke-linejoin:round"></path><line x1="251.94" y1="228.91" x2="239.69" y2="211.35" style="fill:none;stroke:#263238;stroke-linecap:round;stroke-linejoin:round;stroke-width:7px"></line><path d="M161.37,245.63s-3.33-14.37-5.64-18.74-3.08-10,.25-14.89" style="fill:none;stroke:#263238;stroke-linecap:round;stroke-linejoin:round"></path><path d="M242.5,221.76,228.89,241l-12.83,5.14-13.61-.52-4.62-13.35s-4.62-4.36-18-3.08-18.74,14.64-18.49,16.43,9.5,23.88,12.07,27.21,3.08,9.5,7.44,10.53,14.89-5.9,14.89-5.9,34.66-21.57,38.77-23.88,11-5.39,13.35-6.67a14.1,14.1,0,0,0,4.11-4.11s2.05,2.82,3.59,1.54,4.62-9.76,4.62-9.76.9-5.53,1.09-7.64-8.53-4.94-11.61-6.22S247.12,216.62,242.5,221.76Z" style="fill:#fff;stroke:#263238;stroke-linecap:round;stroke-linejoin:round"></path><path d="M249.69,220.73c-3.09-1.28-2.57-4.11-7.19,1L228.89,241l-2.66,1.07c.28,2,1,5.87,2.66,8.43a12.23,12.23,0,0,0,4.47,3.77l1.18-.69c4.11-2.31,11-5.39,13.35-6.67a14.1,14.1,0,0,0,4.11-4.11s2.05,2.82,3.59,1.54,4.62-9.76,4.62-9.76.9-5.53,1.09-7.64S252.77,222,249.69,220.73Z" style="fill:#263238;stroke:#263238;stroke-linecap:round;stroke-linejoin:round"></path><path d="M199.88,244.86s-6.16-3.85-16.17,2.06" style="fill:none;stroke:#263238;stroke-linecap:round;stroke-linejoin:round"></path><path d="M197.83,232.28l-1.29-13.09s-1.28-14.63-8.47-20" style="fill:none;stroke:#263238;stroke-linecap:round;stroke-linejoin:round"></path><path d="M239.69,211.35s-7.35-2-12.66,8.17-9.4,32.26-11.85,45.74-39,170.4-11,196.46c14.56,13.57,31.45,13.07,61.68,9.39s42.07-5.72,40-12.25-26.54-4.9-26.54-4.9" style="fill:none;stroke:#263238;stroke-linecap:round;stroke-linejoin:round;stroke-width:2px"></path></g></svg>
